<?xml version="1.0" encoding="UTF-8"?>
<svg xmlns="http://www.w3.org/2000/svg" viewBox="0 0 404.89 357.39">
  <defs>
    <style>
      .cls-1 {
        opacity: .3;
      }

      .cls-2 {
        isolation: isolate;
      }

      .cls-3 {
        fill: #82cef2;
        mix-blend-mode: multiply;
      }
    </style>
  </defs>
  <g class="cls-2">
    <g id="_レイヤー_2" data-name="レイヤー 2">
      <g id="design">
        <g class="cls-1">
          <rect class="cls-3" x="165.86" y="181.98" width="52.12" height="52.12" transform="translate(203.32 -74.78) rotate(45)"/>
          <rect class="cls-3" x="220.44" y="164.89" width="41.17" height="41.17" transform="translate(201.74 -116.11) rotate(45)"/>
          <rect class="cls-3" x="170.35" y="147.27" width="34.61" height="34.61" transform="translate(171.33 -84.49) rotate(45)"/>
          <rect class="cls-3" x="150.68" y="164.65" width="31.1" height="31.1" transform="translate(176.11 -64.76) rotate(45)"/>
          <rect class="cls-3" x="112.53" y="147.75" width="50.82" height="50.82" transform="translate(162.84 -46.82) rotate(45)"/>
          <rect class="cls-3" x="107.13" y="199.05" width="36.9" height="36.9" transform="translate(190.58 -25.09) rotate(45)"/>
          <rect class="cls-3" x="173.75" y="219.01" width="41.6" height="41.6" transform="translate(226.56 -67.33) rotate(45)"/>
          <rect class="cls-3" x="208.24" y="201.22" width="41.6" height="41.6" transform="translate(224.08 -96.93) rotate(45)"/>
          <rect class="cls-3" x="240.25" y="210.43" width="32.77" height="32.77" transform="translate(235.55 -115.04) rotate(45)"/>
          <rect class="cls-3" x="269.98" y="246.09" width="17.61" height="17.61" transform="translate(261.89 -122.48) rotate(45)"/>
          <rect class="cls-3" x="322.55" y="219.62" width="34.14" height="34.14" transform="translate(266.84 -170.82) rotate(45)"/>
          <rect class="cls-3" x="304.2" y="194.79" width="38.49" height="38.49" transform="translate(246.08 -166.02) rotate(45)"/>
          <rect class="cls-3" x="301.3" y="161.75" width="38.49" height="38.49" transform="translate(221.87 -173.65) rotate(45)"/>
          <rect class="cls-3" x="280.45" y="172.55" width="19.92" height="19.92" transform="translate(214.11 -151.89) rotate(45)"/>
          <rect class="cls-3" x="327.72" y="159.8" width="27.04" height="27.04" transform="translate(222.5 -190.53) rotate(45)"/>
          <rect class="cls-3" x="246.16" y="147.93" width="51.83" height="51.83" transform="translate(202.62 -141.47) rotate(45)"/>
          <rect class="cls-3" x="226.39" y="106.96" width="39.44" height="39.44" transform="translate(161.66 -136.92) rotate(45)"/>
          <rect class="cls-3" x="312.86" y="104.65" width="32.81" height="32.81" transform="translate(182.04 -197.37) rotate(45)"/>
          <rect class="cls-3" x="338.19" y="104.92" width="22.08" height="22.08" transform="translate(184.28 -212.98) rotate(45)"/>
          <rect class="cls-3" x="182.12" y="104.83" width="44.86" height="44.86" transform="translate(149.89 -107.37) rotate(45)"/>
          <rect class="cls-3" x="202.07" y="101.64" width="32.16" height="32.16" transform="translate(147.13 -119.78) rotate(45)"/>
          <rect class="cls-3" x="147.72" y="113.4" width="22.49" height="22.49" transform="translate(134.7 -75.9) rotate(45)"/>
          <rect class="cls-3" x="72.21" y="116.28" width="41.33" height="41.33" transform="translate(124.04 -25.57) rotate(45)"/>
          <rect class="cls-3" x="76.8" y="158.67" width="35.79" height="35.79" transform="translate(152.59 -15.25) rotate(45)"/>
          <rect class="cls-3" x="53.16" y="106.5" width="26.42" height="26.42" transform="translate(104.09 -11.87) rotate(45)"/>
          <rect class="cls-3" x="49.56" y="151.36" width="30.72" height="30.72" transform="translate(136.9 2.92) rotate(45)"/>
          <rect class="cls-3" x="54.84" y="189.8" width="47.76" height="47.76" transform="translate(174.16 6.92) rotate(45)"/>
          <rect class="cls-3" x="39.77" y="223.74" width="32.88" height="32.88" transform="translate(186.29 30.6) rotate(45)"/>
          <rect class="cls-3" x="6.79" y="160.07" width="32.81" height="32.81" transform="translate(131.58 35.28) rotate(45)"/>
          <rect class="cls-3" x="32.13" y="160.34" width="22.08" height="22.08" transform="translate(133.83 19.67) rotate(45)"/>
          <rect class="cls-3" x="357.28" y="155.44" width="39.44" height="39.44" transform="translate(234.28 -215.28) rotate(45)"/>
          <rect class="cls-3" x="266.78" y="81.2" width="32.81" height="32.81" transform="translate(151.96 -171.65) rotate(45)"/>
          <rect class="cls-3" x="292.12" y="81.48" width="22.08" height="22.08" transform="translate(154.21 -187.27) rotate(45)"/>
          <rect class="cls-3" x="102.19" y="98.02" width="32.81" height="32.81" transform="translate(115.65 -50.35) rotate(45)"/>
          <rect class="cls-3" x="127.53" y="98.29" width="22.08" height="22.08" transform="translate(117.9 -65.96) rotate(45)"/>
          <rect class="cls-3" x="161.76" y="72.69" width="34.14" height="34.14" transform="translate(115.85 -100.16) rotate(45)"/>
          <rect class="cls-3" x="143.41" y="47.86" width="38.49" height="38.49" transform="translate(95.09 -95.36) rotate(45)"/>
          <rect class="cls-3" x="196.95" y="14.77" width="71.31" height="71.31" transform="translate(32.48 179.25) rotate(-45)"/>
          <rect class="cls-3" x="109.52" y="229.86" width="71.31" height="71.31" transform="translate(-145.22 180.42) rotate(-45)"/>
          <rect class="cls-3" x="203.83" y="246.67" width="71.31" height="71.31" transform="translate(-129.49 252.03) rotate(-45)"/>
          <rect class="cls-3" x="176.21" y="294.82" width="51.83" height="51.83" transform="translate(286 -48.98) rotate(45)"/>
          <rect class="cls-3" x="269.14" y="271.02" width="32.81" height="32.81" transform="translate(286.87 -117.73) rotate(45)"/>
          <rect class="cls-3" x="294.48" y="271.29" width="22.08" height="22.08" transform="translate(289.12 -133.34) rotate(45)"/>
        </g>
      </g>
    </g>
  </g>
</svg>