<?xml version="1.0" encoding="UTF-8"?>
<svg id="_レイヤー_2" data-name="レイヤー 2" xmlns="http://www.w3.org/2000/svg" viewBox="0 0 52.75 52.75">
  <defs>
    <style>
      .cls-1 {
        fill: #164097;
      }

      .cls-2 {
        fill: #fff;
      }
    </style>
  </defs>
  <g id="design">
    <g>
      <circle class="cls-1" cx="26.37" cy="26.37" r="26.37"/>
      <path class="cls-2" d="M32.11,42.59l3.44-2.44-3.66-6.73s-.91-.12-3.06.63c-2.14.75-3.8-1.29-5.57-6.36l-.17-.5c-1.77-5.06-1.74-7.69.4-8.44,2.14-.75,2.78-1.41,2.78-1.41l-1.32-7.55-4.21.23s-2.56.17-3.26,4.63c-.7,4.46-.13,9.64,1.47,14.24h0s0,0,0,.01,0,0,0,.01h0c1.61,4.6,4.38,9.01,7.7,12.07,3.33,3.06,5.44,1.6,5.44,1.6Z"/>
    </g>
  </g>
</svg>