<?xml version="1.0" encoding="UTF-8"?>
<svg id="_レイヤー_2" data-name="レイヤー 2" xmlns="http://www.w3.org/2000/svg" viewBox="0 0 103 101.86">
  <defs>
    <style>
      .cls-1 {
        fill: #164097;
      }

      .cls-2 {
        fill: #fff;
      }
    </style>
  </defs>
  <g id="design">
    <g>
      <ellipse class="cls-1" cx="51.5" cy="50.93" rx="51.5" ry="50.93"/>
      <g>
        <path class="cls-2" d="M56.79,14.54c.01-.52-.4-.95-.92-.97l-1.8-.05.19-7.02c.01-.39-.29-.71-.68-.72l-.78-.02c-.38-.01-.71.29-.72.68l-.19,7.02-1.8-.05c-.52-.01-.95.4-.97.92l-.06,2.38,7.65.2.06-2.38Z"/>
        <path class="cls-2" d="M63.13,63.05l-8.9-.23c1.59,1.98,2.47,5.37,2.73,6.51.03-.05.06-.11.11-.16l6.18-5.86c-.04-.09-.08-.17-.13-.26Z"/>
        <path class="cls-2" d="M43.72,54.88c-.88,2.33-1.82,4.4-2.75,6.19l9.36.25-6.42-6.06c-.11-.1-.17-.24-.19-.37Z"/>
        <path class="cls-2" d="M63.91,64.61l-5.43,5.15,8.76.23s-1.49-1.9-3.33-5.38Z"/>
        <path class="cls-2" d="M60.05,55.31c-.03.14-.1.27-.21.36l-6.73,5.71,9.36.25c-.83-1.84-1.66-3.95-2.42-6.32Z"/>
        <polygon class="cls-2" points="52.59 54.78 52.45 60.11 58.54 54.94 52.59 54.78"/>
        <polygon class="cls-2" points="51.05 60.07 51.19 54.75 45.25 54.59 51.05 60.07"/>
        <path class="cls-2" d="M40.1,62.7l5.86,6.18s.07.11.1.16c.32-1.13,1.38-4.46,3.08-6.36l-8.9-.23c-.05.08-.09.17-.14.25Z"/>
        <path class="cls-2" d="M48.92,29.63l2.28.06-1.92-3.47c-.09.98-.21,2.12-.36,3.41Z"/>
        <path class="cls-2" d="M59.52,53.56c-.49-1.74-.94-3.6-1.3-5.57l-4.59,5.41,5.89.15Z"/>
        <path class="cls-2" d="M45.93,47.67c-.47,1.95-1.01,3.78-1.59,5.49l5.89.15-4.3-5.65Z"/>
        <path class="cls-2" d="M35.76,69.17l8.76.23-5.15-5.43c-2.01,3.39-3.61,5.2-3.61,5.2Z"/>
        <path class="cls-2" d="M53.91,29.76l2.28.06c-.08-1.29-.14-2.44-.17-3.42l-2.1,3.36Z"/>
        <path class="cls-2" d="M47.83,37.57l3.47.09-2.85-4.33c-.18,1.32-.39,2.74-.62,4.24Z"/>
        <path class="cls-2" d="M51.82,31.11l-3.06-.08c0,.06-.01.12-.02.18l2.96,4.5.12-4.6Z"/>
        <path class="cls-2" d="M56.46,33.54l-3.07,4.17,3.47.09c-.16-1.51-.29-2.93-.4-4.26Z"/>
        <path class="cls-2" d="M53.1,35.75l3.2-4.34c0-.06,0-.12-.01-.18l-3.06-.08-.12,4.6Z"/>
        <path class="cls-2" d="M52.83,45.96l-.17,6.43,5.25-6.19s.01,0,.02-.01c0-.03-.01-.06-.02-.1l2.25.06c.29,0,.55-.21.62-.53l1.08-4.46c.11-.45-.18-.89-.59-.9l-4.15-.11c-.04-.32-.08-.64-.11-.95l-4-.11-.02.94-1.4-.04.02-.94-4-.11c-.05.31-.11.63-.16.94l-4.15-.11c-.41-.01-.72.42-.63.87l.85,4.51c.06.32.31.55.6.56l2.25.06s-.01.06-.02.1c0,0,.01.01.02.02l4.91,6.46.17-6.43,1.4.04Z"/>
        <path class="cls-2" d="M48.39,22.51l1.17.03c-.01.22-.04.61-.08,1.18,0,0,.01.02.02.02l2.4,4.32.14-5.46,1.4.04-.14,5.46,2.62-4.19s.01-.01.02-.02c-.01-.57-.01-.97-.02-1.19l1.17.03c.35,0,.64-.26.64-.61l.08-3.16c0-.35-.26-.63-.61-.64l-8.7-.23c-.35,0-.64.26-.64.61l-.08,3.16c0,.35.26.63.61.64Z"/>
      </g>
      <g>
        <path class="cls-2" d="M24.9,78.22h-3.75v-2.23h10.19v2.23h-3.78v11.11h-2.67v-11.11Z"/>
        <path class="cls-2" d="M32.83,82.61c0-4.34,2.43-6.86,5.96-6.86s5.96,2.54,5.96,6.86-2.43,6.97-5.96,6.97-5.96-2.65-5.96-6.97ZM42.04,82.61c0-2.86-1.26-4.57-3.24-4.57s-3.24,1.71-3.24,4.57,1.26,4.66,3.24,4.66,3.24-1.82,3.24-4.66Z"/>
        <path class="cls-2" d="M47.36,75.99h2.66v5.8h.05l4.41-5.8h2.94l-4.07,5.26,4.79,8.08h-2.92l-3.46-6-1.75,2.25v3.75h-2.66v-13.34Z"/>
        <path class="cls-2" d="M61.96,84.45l-4-8.46h2.83l1.33,3.26c.38.99.74,1.93,1.15,2.95h.07c.41-1.03.81-1.96,1.19-2.95l1.33-3.26h2.77l-4.02,8.46v4.88h-2.66v-4.88Z"/>
        <path class="cls-2" d="M69.5,82.61c0-4.34,2.43-6.86,5.96-6.86s5.96,2.54,5.96,6.86-2.43,6.97-5.96,6.97-5.96-2.65-5.96-6.97ZM78.7,82.61c0-2.86-1.26-4.57-3.24-4.57s-3.24,1.71-3.24,4.57,1.26,4.66,3.24,4.66,3.24-1.82,3.24-4.66Z"/>
      </g>
    </g>
  </g>
</svg>