<?xml version="1.0" encoding="UTF-8"?>
<svg id="_レイヤー_2" data-name="レイヤー 2" xmlns="http://www.w3.org/2000/svg" viewBox="0 0 103 101.86">
  <defs>
    <style>
      .cls-1 {
        fill: #164097;
      }

      .cls-2 {
        fill: #fff;
      }
    </style>
  </defs>
  <g id="design">
    <g>
      <ellipse class="cls-1" cx="51.5" cy="50.93" rx="51.5" ry="50.93"/>
      <g>
        <path class="cls-2" d="M54.47,12.05c0-.22-.18-.39-.39-.39h-.28s0-.05,0-.07v-1.44c0-.38-.31-.69-.69-.69h-3.23c-.38,0-.69.31-.69.69v1.44s0,.05,0,.07h-.28c-.22,0-.39.18-.39.39v2.25h5.94v-2.25Z"/>
        <rect class="cls-2" x="38.87" y="63.3" width="25.27" height="4.02" rx=".75" ry=".75"/>
        <path class="cls-2" d="M48.56,20.28l-.19-4.55-3.28,1.72c-.29.15-.45.48-.4.8l.45,2.89,3.41-.85Z"/>
        <polygon class="cls-2" points="53.36 15.29 51.5 15.29 49.64 15.29 49.84 20.25 53.16 20.25 53.36 15.29"/>
        <path class="cls-2" d="M57.86,21.13l.45-2.89c.05-.33-.11-.65-.4-.8l-3.28-1.72-.19,4.55,3.41.85Z"/>
        <path class="cls-2" d="M54.18,26.75s0,.03,0,.05h2.14c.38,0,.7-.28.76-.65l.59-3.74-3.27-.82-.21,5.16Z"/>
        <path class="cls-2" d="M45.34,22.41l.59,3.74c.06.37.38.65.76.65h2.14s0-.03,0-.05l-.21-5.16-3.27.82Z"/>
        <path class="cls-2" d="M49.89,21.54l.21,5.16s0,.07,0,.1h2.81s0-.07,0-.1l.21-5.16h-3.22Z"/>
        <path class="cls-2" d="M68.12,32.24l-12.32-3.94c-.11-.17-.3-.28-.52-.28h-1.87v4.28h-1.28v-4.28h-1.25v4.28h-1.28v-4.28h-1.87c-.22,0-.41.11-.52.28l-12.32,3.94c-.35.11-.58.43-.59.79,0,.36.21.69.55.82l8.54,3.23c.1.04.2.06.3.06.35,0,.67-.21.8-.55.17-.44-.06-.94-.5-1.1l-3.92-1.48h7.26l-1.06,5.9h2.72l.56-5.9h1.29l-.56,5.9h2.47l-.56-5.9h1.29l.56,5.9h2.72l-1.06-5.9h7.26l-3.92,1.48c-.44.17-.66.66-.5,1.1.13.34.45.55.8.55.1,0,.2-.02.3-.06l8.54-3.23c.34-.13.56-.46.55-.82,0-.36-.25-.68-.59-.79ZM40.33,32.29l6.9-2.21.23,2.21h-7.13ZM55.55,32.29l.23-2.21,6.9,2.21h-7.13Z"/>
        <polygon class="cls-2" points="54.15 41.19 54.7 46.93 58 46.93 56.97 41.19 54.15 41.19"/>
        <polygon class="cls-2" points="50.14 41.19 49.59 46.93 53.41 46.93 52.86 41.19 50.14 41.19"/>
        <path class="cls-2" d="M58.21,48.21h-3.39l.55,5.74h3.89l-1.03-5.74s-.02,0-.02,0Z"/>
        <path class="cls-2" d="M44.77,48.21l-1.03,5.74h3.89l.55-5.74h-3.39s-.02,0-.02,0Z"/>
        <path class="cls-2" d="M60.67,61.79l-1.18-6.58s-.1.02-.15.02h-3.85l.63,6.55s0,0,0,.01h4.55Z"/>
        <path class="cls-2" d="M43.51,55.22l-1.18,6.58h4.55s0,0,0-.01l.63-6.55h-3.85c-.05,0-.1,0-.15-.02Z"/>
        <polygon class="cls-2" points="48.17 61.79 54.83 61.79 54.2 55.24 48.8 55.24 48.17 61.79"/>
        <polygon class="cls-2" points="45 46.93 48.3 46.93 48.85 41.19 46.03 41.19 45 46.93"/>
        <polygon class="cls-2" points="48.92 53.95 54.08 53.95 53.53 48.21 49.47 48.21 48.92 53.95"/>
      </g>
      <g>
        <path class="cls-2" d="M22.18,80.64c0-4.34,2.43-6.86,5.96-6.86s5.96,2.54,5.96,6.86-2.43,6.97-5.96,6.97-5.96-2.65-5.96-6.97ZM31.38,80.64c0-2.86-1.26-4.57-3.24-4.57s-3.24,1.71-3.24,4.57,1.26,4.66,3.24,4.66,3.24-1.82,3.24-4.66Z"/>
        <path class="cls-2" d="M35.82,85.66l1.53-1.84c.95.88,2.21,1.48,3.39,1.48,1.39,0,2.12-.59,2.12-1.53,0-.99-.81-1.3-2-1.8l-1.78-.76c-1.35-.56-2.7-1.64-2.7-3.58,0-2.18,1.91-3.85,4.61-3.85,1.55,0,3.1.61,4.18,1.71l-1.35,1.67c-.85-.7-1.73-1.1-2.83-1.1-1.17,0-1.91.52-1.91,1.4,0,.95.94,1.3,2.07,1.75l1.75.74c1.62.67,2.68,1.69,2.68,3.62,0,2.18-1.82,4.03-4.9,4.03-1.78,0-3.56-.7-4.86-1.94Z"/>
        <path class="cls-2" d="M50.49,74.01h3.13l4.29,13.34h-2.79l-.94-3.42h-4.32l-.94,3.42h-2.7l4.27-13.34ZM50.44,81.86h3.17l-.4-1.46c-.41-1.39-.77-2.92-1.15-4.36h-.09c-.34,1.46-.74,2.97-1.13,4.36l-.4,1.46Z"/>
        <path class="cls-2" d="M59.47,74.01h2.66v5.8h.05l4.41-5.8h2.94l-4.07,5.26,4.79,8.08h-2.92l-3.46-6-1.75,2.25v3.75h-2.66v-13.34Z"/>
        <path class="cls-2" d="M74.38,74.01h3.13l4.29,13.34h-2.79l-.94-3.42h-4.32l-.94,3.42h-2.7l4.27-13.34ZM74.32,81.86h3.17l-.4-1.46c-.41-1.39-.77-2.92-1.15-4.36h-.09c-.34,1.46-.74,2.97-1.13,4.36l-.4,1.46Z"/>
      </g>
    </g>
  </g>
</svg>