<?xml version="1.0" encoding="UTF-8"?>
<svg id="_レイヤー_2" data-name="レイヤー 2" xmlns="http://www.w3.org/2000/svg" viewBox="0 0 639.96 93.2">
  <defs>
    <style>
      .cls-1 {
        fill: #231815;
      }

      .cls-2 {
        fill: #7d7d7d;
      }

      .cls-3 {
        fill: none;
      }

      .cls-4 {
        fill: #8aa2c6;
      }

      .cls-5 {
        fill: #0098d8;
      }

      .cls-6 {
        fill: #1e2d58;
      }
    </style>
  </defs>
  <g id="design">
    <g>
      <g>
        <path class="cls-1" d="M110.05,55.82v1.28h-2.45v-20.89h19.89v20.87h-2.43v-1.26h-15.01ZM125.07,53.61v-15.28h-15.01v15.28h15.01ZM118.62,44.66h4.33v1.9h-1.52c.4.45,1.14,1.33,1.81,2.43-.41.24-.79.52-1.19.81h2.07v1.97h-13.01v-1.97h5.09v-3.24h-4.02v-1.9h4.02v-2.66h-4.81v-1.95h12.49v1.95h-5.26v2.66ZM120.98,46.57h-2.36v3.24h2.57c-.17-.26-.81-1.31-1.62-2.24l1.4-1Z"/>
        <path class="cls-1" d="M151.77,53.97v2.35h-21.72v-2.35h11.37c1.62-4.5,2.62-8.85,2.97-10.71l2.5.71c.21.07.45.12.45.33s-.1.24-.55.4c-.93,3.09-2.12,7.19-2.88,9.26h7.85ZM139.59,35.29l2.62.1c.14,0,.45.12.45.31s-.24.31-.45.38v3.83h8.4v2.36h-19.49v-2.36h8.47v-4.62ZM136.21,43.76c.19.4,1.9,4,2.81,8.95-.79.26-1.98.62-2.38.74-.38-2.24-1.02-5.35-2.76-8.97l2.33-.71Z"/>
        <path class="cls-1" d="M162.06,43.81v11.11h-2.14v-.86h-2.52v2.66h-2.14v-7.71c-.79,1.28-1.28,1.81-1.59,2.14-.59-.69-1.24-1.24-2.05-1.67,3.38-3.45,4.64-8.4,4.92-11.21h-3.59v-2.14h9.68v2.14h-3.71c-.17,1.67-.59,3.62-1.24,5.52h4.38ZM157.4,46.04v5.88h2.52v-5.88h-2.52ZM172.25,43.88h2.07v2.19h-2.07v11.11h-2.36v-11.11h-2.57c-.12,3.12-.31,7.69-4.33,11.35-.74-.71-1.17-1.05-2.09-1.4,1.74-1.48,4.04-3.64,4.16-9.95h-2.05v-2.19h2.05v-5.57h-1.43v-2.16h10.14v2.16h-1.52v5.57ZM169.89,38.31h-2.5v5.57h2.5v-5.57Z"/>
        <path class="cls-1" d="M197.23,37.19v4.81h-1.86c-.62,2.31-1.45,3.09-3.19,3.09h-2.71c-1.07,0-1.57-.26-1.88-.74,0,.36-.38.48-.69.52,0,.62-.02,1.09-.1,1.93l5.97-.12c0,.19-.62,6.28-.62,7.07,0,.64.26.81,1.4.81,1.21,0,1.59-.1,2-2.95.45.38,1.07.88,2.33,1.17-.9,4.02-1.69,4.09-4.74,4.09-2.07,0-3.5,0-3.5-2.43,0-.64.4-4.88.45-5.4l-3.66.07c-.38,1.74-1.62,6.59-9.42,8.26-.55-1.33-1.05-1.86-1.43-2.26,1.57-.17,6.88-.95,8.23-5.95l-6.85.12-.12-2.31,7.4-.12c.14-1.1.14-1.98.12-2.93l2.31.12c.52.02.62.05.83.19-.26-.52-.26-.93-.26-1.26v-3.62h-3.5l1.74.69c.24.1.4.17.4.41,0,.29-.48.29-.69.29-1.09,2-3.66,4.33-6.54,5.38-.36-.81-.74-1.31-1.4-2,3.28-.83,5.62-3.38,6.14-4.76h-4.64v2.78h-2.47v-4.95h9.16v-1.9l2.64.02c.31,0,.55.07.55.29,0,.29-.33.41-.59.48v1.12h9.18ZM189.73,39.36v2.59c0,.76.21.97.83.97h1.19c.88,0,1.17-.48,1.36-2,.5.38,1.02.64,1.64.83v-2.4h-5.02Z"/>
        <path class="cls-1" d="M209.36,36.03v7.61h-6.66v13.51h-2.4v-21.13h9.07ZM207.05,39.07v-1.26h-4.35v1.26h4.35ZM202.7,40.57v1.28h4.35v-1.28h-4.35ZM213.91,49.07h2.97v2h-2.97v5.42h-2.24v-5.42h-2.47c-.48,2.52-1.64,4.43-3.74,5.85-.67-.81-.95-.97-1.9-1.4,1.81-1.09,2.93-2.47,3.36-4.45h-2.83v-2h3.09c.02-.36.02-.52.02-2.02h-2.47v-1.9h11.44v1.9h-2.26v2.02ZM211.67,47.04h-2.26v2.02h2.26v-2.02ZM220.5,36.03v18.03c0,2.83-1.38,3.12-4.19,3.12-.1-.6-.24-1.19-1.02-2.55.33.07.9.17,1.59.17s1.19-.14,1.19-1.05v-10.09h-6.71v-7.64h9.14ZM218.07,39.1v-1.26h-4.4v1.26h4.4ZM213.67,40.57v1.28h4.4v-1.28h-4.4Z"/>
        <path class="cls-1" d="M239.76,44.97h-1.95v2.9h5.04v2.24h-5.04v3.21c0,.95.09,1.17,1.48,1.17h1.5c1.07,0,1.76-.07,2.19-2.83.81.57,1.28.86,2.19,1.24-.95,3.26-1.4,3.83-4.14,3.83h-2.74c-2.88,0-2.88-1.62-2.88-2.69v-3.93h-2.9c-.9,4-3.97,6.26-7.21,7.14-.24-.4-.59-1.07-1.48-2.05,3.14-.52,5.66-2.71,6.31-5.09h-4.52v-2.24h4.88c.02-.45.02-.74.02-1.26v-1.64h-1.69v-1.12c-1.5,1.31-2.69,2.14-4.4,3-.43-.62-1.02-1.29-1.71-1.76,2.12-.79,3.93-2.24,4.12-2.43-1.64-1.5-1.81-1.67-2.55-2.21l1.57-1.43c1.19.81,2.19,1.69,2.64,2.12.67-.69,1.48-1.57,1.81-2.43h-5.61v-2.05h8.35l.62.95c-.81,1.93-2.17,3.62-3.57,5.07h8.66c-2.47-2.4-4.07-5.16-4.57-6.21l1.86-1.05c.5.93.9,1.5,1.62,2.5.19-.19,1.26-1.24,1.97-2.4l1.78,1.19c.17.12.24.24.24.36,0,.33-.52.29-.81.24-.6.81-.74.95-1.98,2.19.52.62.93,1,1.28,1.33.62-.6,1.48-1.52,2.36-2.81l1.81,1.29c.19.14.26.19.26.33,0,.29-.4.26-.71.26-.88,1.02-.93,1.09-2.12,2.24.88.64,2.21,1.55,3.57,2.16-.31.29-1.05,1.05-1.59,2.05-1.78-.97-2.52-1.45-3.95-2.71v1.33ZM232.83,44.97v1.76c0,.4,0,.69-.02,1.14h2.59v-2.9h-2.57Z"/>
        <path class="cls-1" d="M246.81,55.63c1.74-2.36,3.31-6,3.9-7.85,1,1.17,1.57,1.36,1.88,1.48-1.02,3.07-2.95,6.66-3.24,7.21.05.1.14.26.14.4,0,.17-.1.29-.26.29-.14,0-.31-.07-.45-.17l-1.98-1.36ZM248.22,41.67c2.05,1.38,3.16,2.31,3.97,3.07-.38.43-1.09,1.36-1.4,1.81-1.67-1.43-2.62-2.19-3.95-3.05l1.38-1.83ZM249.88,35.58c1.19.78,2.9,2.24,3.83,3.28-.86.86-.95.97-1.62,1.81-.86-.95-2.38-2.43-3.81-3.4l1.59-1.69ZM268.32,39.34v2.19h-5.92v3.62h6.76v2.24h-6.85c-.07.4-.59.48-.88.52-.64,1.5-1.12,2.5-2.71,5.57,2.76-.29,4.95-.71,6.07-.93-1.36-2.09-1.76-2.55-2.16-3l1.97-1.28c2.81,3.35,4.52,6.73,4.86,7.47-1.24.67-1.55.83-2.19,1.38-.21-.43-1.12-2.28-1.33-2.66-4.28.95-8.07,1.5-11.16,1.81-.07.21-.24.43-.48.43-.28,0-.38-.31-.43-.52l-.52-2.28c.45,0,.97,0,2.55-.12,1.52-2.85,2.69-5.66,2.95-6.38h-5.57v-2.24h6.57v-3.62h-5.47v-2.19h5.47v-3.9l2.55.12c.21,0,.55.05.55.31,0,.21-.22.33-.52.43v3.05h5.92Z"/>
        <path class="cls-1" d="M283.59,35.58c.24.02.62.1.62.36,0,.17-.14.21-.62.43-.07,4.45.1,6.78.67,8.78,1.31,4.59,4.71,7.8,9.09,9.8-.9.74-1.31,1.21-1.83,2.19-2.26-1.14-3.81-2.36-5.57-4.21-2.04-2.19-2.88-4-3.57-5.95-.86,2.4-1.59,3.93-3.57,6.02-1.95,2.04-3.59,3.12-5.59,4.12-.74-1-1.14-1.43-2.07-2.09,4.73-2.12,7.69-4.88,8.9-9.07.91-3.12.91-4.85.91-10.56l2.64.19Z"/>
        <path class="cls-1" d="M310.91,58.22v2.03h-3.66v-27.13h22.93v27.13h-3.67v-2.03h-15.6ZM326.51,43.76v-7.36h-15.6v7.36h15.6ZM326.51,54.82v-7.83h-15.6v7.83h15.6Z"/>
        <path class="cls-1" d="M352.19,52.96h5.57v3.2h-5.57v5.4h-3.4v-5.4h-5.33v-3.2h5.33v-8.93c-3.57,7.3-8.06,11.63-11,14.16-.37-.5-1-1.33-3.23-2.5,8.1-5.8,12.13-13.43,12.93-15.1h-12.23v-3h13.53v-6.67l3.27.23c.4.03.86.07.86.47,0,.3-.3.47-.73.63v5.33h13.63v3h-12.4c2.63,5.03,6.87,10.3,13.03,14.67-1.33.97-1.9,1.47-2.7,2.7-4.93-3.7-8.86-8.56-11.56-14.1v9.1Z"/>
        <path class="cls-1" d="M398.03,45.26v2.93h-9.47c2.83,4.07,7.47,5.53,9.1,6.03-1.07.9-1.5,1.53-2,2.8-4.07-1.57-7.43-3.97-9.63-7.2-1.5,2.6-4.23,5.07-9.63,6.8-.63-1.47-1.1-1.93-2.2-3,3.7-.63,7.5-2.13,9.13-5.43h-8.5v-2.93h9.4c.13-1.1.17-2.53.2-3.67h-4.17c-1.07,1.93-1.5,2.53-1.97,3.13-.7-.8-1.87-1.43-3.07-1.73,1.9-2.27,3.43-4.87,4.2-7.73h-6.4v21.8h25.73v3.13h-25.73v1.3h-3.43v-29.23h28.96v3h-19.1l3,1.1c.37.13.63.27.63.63s-.37.4-.93.43c-.13.37-.2.53-.47,1.17h14v3h-7.96c-.03,2.13-.13,3.03-.23,3.67h10.53Z"/>
        <path class="cls-1" d="M427.76,54.16h-5.4v4.27c0,3.23-2,3.27-5.26,3.3-.03-1.33-.2-1.93-.8-3.27,1.3.17,1.43.2,1.9.2.97,0,1.07-.2,1.07-1.1v-3.4h-5.83v-4.73c-.8.63-1.4,1.03-1.97,1.37-.27-.4-.77-1.17-1.97-1.97-.2,2.57-.87,7.5-5.13,12.26-1.17-.93-1.47-1.17-2.93-1.67,1.43-1.4,4.43-4.53,4.93-10.6-1.4,1.37-1.9,1.83-2.7,2.47-.03.57-.03.77-.37.77-.27,0-.47-.37-.53-.47l-1.47-2.67c2.6-1.53,4.4-3.16,5.13-3.83v-2.3c-1.1.67-1.73,1.2-2.23,1.6-1.1-2.47-1.7-3.53-3.23-5.5l2.53-1.77c1.2,1.47,2.2,2.97,2.93,4.43v-7.8h10.86v-2.87l3.57.17c.4.03.7.07.7.37,0,.2-.07.37-.7.67v1.67h11.4v2.8h-9.57c.1.1.13.17.13.23,0,.47-.83.57-1.13.63-.23.77-.37,1.07-.5,1.47h11.06v2.47h-7.67c.33.57.93,1.43,2.27,2.83,1.9-1.7,2.33-2.23,2.7-2.7l1.97,1.56c.4.33.5.4.5.6,0,.3-.33.33-.47.33-.2,0-.3-.03-.43-.07-.43.43-.6.63-2.3,2,1.97,1.47,3.03,1.97,4,2.43-1.03.77-1.53,1.23-2.1,2.3-.73-.4-1.5-.83-2.97-1.93v5.43ZM417.02,55.89c.4.27.43.4.43.5,0,.43-.6.4-.97.37-1.47,1.63-2.9,2.93-5.37,4.47-.77-.97-1.13-1.27-2.6-2,2.47-1.37,4.7-3.1,6.13-5l2.37,1.67ZM417.99,38.89c.2-.53.4-1.1.73-2.33h-9.1v6.2c0,2.83,0,3.13-.1,5.76,1.03-.57,1.87-1.03,3.53-2.57-1.17-1.37-2.23-2.2-2.7-2.57l1.87-1.7c1.2,1.07,1.33,1.17,2.53,2.47.73-.87,1.3-1.63,2-2.8h-6.53v-2.47h7.77ZM416.59,48.49h8v-1.4h-8v1.4ZM424.59,50.49h-8v1.5h8v-1.5ZM423.66,44.96c-.43-.5-1.67-1.93-2.53-3.6h-1c-.83,1.57-1.47,2.47-2.3,3.6h5.83ZM425.76,54.42c2.87,1.37,5.6,4.1,6.2,4.73-1.3,1.2-1.73,1.73-2.13,2.23-1.77-1.87-4.03-3.7-6.43-5.07l2.37-1.9Z"/>
        <path class="cls-1" d="M448.75,42.79v15.56h-3v-1.2h-3.53v3.73h-3v-10.8c-1.1,1.8-1.8,2.53-2.23,3-.83-.97-1.73-1.73-2.87-2.33,4.73-4.83,6.5-11.76,6.9-15.7h-5.03v-3h13.56v3h-5.2c-.23,2.33-.83,5.07-1.73,7.73h6.13ZM442.22,45.92v8.23h3.53v-8.23h-3.53ZM463.02,42.89h2.9v3.07h-2.9v15.56h-3.3v-15.56h-3.6c-.17,4.36-.43,10.76-6.07,15.9-1.03-1-1.63-1.47-2.93-1.97,2.43-2.07,5.67-5.1,5.83-13.93h-2.87v-3.07h2.87v-7.8h-2v-3.03h14.2v3.03h-2.13v7.8ZM459.72,35.09h-3.5v7.8h3.5v-7.8Z"/>
        <path class="cls-1" d="M497.94,33.53v6.73h-2.6c-.87,3.23-2.03,4.33-4.47,4.33h-3.8c-1.5,0-2.2-.37-2.63-1.03,0,.5-.53.67-.97.73,0,.87-.03,1.53-.13,2.7l8.37-.16c0,.27-.87,8.8-.87,9.9,0,.9.37,1.13,1.97,1.13,1.7,0,2.23-.13,2.8-4.13.63.53,1.5,1.23,3.27,1.63-1.27,5.63-2.37,5.73-6.63,5.73-2.9,0-4.9,0-4.9-3.4,0-.9.57-6.83.63-7.57l-5.13.1c-.53,2.43-2.27,9.23-13.2,11.56-.77-1.87-1.47-2.6-2-3.17,2.2-.23,9.63-1.33,11.53-8.33l-9.6.17-.17-3.23,10.36-.17c.2-1.53.2-2.77.17-4.1l3.23.17c.73.03.86.07,1.17.27-.37-.73-.37-1.3-.37-1.77v-5.06h-4.9l2.43.97c.33.13.57.23.57.57,0,.4-.67.4-.97.4-1.53,2.8-5.13,6.07-9.17,7.53-.5-1.13-1.03-1.83-1.97-2.8,4.6-1.17,7.87-4.73,8.6-6.66h-6.5v3.9h-3.47v-6.93h12.83v-2.67l3.7.03c.43,0,.77.1.77.4,0,.4-.47.57-.83.67v1.57h12.86ZM487.44,36.56v3.63c0,1.07.3,1.37,1.17,1.37h1.67c1.23,0,1.63-.67,1.9-2.8.7.53,1.43.9,2.3,1.17v-3.37h-7.03Z"/>
        <path class="cls-1" d="M514.86,31.89v10.66h-9.33v18.93h-3.37v-29.59h12.7ZM511.63,36.16v-1.77h-6.1v1.77h6.1ZM505.53,38.26v1.8h6.1v-1.8h-6.1ZM521.23,50.16h4.17v2.8h-4.17v7.6h-3.13v-7.6h-3.47c-.67,3.53-2.3,6.2-5.23,8.2-.93-1.13-1.33-1.37-2.67-1.97,2.53-1.53,4.1-3.47,4.7-6.23h-3.97v-2.8h4.33c.03-.5.03-.73.03-2.83h-3.47v-2.67h16.03v2.67h-3.17v2.83ZM518.09,47.32h-3.16v2.83h3.16v-2.83ZM530.46,31.89v25.26c0,3.97-1.93,4.36-5.87,4.36-.13-.83-.33-1.67-1.43-3.57.47.1,1.27.23,2.23.23s1.67-.2,1.67-1.47v-14.13h-9.4v-10.7h12.8ZM527.06,36.19v-1.77h-6.17v1.77h6.17ZM520.89,38.26v1.8h6.17v-1.8h-6.17Z"/>
        <path class="cls-1" d="M557.37,44.42h-2.73v4.07h7.06v3.13h-7.06v4.5c0,1.33.13,1.63,2.07,1.63h2.1c1.5,0,2.46-.1,3.07-3.97,1.13.8,1.8,1.2,3.07,1.73-1.33,4.57-1.97,5.37-5.8,5.37h-3.83c-4.03,0-4.03-2.27-4.03-3.77v-5.5h-4.06c-1.27,5.6-5.57,8.76-10.1,10-.33-.57-.83-1.5-2.07-2.87,4.4-.73,7.93-3.8,8.83-7.13h-6.33v-3.13h6.83c.03-.63.03-1.03.03-1.77v-2.3h-2.37v-1.57c-2.1,1.83-3.77,3-6.16,4.2-.6-.87-1.43-1.8-2.4-2.47,2.97-1.1,5.5-3.13,5.76-3.4-2.3-2.1-2.53-2.33-3.57-3.1l2.2-2c1.67,1.13,3.07,2.37,3.7,2.97.93-.97,2.07-2.2,2.53-3.4h-7.86v-2.87h11.7l.87,1.33c-1.13,2.7-3.03,5.07-5,7.1h12.13c-3.47-3.37-5.7-7.23-6.4-8.7l2.6-1.47c.7,1.3,1.27,2.1,2.27,3.5.27-.27,1.77-1.73,2.77-3.37l2.5,1.67c.23.17.33.33.33.5,0,.47-.73.4-1.13.33-.83,1.13-1.03,1.33-2.77,3.07.73.87,1.3,1.4,1.8,1.87.86-.83,2.07-2.13,3.3-3.93l2.53,1.8c.27.2.37.27.37.47,0,.4-.56.37-1,.37-1.23,1.43-1.3,1.53-2.97,3.13,1.23.9,3.1,2.17,5,3.03-.43.4-1.47,1.47-2.23,2.87-2.5-1.37-3.53-2.03-5.53-3.8v1.87ZM547.67,44.42v2.47c0,.57,0,.97-.03,1.6h3.63v-4.07h-3.6Z"/>
        <path class="cls-1" d="M577.46,34.39c.57.47.7.6.97.8.27-.43,1.4-2.17,2.4-4.36l2.23,1.27c.27.17.4.23.4.4,0,.33-.27.37-.87.4-.73,1.37-1.53,2.7-2.37,4,.13.13.77.77.9.9.83-1.37,1.2-2.03,1.53-2.67l1.96,1.07c.07.03.43.23.43.5,0,.33-.5.3-.77.3-.67,1.03-2.9,4.27-3.97,5.57.3,0,1.9-.1,2.43-.17-.07-.37-.3-1.17-.47-1.63l1.96-.53c.17.5.87,2.9,1.1,5.07-.83.1-1.2.2-2.13.43-.03-.6-.1-1.3-.13-1.47-1.03.2-2.37.43-4.77.73-.13.3-.23.53-.47.53-.27,0-.4-.37-.43-.5l-.63-2.37c.5.03.73.03,1.24,0,.63-.87,1.26-1.9,1.8-2.77-.6-.63-1.7-1.67-2.27-2.13v2.26h-3.47v.9c.8,2.23,1.73,4,3.16,5.87-1.07,1.03-1.2,1.17-1.63,1.9-.57-.9-.83-1.57-1.53-3.23v16.06h-2.77v-14.73c-.97,3.1-2,5.23-2.63,6.53-.87-1.2-1.47-1.8-2.43-2.4,2.43-2.77,4.23-7.7,4.93-10.9h-3.93v-2.7h4.07v-6.23l2.87.2c.13,0,.67.1.67.4,0,.17-.07.27-.23.37-.2.13-.33.2-.53.3v4.97h2.96c-.4-.33-.7-.57-1.13-.9l1.53-2.03ZM582.99,51.36c1.6,1.47,2.93,3.07,3.47,3.73-.87.5-1.27.87-2.17,1.67-1.1-1.5-2.27-2.73-2.63-3.13-.6,2.9-1.57,5.2-4.4,7.9-.8-.83-1.47-1.27-2.77-2.03,4.43-2.93,4.5-6,4.56-10.1h-1.33v-2.6h8.6c-.8-4.83-.87-9.07-.77-15.83l3.3.33c.33.03.6.2.6.4,0,.27-.27.37-.9.63,0,.83-.03,1.3-.07,3.43l1.67-2c.3.27.43.4,1.2,1.1,1.07-1.53,1.73-2.7,2.5-4.07l2,1.2c.27.17.43.23.43.47,0,.33-.5.3-.77.27-1.03,1.63-1.13,1.8-2.6,3.77.5.53.67.7.8.9.87-1.17,1.27-1.83,1.6-2.4l1.87,1.2c.17.1.3.2.3.43,0,.3-.33.27-.7.23-.83,1.3-1.83,2.77-3.63,4.7.43-.03,1.37-.13,2.2-.23-.17-.63-.27-.97-.43-1.43l1.97-.5c.8,2.07,1.17,4.36,1.3,5.13-.93.17-1.63.43-2.1.63-.13-1.03-.23-1.5-.3-1.93-.63.13-1.27.27-4.97.83-.17.27-.3.53-.57.53s-.37-.27-.4-.5l-.37-2.4h.7c.67-.73,1.43-1.63,1.97-2.3-1.73-2-3.3-3.3-3.67-3.6-.07,3.7.07,7.36.73,11h3.57c-.9-1.27-1.17-1.53-1.47-1.8l2.23-1.07c.93.87,1.6,1.77,2,2.33l-1.27.53h3.57v2.6h-4.37l2.23,1.6c.3.23.3.4.3.53,0,.3-.2.4-.8.33-1.07,1.63-1.87,2.67-2.87,3.83,1.2,2.07,2,2.3,2.27,2.3.83,0,1.3-2.5,1.37-2.9.7.77,1.67,1.23,2.4,1.4-.4,2.13-1,3.5-1.7,4.36-.1.13-.53.73-1.63.73-1.57,0-3.47-1.67-4.83-3.73-2.63,2.26-4.17,3.1-5.3,3.63-.9-1.17-1.17-1.5-2.37-2.17,1.9-.87,3.83-1.93,6.2-4.13-1.07-2.3-1.6-4.37-1.9-5.8h-4.93c-.03.47-.07,2.43-.1,2.83l1.17-.87ZM589.82,49.39c.3,1.1.7,2.37,1.17,3.47.33-.4,1.47-1.73,2.27-3.47h-3.43Z"/>
        <path class="cls-1" d="M608.25,61.46h-2.9v-13.93c-.9,3.33-1.23,4.56-2.9,8.2-.6-.67-1.73-1.67-2.9-2.3,2.4-3.47,4.67-9.1,5.53-13.03h-4.6v-2.8h4.87v-6.7l2.83.27c.27.03.77.1.77.43,0,.2-.4.4-.7.57v5.43h3.67v2.8h-3.67v1.03c.67,1.5,2.47,4.87,4.67,7.5-.97.47-1.47.93-2.5,2.43-1.03-2.1-1.43-3.1-2.17-5.06v15.16ZM631.34,53.96v2.47h-1.97v1.73c0,1.93,0,3.63-5.5,3.4-.2-1.33-.4-1.87-1.07-3.1.77.13,1.53.27,2.47.27,1,0,1.03-.33,1.03-1.17v-1.13h-9.83v5.03h-3.16v-5.03h-2.6v-2.47h2.6v-8.33h6.53v-1.87h-8.33v-2.47h5.03v-1.87h-3.13v-2.2h3.13v-1.83h-4.43v-2.2h4.43v-2.3l3.17.23c.23.03.6.1.6.43,0,.3-.3.47-.77.63v1h3.73v-2.33l3.1.17c.37.03.6.17.6.43,0,.2-.27.4-.67.63v1.1h4.47v2.2h-4.47v1.83h3.73v2.2h-3.73v1.87h4.9v2.47h-8.4v1.87h6.57v8.33h1.97ZM619.85,49.82v-1.87h-3.37v1.87h3.37ZM619.85,53.96v-1.93h-3.37v1.93h3.37ZM619.54,35.39v1.83h3.73v-1.83h-3.73ZM619.54,39.43v1.87h3.73v-1.87h-3.73ZM626.31,49.82v-1.87h-3.5v1.87h3.5ZM626.31,53.96v-1.93h-3.5v1.93h3.5Z"/>
      </g>
      <rect class="cls-3" width="8.62" height="8.62"/>
      <rect class="cls-3" x="84.58" width="8.62" height="8.62"/>
      <rect class="cls-3" y="84.58" width="8.62" height="8.62"/>
      <rect class="cls-3" x="84.58" y="84.58" width="8.62" height="8.62"/>
      <rect class="cls-3" x="631.34" width="8.62" height="8.62"/>
      <rect class="cls-3" x="631.34" y="84.58" width="8.62" height="8.62"/>
      <g>
        <g>
          <path class="cls-5" d="M62.54,36.57l-6.46,6.79-4.52,4.76c-1.06,1.12-1.06,2.95,0,4.08l4.52,4.76,6.46,6.79,4.52,4.76c1.07,1.12,2.81,1.12,3.88,0l4.52-4.76,6.46-6.79c3.55-3.74,3.55-9.85,0-13.59l-6.46-6.79c-3.55-3.74-9.37-3.74-12.92,0Z"/>
          <path class="cls-4" d="M64.11,25.77c1.06,1.12,1.06,2.96,0,4.07l-15.5,16.31c-1.07,1.12-2.81,1.12-3.87,0l-15.5-16.31c-1.06-1.12-1.06-2.95,0-4.07l15.5-16.31c1.06-1.12,2.81-1.12,3.87,0l15.5,16.31Z"/>
          <path class="cls-6" d="M9.42,48.12c-1.06,1.12-1.06,2.95,0,4.07l15.5,16.31c1.06,1.12,2.81,1.12,3.87,0l14.65-15.45c1.07-1.12,1.06-2.96,0-4.08l-.81-.85c-1.06-1.12-2.81-1.12-3.87,0l-2.24,2.4c-1.06,1.12-2.66,1.27-3.55.34-.89-.94-.74-2.62.32-3.74l2.24-2.39c1.06-1.13,1.14-2.88.16-3.9-.98-1.03-2.65-.95-3.71.17l-8.36,8.83c-1.07,1.12-2.66,1.28-3.55.34-.89-.93-.74-2.61.32-3.73l8.36-8.84c1.07-1.12,1.07-2.96,0-4.07l-.81-.85c-1.07-1.12-2.81-1.12-3.87,0l-14.65,15.45Z"/>
        </g>
        <g>
          <path class="cls-2" d="M27.02,83.22l-.55-1.32h-4.67l-.55,1.34c-.21.52-.4.88-.55,1.06-.15.19-.4.28-.74.28-.29,0-.55-.1-.78-.29-.22-.19-.34-.41-.34-.66,0-.14.03-.29.08-.44.05-.15.14-.36.26-.63l2.94-6.79c.09-.2.18-.43.3-.7.12-.27.24-.5.38-.68.13-.18.31-.33.53-.44.22-.11.49-.17.8-.17s.6.06.81.17c.22.11.39.25.52.43.13.18.25.37.34.56.09.2.21.47.35.81l3,6.74c.24.51.35.89.35,1.12,0,.25-.11.46-.33.67-.22.2-.49.3-.8.3-.18,0-.34-.03-.47-.09-.13-.06-.24-.14-.33-.25-.09-.1-.19-.25-.29-.47-.1-.21-.19-.4-.26-.56ZM22.41,80.31h3.43l-1.73-4.31-1.7,4.31Z"/>
          <path class="cls-2" d="M38.14,82.82l-1.84-6.66v7.22c0,.4-.1.7-.29.9-.2.2-.46.3-.78.3s-.57-.1-.77-.3c-.2-.2-.3-.5-.3-.9v-8.27c0-.45.13-.77.39-.92.26-.16.61-.23,1.06-.23h.72c.43,0,.75.03.95.1.2.07.34.2.44.38.09.19.2.49.32.91l1.67,5.72,1.67-5.72c.12-.42.23-.72.32-.91.09-.18.24-.32.44-.38.2-.07.51-.1.94-.1h.72c.44,0,.8.08,1.06.23.26.16.39.47.39.92v8.27c0,.4-.1.7-.29.9-.2.2-.46.3-.79.3-.31,0-.56-.1-.76-.3-.2-.2-.3-.5-.3-.9v-7.22l-1.84,6.66c-.12.43-.22.75-.29.95-.08.2-.22.39-.42.55s-.49.25-.85.25c-.27,0-.5-.05-.69-.16-.19-.11-.33-.24-.44-.41-.11-.16-.19-.35-.25-.55-.06-.21-.12-.41-.18-.63Z"/>
          <path class="cls-2" d="M58.39,75.58h-5.24v2.57h4.83c.35,0,.62.07.79.21.18.15.26.34.26.58s-.09.43-.26.58-.44.22-.8.22h-4.83v2.98h5.43c.37,0,.64.08.83.23.19.16.28.36.28.62s-.09.45-.28.6c-.19.16-.46.23-.83.23h-6.33c-.51,0-.87-.1-1.09-.31-.22-.21-.33-.54-.33-.99v-7.85c0-.3.05-.55.15-.74.1-.19.26-.33.47-.42.21-.09.48-.13.81-.13h6.15c.37,0,.65.07.83.22.18.15.27.35.27.59s-.09.44-.27.59c-.18.15-.46.23-.83.23Z"/>
          <path class="cls-2" d="M65.95,73.95h3.03c.79,0,1.47.06,2.03.19.56.14,1.08.38,1.54.75,1.2.93,1.79,2.35,1.79,4.25,0,.63-.06,1.2-.18,1.72-.12.51-.31.98-.56,1.4-.25.41-.57.78-.96,1.11-.31.25-.65.45-1.01.61-.37.15-.76.26-1.18.32-.42.06-.89.09-1.42.09h-3.03c-.42,0-.74-.06-.96-.17-.21-.12-.35-.28-.42-.49-.07-.21-.1-.49-.1-.83v-7.66c0-.46.11-.79.34-.99.23-.21.59-.3,1.09-.3ZM66.86,75.62v7.1h1.76c.39,0,.69-.01.91-.03.22-.01.45-.07.68-.14.23-.08.44-.18.61-.32.78-.6,1.17-1.63,1.17-3.09,0-1.03-.17-1.8-.51-2.32-.34-.51-.76-.84-1.27-.98-.5-.14-1.11-.21-1.82-.21h-1.54Z"/>
        </g>
      </g>
    </g>
  </g>
</svg>