<?xml version="1.0" encoding="UTF-8"?>
<svg id="_レイヤー_2" data-name="レイヤー 2" xmlns="http://www.w3.org/2000/svg" viewBox="0 0 128.39 38.39">
  <defs>
    <style>
      .cls-1 {
        opacity: .75;
      }

      .cls-2 {
        stroke: #fff;
      }

      .cls-2, .cls-3, .cls-4 {
        fill: none;
      }

      .cls-2, .cls-4 {
        stroke-linecap: round;
        stroke-linejoin: round;
        stroke-width: 10px;
      }

      .cls-5 {
        fill: #164097;
      }

      .cls-4 {
        stroke: #bfbfbf;
      }
    </style>
  </defs>
  <g id="design">
    <g>
      <g>
        <g>
          <g class="cls-1">
            <path class="cls-4" d="M15.94,10.61c-.86.75-1.66,1.69-2.38,2.82-.72,1.13-1.3,2.4-1.73,3.83-.43,1.42-.65,2.97-.65,4.63s.22,3.19.65,4.62c.43,1.43,1.01,2.71,1.73,3.84.72,1.13,1.51,2.07,2.38,2.82v.12h-7.63V10.49h7.63v.12Z"/>
            <path class="cls-4" d="M39.77,14.76c-.14.18-.33.41-.55.71-.22.3-.4.54-.53.73-.4.67-.91,1.42-1.52,2.24-.62.82-1.28,1.62-1.99,2.39s-1.43,1.42-2.15,1.94l-3-2.4c.45-.29.88-.6,1.3-.95.42-.34.8-.7,1.15-1.07.35-.37.66-.72.92-1.06.26-.34.46-.63.59-.89h-11.86c-.53,0-1.01.02-1.45.05s-.97.08-1.6.14v-4.01c.5.06,1,.12,1.5.18.5.06,1.02.08,1.55.08h12.46c.27,0,.6,0,.98-.02.38-.02.76-.04,1.12-.08.36-.04.62-.08.78-.13l2.3,2.14ZM29.88,18.03c0,1.12-.02,2.22-.05,3.31-.03,1.09-.15,2.14-.35,3.17-.2,1.02-.53,2.01-1,2.96-.46.95-1.12,1.86-1.96,2.72-.84.86-1.94,1.67-3.3,2.42l-3.38-2.76c.42-.14.85-.33,1.31-.55s.93-.53,1.43-.91c.67-.51,1.22-1.03,1.64-1.56s.75-1.1.98-1.72c.23-.62.4-1.31.49-2.08.1-.77.14-1.64.14-2.62,0-.42-.01-.81-.04-1.19-.02-.38-.08-.78-.16-1.21h4.22Z"/>
            <path class="cls-4" d="M54.79,12.24c-.34.48-.66.99-.98,1.54-.32.54-.56.95-.72,1.22-.58,1.01-1.28,2.04-2.12,3.08-.84,1.05-1.76,2.05-2.77,3-1.01.95-2.05,1.8-3.12,2.56l-3.26-2.42c1.06-.66,1.98-1.32,2.78-1.99s1.49-1.34,2.06-1.99c.58-.66,1.08-1.28,1.5-1.88.42-.6.79-1.15,1.12-1.64.22-.34.46-.78.71-1.33s.44-1.06.56-1.52l4.25,1.39ZM62.5,16.13c-.16.26-.32.56-.49.9-.17.34-.32.7-.44,1.07-.21.66-.5,1.42-.86,2.3-.37.88-.82,1.8-1.37,2.76-.54.96-1.18,1.9-1.92,2.81-1.17,1.42-2.52,2.7-4.06,3.83-1.54,1.13-3.43,2.16-5.69,3.08l-3.46-3.07c1.73-.53,3.19-1.1,4.38-1.73,1.19-.62,2.21-1.28,3.06-1.98.85-.7,1.61-1.43,2.28-2.2.51-.56.99-1.21,1.43-1.94.44-.74.82-1.47,1.13-2.2.31-.73.52-1.35.61-1.86h-7.63l1.3-3.29h6.41c.4,0,.82-.03,1.26-.08.44-.06.81-.13,1.12-.23l2.95,1.82Z"/>
            <path class="cls-4" d="M86.76,17.31c-.11.19-.26.43-.43.71-.18.28-.33.54-.46.78-.26.5-.58,1.07-.98,1.72-.4.65-.83,1.3-1.3,1.97s-.93,1.29-1.4,1.87-.91,1.07-1.31,1.45l-3.19-1.87c.5-.43.98-.92,1.44-1.45s.88-1.06,1.26-1.58c.38-.52.67-.97.88-1.36-.27.05-.69.13-1.25.25-.56.12-1.22.26-1.99.41-.77.15-1.6.32-2.48.49-.89.18-1.78.36-2.69.54-.9.18-1.78.36-2.62.53-.84.17-1.61.33-2.3.48-.7.15-1.27.28-1.72.37l-.7-3.79c.48-.06,1.09-.15,1.84-.26.74-.11,1.57-.25,2.47-.41.9-.16,1.85-.33,2.83-.52.98-.18,1.96-.37,2.92-.55s1.86-.36,2.71-.53c.85-.17,1.6-.32,2.24-.46.65-.14,1.14-.24,1.48-.32.38-.1.74-.19,1.07-.29.33-.1.62-.22.88-.36l2.81,2.18ZM70.99,27.75v-12.84c0-.29,0-.62-.02-1.01s-.04-.76-.07-1.14-.07-.68-.12-.92h4.32c-.06.37-.12.86-.17,1.48-.05.62-.07,1.15-.07,1.6v11.81c0,.46.06.84.18,1.13s.38.49.78.61c.4.12,1.02.18,1.85.18s1.64-.04,2.51-.11c.87-.07,1.75-.17,2.63-.3s1.71-.27,2.5-.43l-.12,3.94c-.62.08-1.36.16-2.22.25-.86.09-1.74.16-2.64.2-.9.05-1.75.07-2.53.07-1.5,0-2.71-.09-3.61-.26-.9-.18-1.58-.45-2.04-.82-.46-.37-.76-.84-.91-1.4-.15-.57-.23-1.24-.23-2.03Z"/>
            <path class="cls-4" d="M109.01,14.62c-.11.16-.27.42-.48.77-.21.35-.38.68-.5.98-.34.74-.75,1.56-1.24,2.48-.49.92-1.04,1.85-1.66,2.8-.62.94-1.28,1.83-1.98,2.66-.9,1.04-1.89,2.06-2.99,3.06-1.1,1-2.25,1.92-3.46,2.76-1.21.84-2.43,1.56-3.66,2.15l-3.02-3.14c1.3-.48,2.56-1.1,3.79-1.85,1.23-.75,2.37-1.56,3.41-2.42,1.04-.86,1.91-1.69,2.62-2.47.53-.59,1.01-1.21,1.45-1.85.44-.64.83-1.27,1.16-1.88s.58-1.18.74-1.69h-7.46c-.35,0-.72.01-1.12.04-.39.02-.76.05-1.1.08s-.63.06-.85.07v-4.13c.29.03.63.06,1.02.1.39.03.78.06,1.15.07.38.02.68.02.9.02h8.02c.61,0,1.17-.04,1.69-.11.52-.07.92-.16,1.19-.25l2.38,1.75ZM103.46,21.92c.61.48,1.26,1.05,1.97,1.7.7.66,1.4,1.34,2.1,2.05.7.71,1.34,1.4,1.93,2.05s1.08,1.22,1.46,1.68l-3.34,2.9c-.59-.86-1.26-1.73-2-2.6-.74-.87-1.53-1.74-2.35-2.6-.82-.86-1.67-1.69-2.53-2.47l2.76-2.71Z"/>
            <path class="cls-4" d="M120.77,33.29h-7.63v-.12c.88-.75,1.68-1.69,2.39-2.82s1.28-2.41,1.72-3.84c.43-1.43.65-2.97.65-4.62s-.22-3.21-.65-4.63c-.43-1.42-1-2.7-1.72-3.83s-1.51-2.07-2.39-2.82v-.12h7.63v22.8Z"/>
          </g>
          <g>
            <path class="cls-2" d="M15.94,7.61c-.86.75-1.66,1.69-2.38,2.82-.72,1.13-1.3,2.4-1.73,3.83-.43,1.42-.65,2.97-.65,4.63s.22,3.19.65,4.62c.43,1.43,1.01,2.71,1.73,3.84.72,1.13,1.51,2.07,2.38,2.82v.12h-7.63V7.49h7.63v.12Z"/>
            <path class="cls-2" d="M39.77,11.76c-.14.18-.33.41-.55.71-.22.3-.4.54-.53.73-.4.67-.91,1.42-1.52,2.24-.62.82-1.28,1.62-1.99,2.39s-1.43,1.42-2.15,1.94l-3-2.4c.45-.29.88-.6,1.3-.95.42-.34.8-.7,1.15-1.07.35-.37.66-.72.92-1.06.26-.34.46-.63.59-.89h-11.86c-.53,0-1.01.02-1.45.05s-.97.08-1.6.14v-4.01c.5.06,1,.12,1.5.18.5.06,1.02.08,1.55.08h12.46c.27,0,.6,0,.98-.02.38-.02.76-.04,1.12-.08.36-.04.62-.08.78-.13l2.3,2.14ZM29.88,15.03c0,1.12-.02,2.22-.05,3.31-.03,1.09-.15,2.14-.35,3.17-.2,1.02-.53,2.01-1,2.96-.46.95-1.12,1.86-1.96,2.72-.84.86-1.94,1.67-3.3,2.42l-3.38-2.76c.42-.14.85-.33,1.31-.55s.93-.53,1.43-.91c.67-.51,1.22-1.03,1.64-1.56s.75-1.1.98-1.72c.23-.62.4-1.31.49-2.08.1-.77.14-1.64.14-2.62,0-.42-.01-.81-.04-1.19-.02-.38-.08-.78-.16-1.21h4.22Z"/>
            <path class="cls-2" d="M54.79,9.24c-.34.48-.66.99-.98,1.54-.32.54-.56.95-.72,1.22-.58,1.01-1.28,2.04-2.12,3.08-.84,1.05-1.76,2.05-2.77,3-1.01.95-2.05,1.8-3.12,2.56l-3.26-2.42c1.06-.66,1.98-1.32,2.78-1.99s1.49-1.34,2.06-1.99c.58-.66,1.08-1.28,1.5-1.88.42-.6.79-1.15,1.12-1.64.22-.34.46-.78.71-1.33s.44-1.06.56-1.52l4.25,1.39ZM62.5,13.13c-.16.26-.32.56-.49.9-.17.34-.32.7-.44,1.07-.21.66-.5,1.42-.86,2.3-.37.88-.82,1.8-1.37,2.76-.54.96-1.18,1.9-1.92,2.81-1.17,1.42-2.52,2.7-4.06,3.83-1.54,1.13-3.43,2.16-5.69,3.08l-3.46-3.07c1.73-.53,3.19-1.1,4.38-1.73,1.19-.62,2.21-1.28,3.06-1.98.85-.7,1.61-1.43,2.28-2.2.51-.56.99-1.21,1.43-1.94.44-.74.82-1.47,1.13-2.2.31-.73.52-1.35.61-1.86h-7.63l1.3-3.29h6.41c.4,0,.82-.03,1.26-.08.44-.06.81-.13,1.12-.23l2.95,1.82Z"/>
            <path class="cls-2" d="M86.76,14.31c-.11.19-.26.43-.43.71-.18.28-.33.54-.46.78-.26.5-.58,1.07-.98,1.72-.4.65-.83,1.3-1.3,1.97s-.93,1.29-1.4,1.87-.91,1.07-1.31,1.45l-3.19-1.87c.5-.43.98-.92,1.44-1.45s.88-1.06,1.26-1.58c.38-.52.67-.97.88-1.36-.27.05-.69.13-1.25.25-.56.12-1.22.26-1.99.41-.77.15-1.6.32-2.48.49-.89.18-1.78.36-2.69.54-.9.18-1.78.36-2.62.53-.84.17-1.61.33-2.3.48-.7.15-1.27.28-1.72.37l-.7-3.79c.48-.06,1.09-.15,1.84-.26.74-.11,1.57-.25,2.47-.41.9-.16,1.85-.33,2.83-.52.98-.18,1.96-.37,2.92-.55s1.86-.36,2.71-.53c.85-.17,1.6-.32,2.24-.46.65-.14,1.14-.24,1.48-.32.38-.1.74-.19,1.07-.29.33-.1.62-.22.88-.36l2.81,2.18ZM70.99,24.75v-12.84c0-.29,0-.62-.02-1.01s-.04-.76-.07-1.14-.07-.68-.12-.92h4.32c-.06.37-.12.86-.17,1.48-.05.62-.07,1.15-.07,1.6v11.81c0,.46.06.84.18,1.13s.38.49.78.61c.4.12,1.02.18,1.85.18s1.64-.04,2.51-.11c.87-.07,1.75-.17,2.63-.3s1.71-.27,2.5-.43l-.12,3.94c-.62.08-1.36.16-2.22.25-.86.09-1.74.16-2.64.2-.9.05-1.75.07-2.53.07-1.5,0-2.71-.09-3.61-.26-.9-.18-1.58-.45-2.04-.82-.46-.37-.76-.84-.91-1.4-.15-.57-.23-1.24-.23-2.03Z"/>
            <path class="cls-2" d="M109.01,11.62c-.11.16-.27.42-.48.77-.21.35-.38.68-.5.98-.34.74-.75,1.56-1.24,2.48-.49.92-1.04,1.85-1.66,2.8-.62.94-1.28,1.83-1.98,2.66-.9,1.04-1.89,2.06-2.99,3.06-1.1,1-2.25,1.92-3.46,2.76-1.21.84-2.43,1.56-3.66,2.15l-3.02-3.14c1.3-.48,2.56-1.1,3.79-1.85,1.23-.75,2.37-1.56,3.41-2.42,1.04-.86,1.91-1.69,2.62-2.47.53-.59,1.01-1.21,1.45-1.85.44-.64.83-1.27,1.16-1.88s.58-1.18.74-1.69h-7.46c-.35,0-.72.01-1.12.04-.39.02-.76.05-1.1.08s-.63.06-.85.07v-4.13c.29.03.63.06,1.02.1.39.03.78.06,1.15.07.38.02.68.02.9.02h8.02c.61,0,1.17-.04,1.69-.11.52-.07.92-.16,1.19-.25l2.38,1.75ZM103.46,18.92c.61.48,1.26,1.05,1.97,1.7.7.66,1.4,1.34,2.1,2.05.7.71,1.34,1.4,1.93,2.05s1.08,1.22,1.46,1.68l-3.34,2.9c-.59-.86-1.26-1.73-2-2.6-.74-.87-1.53-1.74-2.35-2.6-.82-.86-1.67-1.69-2.53-2.47l2.76-2.71Z"/>
            <path class="cls-2" d="M120.77,30.29h-7.63v-.12c.88-.75,1.68-1.69,2.39-2.82s1.28-2.41,1.72-3.84c.43-1.43.65-2.97.65-4.62s-.22-3.21-.65-4.63c-.43-1.42-1-2.7-1.72-3.83s-1.51-2.07-2.39-2.82v-.12h7.63v22.8Z"/>
          </g>
        </g>
        <g>
          <path class="cls-5" d="M15.94,7.61c-.86.75-1.66,1.69-2.38,2.82-.72,1.13-1.3,2.4-1.73,3.83-.43,1.42-.65,2.97-.65,4.63s.22,3.19.65,4.62c.43,1.43,1.01,2.71,1.73,3.84.72,1.13,1.51,2.07,2.38,2.82v.12h-7.63V7.49h7.63v.12Z"/>
          <path class="cls-5" d="M39.77,11.76c-.14.18-.33.41-.55.71-.22.3-.4.54-.53.73-.4.67-.91,1.42-1.52,2.24-.62.82-1.28,1.62-1.99,2.39s-1.43,1.42-2.15,1.94l-3-2.4c.45-.29.88-.6,1.3-.95.42-.34.8-.7,1.15-1.07.35-.37.66-.72.92-1.06.26-.34.46-.63.59-.89h-11.86c-.53,0-1.01.02-1.45.05s-.97.08-1.6.14v-4.01c.5.06,1,.12,1.5.18.5.06,1.02.08,1.55.08h12.46c.27,0,.6,0,.98-.02.38-.02.76-.04,1.12-.08.36-.04.62-.08.78-.13l2.3,2.14ZM29.88,15.03c0,1.12-.02,2.22-.05,3.31-.03,1.09-.15,2.14-.35,3.17-.2,1.02-.53,2.01-1,2.96-.46.95-1.12,1.86-1.96,2.72-.84.86-1.94,1.67-3.3,2.42l-3.38-2.76c.42-.14.85-.33,1.31-.55s.93-.53,1.43-.91c.67-.51,1.22-1.03,1.64-1.56s.75-1.1.98-1.72c.23-.62.4-1.31.49-2.08.1-.77.14-1.64.14-2.62,0-.42-.01-.81-.04-1.19-.02-.38-.08-.78-.16-1.21h4.22Z"/>
          <path class="cls-5" d="M54.79,9.24c-.34.48-.66.99-.98,1.54-.32.54-.56.95-.72,1.22-.58,1.01-1.28,2.04-2.12,3.08-.84,1.05-1.76,2.05-2.77,3-1.01.95-2.05,1.8-3.12,2.56l-3.26-2.42c1.06-.66,1.98-1.32,2.78-1.99s1.49-1.34,2.06-1.99c.58-.66,1.08-1.28,1.5-1.88.42-.6.79-1.15,1.12-1.64.22-.34.46-.78.71-1.33s.44-1.06.56-1.52l4.25,1.39ZM62.5,13.13c-.16.26-.32.56-.49.9-.17.34-.32.7-.44,1.07-.21.66-.5,1.42-.86,2.3-.37.88-.82,1.8-1.37,2.76-.54.96-1.18,1.9-1.92,2.81-1.17,1.42-2.52,2.7-4.06,3.83-1.54,1.13-3.43,2.16-5.69,3.08l-3.46-3.07c1.73-.53,3.19-1.1,4.38-1.73,1.19-.62,2.21-1.28,3.06-1.98.85-.7,1.61-1.43,2.28-2.2.51-.56.99-1.21,1.43-1.94.44-.74.82-1.47,1.13-2.2.31-.73.52-1.35.61-1.86h-7.63l1.3-3.29h6.41c.4,0,.82-.03,1.26-.08.44-.06.81-.13,1.12-.23l2.95,1.82Z"/>
          <path class="cls-5" d="M86.76,14.31c-.11.19-.26.43-.43.71-.18.28-.33.54-.46.78-.26.5-.58,1.07-.98,1.72-.4.65-.83,1.3-1.3,1.97s-.93,1.29-1.4,1.87-.91,1.07-1.31,1.45l-3.19-1.87c.5-.43.98-.92,1.44-1.45s.88-1.06,1.26-1.58c.38-.52.67-.97.88-1.36-.27.05-.69.13-1.25.25-.56.12-1.22.26-1.99.41-.77.15-1.6.32-2.48.49-.89.18-1.78.36-2.69.54-.9.18-1.78.36-2.62.53-.84.17-1.61.33-2.3.48-.7.15-1.27.28-1.72.37l-.7-3.79c.48-.06,1.09-.15,1.84-.26.74-.11,1.57-.25,2.47-.41.9-.16,1.85-.33,2.83-.52.98-.18,1.96-.37,2.92-.55s1.86-.36,2.71-.53c.85-.17,1.6-.32,2.24-.46.65-.14,1.14-.24,1.48-.32.38-.1.74-.19,1.07-.29.33-.1.62-.22.88-.36l2.81,2.18ZM70.99,24.75v-12.84c0-.29,0-.62-.02-1.01s-.04-.76-.07-1.14-.07-.68-.12-.92h4.32c-.06.37-.12.86-.17,1.48-.05.62-.07,1.15-.07,1.6v11.81c0,.46.06.84.18,1.13s.38.49.78.61c.4.12,1.02.18,1.85.18s1.64-.04,2.51-.11c.87-.07,1.75-.17,2.63-.3s1.71-.27,2.5-.43l-.12,3.94c-.62.08-1.36.16-2.22.25-.86.09-1.74.16-2.64.2-.9.05-1.75.07-2.53.07-1.5,0-2.71-.09-3.61-.26-.9-.18-1.58-.45-2.04-.82-.46-.37-.76-.84-.91-1.4-.15-.57-.23-1.24-.23-2.03Z"/>
          <path class="cls-5" d="M109.01,11.62c-.11.16-.27.42-.48.77-.21.35-.38.68-.5.98-.34.74-.75,1.56-1.24,2.48-.49.92-1.04,1.85-1.66,2.8-.62.94-1.28,1.83-1.98,2.66-.9,1.04-1.89,2.06-2.99,3.06-1.1,1-2.25,1.92-3.46,2.76-1.21.84-2.43,1.56-3.66,2.15l-3.02-3.14c1.3-.48,2.56-1.1,3.79-1.85,1.23-.75,2.37-1.56,3.41-2.42,1.04-.86,1.91-1.69,2.62-2.47.53-.59,1.01-1.21,1.45-1.85.44-.64.83-1.27,1.16-1.88s.58-1.18.74-1.69h-7.46c-.35,0-.72.01-1.12.04-.39.02-.76.05-1.1.08s-.63.06-.85.07v-4.13c.29.03.63.06,1.02.1.39.03.78.06,1.15.07.38.02.68.02.9.02h8.02c.61,0,1.17-.04,1.69-.11.52-.07.92-.16,1.19-.25l2.38,1.75ZM103.46,18.92c.61.48,1.26,1.05,1.97,1.7.7.66,1.4,1.34,2.1,2.05.7.71,1.34,1.4,1.93,2.05s1.08,1.22,1.46,1.68l-3.34,2.9c-.59-.86-1.26-1.73-2-2.6-.74-.87-1.53-1.74-2.35-2.6-.82-.86-1.67-1.69-2.53-2.47l2.76-2.71Z"/>
          <path class="cls-5" d="M120.77,30.29h-7.63v-.12c.88-.75,1.68-1.69,2.39-2.82s1.28-2.41,1.72-3.84c.43-1.43.65-2.97.65-4.62s-.22-3.21-.65-4.63c-.43-1.42-1-2.7-1.72-3.83s-1.51-2.07-2.39-2.82v-.12h7.63v22.8Z"/>
        </g>
      </g>
      <rect class="cls-3" width="128.39" height="38.39"/>
    </g>
  </g>
</svg>