<?xml version="1.0" encoding="UTF-8"?>
<svg xmlns="http://www.w3.org/2000/svg" viewBox="0 0 586.34 599.26">
  <defs>
    <style>
      .cls-1 {
        opacity: .3;
      }

      .cls-2 {
        isolation: isolate;
      }

      .cls-3 {
        fill: #82cef2;
        mix-blend-mode: multiply;
      }
    </style>
  </defs>
  <g class="cls-2">
    <g id="_レイヤー_2" data-name="レイヤー 2">
      <g id="background">
        <g>
          <g class="cls-1">
            <rect class="cls-3" x="96.23" y="105.58" width="30.24" height="30.24" transform="translate(117.97 -43.39) rotate(45)"/>
            <rect class="cls-3" x="127.9" y="95.67" width="23.89" height="23.89" transform="translate(117.05 -67.37) rotate(45)"/>
            <rect class="cls-3" x="98.84" y="85.45" width="20.08" height="20.08" transform="translate(99.41 -49.02) rotate(45)"/>
            <rect class="cls-3" x="87.42" y="95.53" width="18.05" height="18.05" transform="translate(102.18 -37.57) rotate(45)"/>
            <rect class="cls-3" x="65.29" y="85.72" width="29.48" height="29.48" transform="translate(94.48 -27.17) rotate(45)"/>
            <rect class="cls-3" x="62.15" y="115.49" width="21.41" height="21.41" transform="translate(110.57 -14.56) rotate(45)"/>
            <rect class="cls-3" x="100.81" y="127.07" width="24.14" height="24.14" transform="translate(131.45 -39.06) rotate(45)"/>
            <rect class="cls-3" x="120.82" y="116.75" width="24.14" height="24.14" transform="translate(130.01 -56.24) rotate(45)"/>
            <rect class="cls-3" x="139.39" y="122.09" width="19.01" height="19.01" transform="translate(136.67 -66.74) rotate(45)"/>
            <rect class="cls-3" x="156.64" y="142.78" width="10.22" height="10.22" transform="translate(151.95 -71.06) rotate(45)"/>
            <rect class="cls-3" x="187.14" y="127.42" width="19.81" height="19.81" transform="translate(154.82 -99.11) rotate(45)"/>
            <rect class="cls-3" x="176.5" y="113.02" width="22.33" height="22.33" transform="translate(142.78 -96.33) rotate(45)"/>
            <rect class="cls-3" x="174.81" y="93.85" width="22.33" height="22.33" transform="translate(128.73 -100.75) rotate(45)"/>
            <rect class="cls-3" x="162.71" y="100.11" width="11.56" height="11.56" transform="translate(124.23 -88.13) rotate(45)"/>
            <rect class="cls-3" x="190.14" y="92.71" width="15.69" height="15.69" transform="translate(129.09 -110.55) rotate(45)"/>
            <rect class="cls-3" x="142.82" y="85.83" width="30.07" height="30.07" transform="translate(117.56 -82.08) rotate(45)"/>
            <rect class="cls-3" x="131.35" y="62.06" width="22.88" height="22.88" transform="translate(93.79 -79.44) rotate(45)"/>
            <rect class="cls-3" x="181.52" y="60.72" width="19.03" height="19.03" transform="translate(105.62 -114.51) rotate(45)"/>
            <rect class="cls-3" x="196.22" y="60.87" width="12.81" height="12.81" transform="translate(106.92 -123.57) rotate(45)"/>
            <rect class="cls-3" x="105.67" y="60.82" width="26.03" height="26.03" transform="translate(86.97 -62.29) rotate(45)"/>
            <rect class="cls-3" x="117.24" y="58.97" width="18.66" height="18.66" transform="translate(85.37 -69.49) rotate(45)"/>
            <rect class="cls-3" x="85.71" y="65.8" width="13.05" height="13.05" transform="translate(78.15 -44.04) rotate(45)"/>
            <rect class="cls-3" x="41.9" y="67.46" width="23.98" height="23.98" transform="translate(71.97 -14.83) rotate(45)"/>
            <rect class="cls-3" x="44.56" y="92.06" width="20.76" height="20.76" transform="translate(88.53 -8.85) rotate(45)"/>
            <rect class="cls-3" x="30.85" y="61.79" width="15.33" height="15.33" transform="translate(60.39 -6.89) rotate(45)"/>
            <rect class="cls-3" x="28.76" y="87.82" width="17.82" height="17.82" transform="translate(79.43 1.7) rotate(45)"/>
            <rect class="cls-3" x="31.82" y="110.12" width="27.71" height="27.71" transform="translate(101.04 4.02) rotate(45)"/>
            <rect class="cls-3" x="23.07" y="129.81" width="19.07" height="19.07" transform="translate(108.09 17.75) rotate(45)"/>
            <rect class="cls-3" x="3.94" y="92.87" width="19.03" height="19.03" transform="translate(76.34 20.47) rotate(45)"/>
            <rect class="cls-3" x="18.64" y="93.03" width="12.81" height="12.81" transform="translate(77.65 11.41) rotate(45)"/>
            <rect class="cls-3" x="207.29" y="90.18" width="22.88" height="22.88" transform="translate(135.93 -124.9) rotate(45)"/>
            <rect class="cls-3" x="154.79" y="47.11" width="19.03" height="19.03" transform="translate(88.17 -99.59) rotate(45)"/>
            <rect class="cls-3" x="169.48" y="47.27" width="12.81" height="12.81" transform="translate(89.47 -108.65) rotate(45)"/>
            <rect class="cls-3" x="59.29" y="56.87" width="19.03" height="19.03" transform="translate(67.1 -29.21) rotate(45)"/>
            <rect class="cls-3" x="73.99" y="57.03" width="12.81" height="12.81" transform="translate(68.4 -38.27) rotate(45)"/>
            <rect class="cls-3" x="93.85" y="42.18" width="19.81" height="19.81" transform="translate(67.22 -58.11) rotate(45)"/>
            <rect class="cls-3" x="83.2" y="27.77" width="22.33" height="22.33" transform="translate(55.17 -55.33) rotate(45)"/>
            <rect class="cls-3" x="114.27" y="8.57" width="41.37" height="41.37" transform="translate(18.84 104) rotate(-45)"/>
            <rect class="cls-3" x="63.54" y="133.36" width="41.37" height="41.37" transform="translate(-84.26 104.68) rotate(-45)"/>
            <rect class="cls-3" x="118.26" y="143.12" width="41.37" height="41.37" transform="translate(-75.13 146.23) rotate(-45)"/>
            <rect class="cls-3" x="102.24" y="171.06" width="30.07" height="30.07" transform="translate(165.94 -28.42) rotate(45)"/>
            <rect class="cls-3" x="156.16" y="157.24" width="19.03" height="19.03" transform="translate(166.44 -68.31) rotate(45)"/>
            <rect class="cls-3" x="170.86" y="157.4" width="12.81" height="12.81" transform="translate(167.75 -77.36) rotate(45)"/>
          </g>
          <g class="cls-1">
            <rect class="cls-3" x="447.66" y="105.58" width="30.24" height="30.24" transform="translate(220.9 -291.88) rotate(45)"/>
            <rect class="cls-3" x="479.33" y="95.67" width="23.89" height="23.89" transform="translate(219.98 -315.86) rotate(45)"/>
            <rect class="cls-3" x="450.26" y="85.45" width="20.08" height="20.08" transform="translate(202.34 -297.52) rotate(45)"/>
            <rect class="cls-3" x="438.85" y="95.53" width="18.05" height="18.05" transform="translate(205.11 -286.07) rotate(45)"/>
            <rect class="cls-3" x="416.72" y="85.72" width="29.48" height="29.48" transform="translate(197.41 -275.66) rotate(45)"/>
            <rect class="cls-3" x="413.58" y="115.49" width="21.41" height="21.41" transform="translate(213.5 -263.06) rotate(45)"/>
            <rect class="cls-3" x="452.24" y="127.07" width="24.14" height="24.14" transform="translate(234.38 -287.56) rotate(45)"/>
            <rect class="cls-3" x="472.25" y="116.75" width="24.14" height="24.14" transform="translate(232.94 -304.73) rotate(45)"/>
            <rect class="cls-3" x="490.82" y="122.09" width="19.01" height="19.01" transform="translate(239.6 -315.24) rotate(45)"/>
            <rect class="cls-3" x="508.07" y="142.78" width="10.22" height="10.22" transform="translate(254.88 -319.56) rotate(45)"/>
            <rect class="cls-3" x="538.57" y="127.42" width="19.81" height="19.81" transform="translate(257.75 -347.61) rotate(45)"/>
            <rect class="cls-3" x="527.93" y="113.02" width="22.33" height="22.33" transform="translate(245.71 -344.82) rotate(45)"/>
            <rect class="cls-3" x="526.24" y="93.85" width="22.33" height="22.33" transform="translate(231.66 -349.25) rotate(45)"/>
            <rect class="cls-3" x="514.14" y="100.11" width="11.56" height="11.56" transform="translate(227.16 -336.63) rotate(45)"/>
            <rect class="cls-3" x="541.57" y="92.71" width="15.69" height="15.69" transform="translate(232.03 -359.04) rotate(45)"/>
            <rect class="cls-3" x="494.25" y="85.83" width="30.07" height="30.07" transform="translate(220.49 -330.58) rotate(45)"/>
            <rect class="cls-3" x="482.78" y="62.06" width="22.88" height="22.88" transform="translate(196.72 -327.94) rotate(45)"/>
            <rect class="cls-3" x="532.94" y="60.72" width="19.03" height="19.03" transform="translate(208.55 -363.01) rotate(45)"/>
            <rect class="cls-3" x="547.64" y="60.87" width="12.81" height="12.81" transform="translate(209.85 -372.07) rotate(45)"/>
            <rect class="cls-3" x="457.09" y="60.82" width="26.03" height="26.03" transform="translate(189.9 -310.79) rotate(45)"/>
            <rect class="cls-3" x="468.67" y="58.97" width="18.66" height="18.66" transform="translate(188.3 -317.99) rotate(45)"/>
            <rect class="cls-3" x="437.13" y="65.8" width="13.05" height="13.05" transform="translate(181.08 -292.53) rotate(45)"/>
            <rect class="cls-3" x="393.33" y="67.46" width="23.98" height="23.98" transform="translate(174.9 -263.33) rotate(45)"/>
            <rect class="cls-3" x="395.99" y="92.06" width="20.76" height="20.76" transform="translate(191.46 -257.34) rotate(45)"/>
            <rect class="cls-3" x="382.27" y="61.79" width="15.33" height="15.33" transform="translate(163.32 -255.38) rotate(45)"/>
            <rect class="cls-3" x="380.18" y="87.82" width="17.82" height="17.82" transform="translate(182.36 -246.8) rotate(45)"/>
            <rect class="cls-3" x="383.24" y="110.12" width="27.71" height="27.71" transform="translate(203.98 -244.48) rotate(45)"/>
            <rect class="cls-3" x="374.5" y="129.81" width="19.07" height="19.07" transform="translate(211.02 -230.74) rotate(45)"/>
            <rect class="cls-3" x="355.37" y="92.87" width="19.03" height="19.03" transform="translate(179.27 -228.03) rotate(45)"/>
            <rect class="cls-3" x="370.07" y="93.03" width="12.81" height="12.81" transform="translate(180.58 -237.08) rotate(45)"/>
            <rect class="cls-3" x="558.72" y="90.18" width="22.88" height="22.88" transform="translate(238.86 -373.4) rotate(45)"/>
            <rect class="cls-3" x="506.21" y="47.11" width="19.03" height="19.03" transform="translate(191.1 -348.09) rotate(45)"/>
            <rect class="cls-3" x="520.91" y="47.27" width="12.81" height="12.81" transform="translate(192.4 -357.15) rotate(45)"/>
            <rect class="cls-3" x="410.72" y="56.87" width="19.03" height="19.03" transform="translate(170.03 -277.71) rotate(45)"/>
            <rect class="cls-3" x="425.42" y="57.03" width="12.81" height="12.81" transform="translate(171.33 -286.77) rotate(45)"/>
            <rect class="cls-3" x="445.28" y="42.18" width="19.81" height="19.81" transform="translate(170.15 -306.61) rotate(45)"/>
            <rect class="cls-3" x="434.63" y="27.77" width="22.33" height="22.33" transform="translate(158.1 -303.82) rotate(45)"/>
            <rect class="cls-3" x="465.7" y="8.57" width="41.37" height="41.37" transform="translate(121.77 352.5) rotate(-45)"/>
            <rect class="cls-3" x="414.97" y="133.36" width="41.37" height="41.37" transform="translate(18.67 353.18) rotate(-45)"/>
            <rect class="cls-3" x="469.69" y="143.12" width="41.37" height="41.37" transform="translate(27.8 394.72) rotate(-45)"/>
            <rect class="cls-3" x="453.67" y="171.06" width="30.07" height="30.07" transform="translate(268.87 -276.92) rotate(45)"/>
            <rect class="cls-3" x="507.58" y="157.24" width="19.03" height="19.03" transform="translate(269.37 -316.8) rotate(45)"/>
            <rect class="cls-3" x="522.28" y="157.4" width="12.81" height="12.81" transform="translate(270.68 -325.86) rotate(45)"/>
          </g>
          <g class="cls-1">
            <rect class="cls-3" x="96.23" y="497.49" width="30.24" height="30.24" transform="translate(395.09 71.4) rotate(45)"/>
            <rect class="cls-3" x="127.9" y="487.57" width="23.89" height="23.89" transform="translate(394.17 47.42) rotate(45)"/>
            <rect class="cls-3" x="98.84" y="477.35" width="20.08" height="20.08" transform="translate(376.53 65.77) rotate(45)"/>
            <rect class="cls-3" x="87.42" y="487.43" width="18.05" height="18.05" transform="translate(379.3 77.21) rotate(45)"/>
            <rect class="cls-3" x="65.29" y="477.63" width="29.48" height="29.48" transform="translate(371.6 87.62) rotate(45)"/>
            <rect class="cls-3" x="62.15" y="507.39" width="21.41" height="21.41" transform="translate(387.69 100.23) rotate(45)"/>
            <rect class="cls-3" x="100.81" y="518.98" width="24.14" height="24.14" transform="translate(408.57 75.72) rotate(45)"/>
            <rect class="cls-3" x="120.82" y="508.65" width="24.14" height="24.14" transform="translate(407.13 58.55) rotate(45)"/>
            <rect class="cls-3" x="139.39" y="514" width="19.01" height="19.01" transform="translate(413.78 48.04) rotate(45)"/>
            <rect class="cls-3" x="156.64" y="534.68" width="10.22" height="10.22" transform="translate(429.07 43.73) rotate(45)"/>
            <rect class="cls-3" x="187.14" y="519.33" width="19.81" height="19.81" transform="translate(431.94 15.67) rotate(45)"/>
            <rect class="cls-3" x="176.5" y="504.92" width="22.33" height="22.33" transform="translate(419.89 18.46) rotate(45)"/>
            <rect class="cls-3" x="174.81" y="485.75" width="22.33" height="22.33" transform="translate(405.85 14.04) rotate(45)"/>
            <rect class="cls-3" x="162.71" y="492.02" width="11.56" height="11.56" transform="translate(401.34 26.66) rotate(45)"/>
            <rect class="cls-3" x="190.14" y="484.62" width="15.69" height="15.69" transform="translate(406.21 4.24) rotate(45)"/>
            <rect class="cls-3" x="142.82" y="477.73" width="30.07" height="30.07" transform="translate(394.68 32.71) rotate(45)"/>
            <rect class="cls-3" x="131.35" y="453.96" width="22.88" height="22.88" transform="translate(370.91 35.34) rotate(45)"/>
            <rect class="cls-3" x="181.52" y="452.62" width="19.03" height="19.03" transform="translate(382.74 .28) rotate(45)"/>
            <rect class="cls-3" x="196.22" y="452.78" width="12.81" height="12.81" transform="translate(384.04 -8.78) rotate(45)"/>
            <rect class="cls-3" x="105.67" y="452.72" width="26.03" height="26.03" transform="translate(364.09 52.49) rotate(45)"/>
            <rect class="cls-3" x="117.24" y="450.87" width="18.66" height="18.66" transform="translate(362.48 45.29) rotate(45)"/>
            <rect class="cls-3" x="85.71" y="457.7" width="13.05" height="13.05" transform="translate(355.27 70.75) rotate(45)"/>
            <rect class="cls-3" x="41.9" y="459.37" width="23.98" height="23.98" transform="translate(349.09 99.95) rotate(45)"/>
            <rect class="cls-3" x="44.56" y="483.97" width="20.76" height="20.76" transform="translate(365.65 105.94) rotate(45)"/>
            <rect class="cls-3" x="30.85" y="453.7" width="15.33" height="15.33" transform="translate(337.51 107.9) rotate(45)"/>
            <rect class="cls-3" x="28.76" y="479.72" width="17.82" height="17.82" transform="translate(356.55 116.48) rotate(45)"/>
            <rect class="cls-3" x="31.82" y="502.03" width="27.71" height="27.71" transform="translate(378.16 118.8) rotate(45)"/>
            <rect class="cls-3" x="23.07" y="521.72" width="19.07" height="19.07" transform="translate(385.21 132.54) rotate(45)"/>
            <rect class="cls-3" x="3.94" y="484.78" width="19.03" height="19.03" transform="translate(353.46 135.26) rotate(45)"/>
            <rect class="cls-3" x="18.64" y="484.93" width="12.81" height="12.81" transform="translate(354.76 126.2) rotate(45)"/>
            <rect class="cls-3" x="207.29" y="482.09" width="22.88" height="22.88" transform="translate(413.05 -10.12) rotate(45)"/>
            <rect class="cls-3" x="154.79" y="439.02" width="19.03" height="19.03" transform="translate(365.29 15.19) rotate(45)"/>
            <rect class="cls-3" x="169.48" y="439.18" width="12.81" height="12.81" transform="translate(366.59 6.14) rotate(45)"/>
            <rect class="cls-3" x="59.29" y="448.78" width="19.03" height="19.03" transform="translate(344.22 85.58) rotate(45)"/>
            <rect class="cls-3" x="73.99" y="448.94" width="12.81" height="12.81" transform="translate(345.52 76.52) rotate(45)"/>
            <rect class="cls-3" x="93.85" y="434.08" width="19.81" height="19.81" transform="translate(344.33 56.67) rotate(45)"/>
            <rect class="cls-3" x="83.2" y="419.67" width="22.33" height="22.33" transform="translate(332.29 59.46) rotate(45)"/>
            <rect class="cls-3" x="114.27" y="400.47" width="41.37" height="41.37" transform="translate(-258.28 218.79) rotate(-45)"/>
            <rect class="cls-3" x="63.54" y="525.27" width="41.37" height="41.37" transform="translate(-361.38 219.47) rotate(-45)"/>
            <rect class="cls-3" x="118.26" y="535.02" width="41.37" height="41.37" transform="translate(-352.25 261.01) rotate(-45)"/>
            <rect class="cls-3" x="102.24" y="562.96" width="30.07" height="30.07" transform="translate(443.05 86.37) rotate(45)"/>
            <rect class="cls-3" x="156.16" y="549.15" width="19.03" height="19.03" transform="translate(443.56 46.48) rotate(45)"/>
            <rect class="cls-3" x="170.86" y="549.31" width="12.81" height="12.81" transform="translate(444.87 37.42) rotate(45)"/>
          </g>
          <g class="cls-1">
            <rect class="cls-3" x="447.66" y="497.49" width="30.24" height="30.24" transform="translate(498.02 -177.1) rotate(45)"/>
            <rect class="cls-3" x="479.33" y="487.57" width="23.89" height="23.89" transform="translate(497.1 -201.08) rotate(45)"/>
            <rect class="cls-3" x="450.26" y="477.35" width="20.08" height="20.08" transform="translate(479.46 -182.73) rotate(45)"/>
            <rect class="cls-3" x="438.85" y="487.43" width="18.05" height="18.05" transform="translate(482.23 -171.28) rotate(45)"/>
            <rect class="cls-3" x="416.72" y="477.63" width="29.48" height="29.48" transform="translate(474.53 -160.88) rotate(45)"/>
            <rect class="cls-3" x="413.58" y="507.39" width="21.41" height="21.41" transform="translate(490.62 -148.27) rotate(45)"/>
            <rect class="cls-3" x="452.24" y="518.98" width="24.14" height="24.14" transform="translate(511.5 -172.77) rotate(45)"/>
            <rect class="cls-3" x="472.25" y="508.65" width="24.14" height="24.14" transform="translate(510.06 -189.95) rotate(45)"/>
            <rect class="cls-3" x="490.82" y="514" width="19.01" height="19.01" transform="translate(516.72 -200.46) rotate(45)"/>
            <rect class="cls-3" x="508.07" y="534.68" width="10.22" height="10.22" transform="translate(532 -204.77) rotate(45)"/>
            <rect class="cls-3" x="538.57" y="519.33" width="19.81" height="19.81" transform="translate(534.87 -232.82) rotate(45)"/>
            <rect class="cls-3" x="527.93" y="504.92" width="22.33" height="22.33" transform="translate(522.83 -230.04) rotate(45)"/>
            <rect class="cls-3" x="526.24" y="485.75" width="22.33" height="22.33" transform="translate(508.78 -234.46) rotate(45)"/>
            <rect class="cls-3" x="514.14" y="492.02" width="11.56" height="11.56" transform="translate(504.28 -221.84) rotate(45)"/>
            <rect class="cls-3" x="541.57" y="484.62" width="15.69" height="15.69" transform="translate(509.14 -244.26) rotate(45)"/>
            <rect class="cls-3" x="494.25" y="477.73" width="30.07" height="30.07" transform="translate(497.61 -215.79) rotate(45)"/>
            <rect class="cls-3" x="482.78" y="453.96" width="22.88" height="22.88" transform="translate(473.84 -213.15) rotate(45)"/>
            <rect class="cls-3" x="532.94" y="452.62" width="19.03" height="19.03" transform="translate(485.67 -248.22) rotate(45)"/>
            <rect class="cls-3" x="547.64" y="452.78" width="12.81" height="12.81" transform="translate(486.97 -257.28) rotate(45)"/>
            <rect class="cls-3" x="457.09" y="452.72" width="26.03" height="26.03" transform="translate(467.02 -196) rotate(45)"/>
            <rect class="cls-3" x="468.67" y="450.87" width="18.66" height="18.66" transform="translate(465.42 -203.2) rotate(45)"/>
            <rect class="cls-3" x="437.13" y="457.7" width="13.05" height="13.05" transform="translate(458.2 -177.75) rotate(45)"/>
            <rect class="cls-3" x="393.33" y="459.37" width="23.98" height="23.98" transform="translate(452.02 -148.54) rotate(45)"/>
            <rect class="cls-3" x="395.99" y="483.97" width="20.76" height="20.76" transform="translate(468.58 -142.56) rotate(45)"/>
            <rect class="cls-3" x="382.27" y="453.7" width="15.33" height="15.33" transform="translate(440.44 -140.6) rotate(45)"/>
            <rect class="cls-3" x="380.18" y="479.72" width="17.82" height="17.82" transform="translate(459.48 -132.01) rotate(45)"/>
            <rect class="cls-3" x="383.24" y="502.03" width="27.71" height="27.71" transform="translate(481.09 -129.69) rotate(45)"/>
            <rect class="cls-3" x="374.5" y="521.72" width="19.07" height="19.07" transform="translate(488.14 -115.96) rotate(45)"/>
            <rect class="cls-3" x="355.37" y="484.78" width="19.03" height="19.03" transform="translate(456.39 -113.24) rotate(45)"/>
            <rect class="cls-3" x="370.07" y="484.93" width="12.81" height="12.81" transform="translate(457.69 -122.3) rotate(45)"/>
            <rect class="cls-3" x="558.72" y="482.09" width="22.88" height="22.88" transform="translate(515.98 -258.61) rotate(45)"/>
            <rect class="cls-3" x="506.21" y="439.02" width="19.03" height="19.03" transform="translate(468.22 -233.3) rotate(45)"/>
            <rect class="cls-3" x="520.91" y="439.18" width="12.81" height="12.81" transform="translate(469.52 -242.36) rotate(45)"/>
            <rect class="cls-3" x="410.72" y="448.78" width="19.03" height="19.03" transform="translate(447.15 -162.92) rotate(45)"/>
            <rect class="cls-3" x="425.42" y="448.94" width="12.81" height="12.81" transform="translate(448.45 -171.98) rotate(45)"/>
            <rect class="cls-3" x="445.28" y="434.08" width="19.81" height="19.81" transform="translate(447.27 -191.82) rotate(45)"/>
            <rect class="cls-3" x="434.63" y="419.67" width="22.33" height="22.33" transform="translate(435.22 -189.04) rotate(45)"/>
            <rect class="cls-3" x="465.7" y="400.47" width="41.37" height="41.37" transform="translate(-155.35 467.28) rotate(-45)"/>
            <rect class="cls-3" x="414.97" y="525.27" width="41.37" height="41.37" transform="translate(-258.45 467.96) rotate(-45)"/>
            <rect class="cls-3" x="469.69" y="535.02" width="41.37" height="41.37" transform="translate(-249.32 509.51) rotate(-45)"/>
            <rect class="cls-3" x="453.67" y="562.96" width="30.07" height="30.07" transform="translate(545.99 -162.13) rotate(45)"/>
            <rect class="cls-3" x="507.58" y="549.15" width="19.03" height="19.03" transform="translate(546.49 -202.02) rotate(45)"/>
            <rect class="cls-3" x="522.28" y="549.31" width="12.81" height="12.81" transform="translate(547.8 -211.07) rotate(45)"/>
          </g>
        </g>
      </g>
    </g>
  </g>
</svg>