<?xml version="1.0" encoding="UTF-8"?>
<svg id="_レイヤー_2" data-name="レイヤー 2" xmlns="http://www.w3.org/2000/svg" xmlns:xlink="http://www.w3.org/1999/xlink" viewBox="0 0 269.87 344.43">
  <defs>
    <style>
      .cls-1 {
        stroke-linecap: round;
        stroke-linejoin: round;
        stroke-width: 2px;
      }

      .cls-1, .cls-2, .cls-3 {
        fill: none;
      }

      .cls-1, .cls-3 {
        stroke: #c42e29;
      }

      .cls-4 {
        fill: #164097;
        filter: url(#drop-shadow-2);
        stroke: #fff;
      }

      .cls-4, .cls-5 {
        stroke-width: 6.86px;
      }

      .cls-4, .cls-5, .cls-3 {
        stroke-miterlimit: 10;
      }

      .cls-6, .cls-5 {
        fill: #fff;
      }

      .cls-5 {
        filter: url(#drop-shadow-1);
        stroke: #164097;
      }

      .cls-7 {
        fill: #c42e29;
      }

      .cls-3 {
        stroke-width: 4px;
      }
    </style>
    <filter id="drop-shadow-1" x="2.98" y="34.49" width="265.21" height="280.21" filterUnits="userSpaceOnUse">
      <feOffset dx="0" dy="15"/>
      <feGaussianBlur result="blur" stdDeviation="0"/>
      <feFlood flood-color="#d1d1d1" flood-opacity="1"/>
      <feComposite in2="blur" operator="in"/>
      <feComposite in="SourceGraphic"/>
    </filter>
    <filter id="drop-shadow-2" x="10.06" y="41.57" width="251.05" height="251.05" filterUnits="userSpaceOnUse">
      <feOffset dx="4" dy="4"/>
      <feGaussianBlur result="blur-2" stdDeviation="0"/>
      <feFlood flood-color="#a69b8d" flood-opacity=".45"/>
      <feComposite in2="blur-2" operator="in"/>
      <feComposite in="SourceGraphic"/>
    </filter>
  </defs>
  <g id="design">
    <g>
      <g>
        <circle class="cls-5" cx="135.59" cy="167.09" r="129.17"/>
        <circle class="cls-4" cx="135.59" cy="167.09" r="122.09"/>
        <g>
          <path class="cls-7" d="M25.14,48.7c2.07-1.85,5.42-5.43,6.49-7.22l2.9,1.82c-.23.41-.55.94-.72,1.43-.6,2.46-.77,8.43,2.79,12.77,2.17,2.65,4.72,2.29,6.89.51,5.02-4.12,2.15-10.8-6.45-17.6l-1.41-.89,2.22-3.15c2.75,2.47,6.63,5.31,12.7,5.66l.32,4.13c-1.78-.28-3.54-.76-5.4-1.47,4.55,4.9,6.79,11.23.46,16.42-3.62,2.97-8.35,3.52-11.73-.59-3.02-3.69-3.73-7.68-3.84-12.1-.81.81-2.1,2.14-2.68,2.77-.44.48-.77.82-1.19,1.32l-2.64-2.75c.43-.31.88-.68,1.29-1.06Z"/>
          <path class="cls-7" d="M69.74,19.85l-.41.48,1.85,2.63c-1.14,1.1-2.6,2.27-4.14,3.38,1.64,1.28,3.42,2.4,4.56,2.98.78.41,1.55.74,2.31.99l-.37,3.18c-1.61.46-5.04,1.87-7.3,2.84l-1.22-2.86c1.32-.57,3.12-1.35,3.97-1.7-1.43-.83-3.27-2.05-4.91-3.39-2.95,1.86-6.51,3.78-11.12,5.75l-1.8-3.28c4.15-1.6,7.5-3.28,10.17-4.92-.55-.47-.99-.93-1.38-1.29-.52-.49-1.3-1.27-2.09-1.94l3.27-2.26c.98,1.23,2.11,2.43,3.21,3.5,1.12-.82,2.16-1.67,3.15-2.56-1-.7-2.27-1.54-3.28-2.07l1.61-1.91c1.15.61,2.95,1.75,3.92,2.46ZM61.6,41.07c1.15,2.17,3.57,2.05,7.13.2,2.82-1.49,4.96-2.96,6.6-4.29l1.54,3.35c-1.32,1.06-3.47,2.63-6.64,4.28-5.28,2.79-9.69,2.51-11.67-1.21-.83-1.58-1.12-3.31-1.17-5.54l3.63-.96c-.18,1.65-.02,3.02.58,4.16ZM72.27,17.06l-1.56,1.99c-1.12-.8-2.75-1.89-4-2.49l1.61-1.91c1.22.61,3.01,1.75,3.96,2.41Z"/>
          <path class="cls-7" d="M97.66,33.02l-3.08-2.72c1.03-.42,1.77-.82,2.48-1.21,3.35-1.9,5.4-5.3,4.2-9.4-1.14-3.87-4.09-6.15-8.07-5.68.31,2.5.59,5.22.54,8.1-.02,6.16-1.42,10.35-4.48,11.25-3.12.91-6.7-1.76-8.09-6.5-1.9-6.49,2.1-13.66,9.37-15.79,6.96-2.04,12.76,1.51,14.55,7.63,1.74,5.92-.66,11.17-7.42,14.34ZM88.1,28.99c1.18-.35,1.76-2.43,1.8-6.56.04-2.27-.13-4.81-.5-7.23-4.35,2.31-5.65,7.14-4.75,10.23.83,2.84,2.36,3.88,3.45,3.56Z"/>
          <path class="cls-7" d="M135.12,3.62l.25,2.97-19.48,1.63.52,6.24c.39,4.67.34,11.45-3.11,15.76-.55-.63-1.94-1.78-2.64-2.13,1.72-2.23,2.41-4.9,2.62-7.59-1.05.76-2.07,1.52-3.07,2.22l-1.29-3.12c1.12-.62,2.75-1.58,4.42-2.6-.04-.79-.1-1.55-.16-2.28l-.1-1.17-2.43,1.52c-.33-1.44-1.34-3.71-2.33-5.44l2.38-1.37c.91,1.42,1.86,3.28,2.33,4.68l-.62-7.44,8.98-.75-.21-2.48,3.67-.31.21,2.48,10.06-.84ZM135.8,25.47c.12,1.43-.12,2.04-1.05,2.55-.87.48-2.18.62-3.96.77-.18-.78-.67-1.73-1.08-2.41.96-.05,2.07-.14,2.39-.17.38-.03.49-.16.46-.48l-.14-1.69-3.79.32.36,4.26-3.18.27-.36-4.26-3.56.3.39,4.61-3.18.27-1.25-14.99,6.18-.52c-1.21-.43-2.47-.79-3.58-1.08l1.77-2.03c1.23.31,2.62.75,3.92,1.17.78-.51,1.58-1.1,2.29-1.72l-10.12.85-.2-2.39,13.12-1.1.71-.24,2.1,1.64c-1.45,1.32-3.26,2.74-5.1,3.98.39.14.73.26,1.06.41l4.78-.4,1.01,12.07ZM121.24,17.06l.13,1.52,3.56-.3-.13-1.52-3.56.3ZM125.26,22.25l-.13-1.57-3.56.3.13,1.57,3.56-.3ZM131.77,16.18l-3.79.32.13,1.52,3.79-.32-.13-1.52ZM132.22,21.66l-.13-1.57-3.79.32.13,1.57,3.79-.32Z"/>
          <path class="cls-7" d="M148.46,4.82c1.66.19,4.75.4,6.13.44.73.05,1.51-.03,2.02-.18l2.12,2.07c-.46.39-.85.73-1.13,1.11-.9,1.16-2.29,3.56-3.62,5.92,2.23.61,4.3,1.55,6.09,2.59.07-.35.13-.66.2-.98.22-1.12.35-2.29.36-3.17l3.76.87c-.34,1.93-.69,3.72-1.17,5.31,1.14.84,2.11,1.63,2.89,2.31l-2.15,3.85c-.68-.78-1.44-1.55-2.27-2.32-1.66,3.14-4.16,5.44-8.29,7.03l-2.79-2.88c4.61-1.38,6.96-3.91,8.22-6.45-1.93-1.37-4.16-2.51-6.62-3.15-1.33,2.35-2.89,5.12-4.09,6.6-1.36,1.61-2.85,2.26-4.83,2.04-2.56-.29-4.27-2.29-3.94-5.22.52-4.51,5.01-7.46,10.88-7.05,1.03-1.82,2.1-3.7,2.93-4.99-1.17-.08-3.68-.28-5.03-.34-.58-.04-1.61-.07-2.38-.04l.29-3.77c.77.18,1.76.35,2.4.42ZM143.89,22.03c.58.07,1.02-.18,1.63-.84.88-.99,1.87-2.73,2.9-4.47-3.31.12-5.37,1.89-5.58,3.72-.11.96.39,1.52,1.05,1.59Z"/>
          <path class="cls-7" d="M178.19,18.56c.63,1.37,2.05,5.01,2.38,5.89l-2.77,2.08c-.13-1.03-.5-2.6-.87-4.1l-3.78,11.57-3.17-1.04,3.59-10.98c-1.69,2.16-3.49,4.09-5.19,5.23,0-1.05-.28-2.62-.54-3.62,2.53-1.61,5.38-4.86,7.35-7.88l-3.59-1.17,1.02-3.11,3.98,1.3,1.86-5.7,3.17,1.04-1.86,5.7,3.48,1.14-1.02,3.11-3.48-1.14-.55,1.7ZM198.62,15.27l-7.87,24.05-3.34-1.09.46-1.42-6.53-2.14-.52,1.58-3.17-1.04,7.92-24.22,13.04,4.27ZM188.86,33.81l1.16-3.56-6.53-2.14-1.16,3.56,6.53,2.14ZM185.63,21.58l-1.15,3.53,6.53,2.14,1.15-3.53-6.53-2.14ZM187.73,15.16l-1.13,3.45,6.53,2.14,1.13-3.45-6.53-2.14Z"/>
          <path class="cls-7" d="M201.58,43.92l-5.19-2.95-.56.99-2.54-1.45,4.94-8.67,7.73,4.4-4.37,7.68ZM199.4,35.68l-1.67,2.92,2.62,1.49,1.67-2.92-2.62-1.49ZM200.3,28.37l7.63,4.34-1.29,2.26-7.63-4.34,1.29-2.26ZM208.59,31.55l-7.63-4.34,1.32-2.31,7.63,4.34-1.32,2.31ZM211.4,28.57l-9.66-5.5,1.36-2.39,9.66,5.5-1.36,2.39ZM214.63,43.88c-.2,1.94.31,4.59,2.68,7.42-.92.38-2.36,1.08-3.19,1.58-2.52-3.02-2.75-6.88-2.31-8.72-1.41,1.29-5,2.87-9.24,2.15.09-.86-.06-2.49-.25-3.41,5.83,1.06,9.02-1.53,9.99-3.23l2.19-3.84,3.08,1.75-2.19,3.84c-.32.56-.63,1.39-.73,2.41,1.41-.81,3.29-2.17,4.51-3.25l2.45,2.61c-1.8,1.09-3.75,2.21-5.16,2.85l-1.84-2.16ZM204.93,38.62c1.67-.33,3.44-1.67,4.76-3.21l2.34,2.04c-1.45,1.77-3.38,3.33-5.32,3.84l-1.78-2.66ZM212.48,24.54l-7.47-4.26,1.3-2.29,7.47,4.26-1.3,2.29ZM220.43,40.62c-.49-1.62-1.75-4.26-2.98-6.58-2,1.08-4.37,1.41-7.66.79.11-.91.01-2.45-.32-3.35,6.23,1.36,8.29-1.31,11.36-6.22l2.92,1.67c-1.28,2.07-2.47,3.81-3.79,5.18,1.39,2.41,3.06,5.45,3.78,7.37l-3.31,1.14ZM218.43,26.51c-1.21,1.53-2.94,3.04-4.69,3.56l-1.78-2.36c1.46-.38,3.12-1.69,4.3-3.11l2.18,1.91ZM227.64,32.1c-1.68,1-3.48,2.03-4.8,2.69l-1.74-2.14c1.3-.74,3.1-2.07,4.19-3.1l2.35,2.55Z"/>
          <path class="cls-7" d="M238.77,68.66l-2.02,2.31-19.52-17.05,2.02-2.31,8.28,7.23,1.48-1.7-6.32-5.52,1.96-2.25,6.32,5.52,1.6-1.83c-2.53-2.09-4.9-4.04-6.76-5.6l1.93-2.43,3.17,2.69c.91-.37,1.9-.79,2.78-1.22l-3.17-2.77,1.39-1.59-2.42-2.12,4-4.58,8.22,7.18,1.23-1.41,2.69,2.35-1.23,1.41,8.42,7.35-4,4.58-2.42-2.12-1.39,1.59-2.75-2.41c.57,2.55,1.05,5.73,1,7.67l-3.3-.36c.04-.62.03-1.37,0-2.18l-4.59-3.77-1.67,1.92,6.79,5.93-1.96,2.25-6.79-5.93-1.48,1.7,8.55,7.47ZM233.95,40.07l-1.37,1.56,14.1,12.31,1.37-1.56-14.1-12.31ZM236.68,49.13c-.99.34-2.05.66-3,.95l5.76,4.83c-.11-.72-.24-1.41-.39-2.05l2.24.28-4.6-4.02Z"/>
        </g>
        <g>
          <rect class="cls-6" x="16.01" y="265.74" width="236.01" height="75.82"/>
          <rect class="cls-3" x="16.01" y="265.74" width="236.01" height="75.82"/>
          <g>
            <path class="cls-7" d="M40.91,290.8v6.63c0,1.01-.21,1.53-.99,1.8-.78.29-2.03.29-4.03.29-.08-.49-.36-1.2-.6-1.69,1.51.05,2.86.05,3.25.03.39,0,.49-.13.49-.44v-6.61h-6.3v-9.29h5.44c.23-.81.47-1.77.6-2.55h-8.38v5.72c0,4.29-.34,10.54-2.73,14.78-.36-.31-1.17-.81-1.67-.99,2.29-4.06,2.5-9.73,2.5-13.81v-7.44h20.97v1.74h-8.43c-.26.86-.55,1.77-.83,2.55h7.15v9.29h-6.45ZM36.54,292.68c-1.35,2.19-3.41,4.34-5.28,5.75-.34-.34-1.14-.88-1.59-1.14,1.93-1.25,3.85-3.17,5.05-5.13l1.82.52ZM34.64,285.42h10.74v-2.37h-10.74v2.37ZM34.64,289.27h10.74v-2.39h-10.74v2.39ZM44.63,292.05c1.93,1.51,4.21,3.67,5.28,5.2l-1.56,1.07c-.99-1.53-3.25-3.77-5.2-5.33l1.48-.94Z"/>
            <path class="cls-7" d="M74.89,276.99v22.53h-1.98v-1.17h-17.74v1.17h-1.93v-22.53h21.65ZM72.91,296.5v-17.67h-17.74v17.67h17.74ZM65.24,285.76c.94,3.88,2.94,6.58,6.5,7.8-.42.36-.94,1.07-1.2,1.56-3.33-1.33-5.33-3.82-6.48-7.47-.86,3.43-2.68,5.96-6.63,7.57-.21-.47-.73-1.14-1.14-1.48,4.16-1.59,5.7-4.24,6.35-7.99h-6.04v-1.74h6.27c.13-1.25.18-2.63.23-4.08h1.8c-.05,1.46-.1,2.81-.23,4.08h6.82v1.74h-6.24Z"/>
            <path class="cls-7" d="M88.13,278.78c-.16.75-.39,2.29-.68,3.72,1.22-.1,2.32-.18,2.94-.18,2.32,0,4.21.88,4.21,4.4,0,3.1-.42,7.23-1.51,9.39-.83,1.74-2.11,2.19-3.8,2.19-.99,0-2.24-.18-3.07-.39l-.34-2.16c1.09.34,2.47.52,3.2.52.96,0,1.74-.21,2.26-1.33.83-1.77,1.25-5.15,1.25-7.96,0-2.39-1.12-2.84-2.76-2.84-.62,0-1.67.08-2.81.18-.96,3.75-2.73,9.63-5.46,14.02l-2.13-.83c2.65-3.56,4.6-9.5,5.49-12.98-1.38.13-2.63.29-3.3.36-.6.08-1.67.21-2.34.31l-.21-2.26c.81.05,1.48.03,2.32,0,.86-.03,2.39-.16,3.95-.29.42-1.87.68-3.9.68-5.67l2.42.26c-.1.47-.21,1.04-.31,1.53ZM102.16,289.32l-2.03.96c-.75-2.68-2.78-7.26-4.63-9.42l1.9-.86c1.61,2.11,3.88,6.89,4.76,9.31Z"/>
            <path class="cls-7" d="M110.12,289.19c2.5-2.19,5.36-3.17,8.48-3.17,3.98,0,6.63,2.39,6.63,5.44,0,4.66-4.11,7.8-13.79,7l-.62-2.13c8.22,1.01,12.23-1.35,12.23-4.92,0-2.08-1.93-3.56-4.58-3.56-3.43,0-6.24,1.3-8.06,3.49-.39.44-.62.88-.78,1.3l-1.93-.47c.52-2.37,1.17-7.83,1.33-10.56l2.19.29c-.36,1.77-.81,5.65-1.09,7.31ZM121.85,279.15l-.49,2c-2.47-.34-8.12-1.48-10.09-2.03l.52-1.98c2.24.7,7.78,1.8,10.07,2Z"/>
            <path class="cls-7" d="M152.63,289.37c-.81,2.47-2.16,4.5-3.82,6.11,1.48,1.14,3.25,2,5.26,2.5-.42.36-.94,1.07-1.17,1.51-2.08-.6-3.9-1.59-5.44-2.86-1.59,1.22-3.36,2.11-5.18,2.73-.21-.44-.68-1.12-1.01-1.46v1.61h-1.85v-2.52c-3.17.39-6.35.75-8.77,1.04l-.18-1.72c.73-.05,1.56-.13,2.47-.23v-8.74h-2.24v-1.61h22.74v1.61h-12.18v10.54c1.72-.52,3.41-1.35,4.89-2.47-1.2-1.3-2.16-2.84-2.86-4.58l1.12-.34h-2.24v-1.53h8.95l.34-.05,1.17.47ZM150.52,284.27h-16.73v-7.67h16.73v7.67ZM134.7,287.34v1.74h4.71v-1.74h-4.71ZM134.7,292.36h4.71v-1.82h-4.71v1.82ZM134.7,295.9c1.48-.16,3.1-.31,4.71-.49v-1.59h-4.71v2.08ZM148.62,277.98h-13.01v1.8h13.01v-1.8ZM148.62,281.07h-13.01v1.82h13.01v-1.82ZM144.9,290.49c.6,1.43,1.48,2.73,2.55,3.82,1.17-1.09,2.13-2.37,2.81-3.82h-5.36Z"/>
            <path class="cls-7" d="M166.42,295.77c-.55-.65-1.87-1.93-2.97-2.91v6.61h-1.87v-6.82c-1.27,2-2.89,3.85-4.34,5-.31-.44-.88-1.07-1.3-1.4,1.87-1.22,3.93-3.56,5.23-5.85h-4.66v-1.64h5.07v-2.73h-5.15v-1.64h12.07v1.64h-5.05v2.73h4.84v1.64h-4.84v.62c.99.73,3.51,2.78,4.11,3.33l-1.15,1.43ZM168.18,280.11h-11.4v-1.61h4.79v-2.63h1.87v2.63h4.73v1.61ZM159.37,284.35c-.1-1.01-.52-2.58-1.01-3.75l1.51-.39c.55,1.17.99,2.71,1.12,3.69l-1.61.44ZM163.63,283.94c.47-1.04,1.07-2.65,1.3-3.77l1.77.42c-.49,1.3-1.01,2.76-1.51,3.69l-1.56-.34ZM179.97,286.3h-2.91v13.06h-1.9v-13.06h-3.88v.65c0,3.88-.49,9.08-4.14,12.7-.23-.42-.94-1.09-1.38-1.35,3.3-3.23,3.67-7.73,3.67-11.37v-9.05l1.4.44c2.65-.57,5.57-1.4,7.23-2.24l1.56,1.43c-2.21.99-5.46,1.77-8.35,2.34v4.63h8.69v1.82Z"/>
            <path class="cls-7" d="M187.23,287.03c-1.07-.83-3.25-1.95-5.02-2.6l1.07-1.48c1.72.57,3.93,1.59,5.07,2.42l-1.12,1.67ZM183.07,297.88c1.4-2,3.38-5.39,4.87-8.33l1.43,1.25c-1.35,2.73-3.15,5.96-4.66,8.38l-1.64-1.3ZM188.5,280.27c-1.04-.94-3.12-2.16-4.89-2.86l1.07-1.46c1.74.65,3.88,1.8,4.97,2.73l-1.14,1.59ZM200.73,279.72c2.11,2.26,4.4,5.36,5.44,7.41l-1.77.99c-.29-.62-.7-1.35-1.2-2.11-5.1.31-10.35.57-13.97.78l-.23-1.9,2.47-.1c1.3-2.58,2.78-6.3,3.56-9.05l2.21.55c-1.07,2.71-2.45,5.96-3.69,8.43,2.58-.13,5.54-.26,8.51-.42-.94-1.3-2-2.63-2.99-3.75l1.67-.83ZM191.18,289.14h12.62v10.33h-1.93v-1.07h-8.82v1.14h-1.87v-10.41ZM193.06,290.93v5.7h8.82v-5.7h-8.82Z"/>
            <path class="cls-7" d="M213.77,279.85v6.66c0,3.95-.52,9.47-3.69,13.03-.29-.36-.96-1.04-1.35-1.3,2-2.24,2.78-5.13,3.07-7.91-1.07.65-2.13,1.27-3.15,1.85l-.62-1.72c1.01-.47,2.39-1.2,3.9-2,.03-.68.03-1.33.03-1.95v-8.33h8.48v-2.39h2v2.39h9.57v1.67h-18.24ZM209.99,286.07c-.18-1.33-.83-3.46-1.61-5.1l1.46-.57c.78,1.61,1.54,3.67,1.72,4.97l-1.56.7ZM231.2,284.79c-.65.65-1.46,1.33-2.16,1.85,1.01.75,2.11,1.35,3.2,1.77-.36.34-.88.94-1.14,1.38-.73-.34-1.48-.75-2.19-1.22v5.15h-4.97v3.95c0,.91-.18,1.35-.88,1.61-.73.26-1.79.26-3.49.26-.08-.47-.36-1.12-.62-1.59,1.27.05,2.37.03,2.71,0,.36,0,.42-.05.42-.34v-3.9h-4.84v-5.13c-.68.47-1.4.91-2.21,1.3-.26-.44-.78-1.01-1.2-1.27,1.22-.57,2.32-1.25,3.25-2-.6-.55-1.35-1.17-2.03-1.61l1.04-.91c.68.44,1.46,1.04,2.08,1.59.65-.62,1.22-1.27,1.69-1.95h-4.92v-1.53h5.88c.39-.75.7-1.51.91-2.24l1.79.23c-.21.68-.47,1.35-.78,2h8.95v1.53h-5.57c.55.73,1.17,1.43,1.9,2.08.7-.6,1.51-1.35,1.98-1.87l1.2.86ZM219.49,294.78c-1.04,1.64-2.71,3.25-4.24,4.32-.29-.34-.99-.91-1.43-1.14,1.54-.94,3.04-2.29,3.9-3.67l1.77.49ZM227.16,287.97h-8.27v1.61h8.27v-1.61ZM227.16,290.8h-8.27v1.64h8.27v-1.64ZM226.67,286.69c-.91-.91-1.72-1.93-2.34-2.97h-2.45c-.62,1.04-1.4,2.03-2.37,2.97h7.15ZM227.48,294.32c1.46,1.14,3.2,2.84,4.03,3.98l-1.51.88c-.75-1.17-2.5-2.89-3.95-4.11l1.43-.75Z"/>
            <path class="cls-7" d="M234.5,293.2l1.69-1.48c1.87,1.51,4.21,3.88,5.83,5.78l-1.77,1.51c-1.67-2.06-3.9-4.29-5.75-5.8Z"/>
            <path class="cls-7" d="M59.62,320.32c2.37,3.33,6.32,6.58,9.94,8.17-.44.36-1.07,1.12-1.41,1.61-3.43-1.69-7.13-4.92-9.65-8.38v9.83h-2v-9.73c-2.52,3.46-6.17,6.56-9.57,8.27-.34-.47-.96-1.22-1.4-1.59,3.62-1.61,7.54-4.84,9.89-8.2h-9.18v-1.9h10.28v-4.47h-8.4v-1.9h8.4v-4.24h2v4.24h8.66v1.9h-8.66v4.47h10.46v1.9h-9.34Z"/>
            <path class="cls-7" d="M85.87,321.1c2.37,3.17,6.22,6.27,9.73,7.78-.42.39-1.04,1.12-1.35,1.64-3.46-1.72-7.18-4.97-9.7-8.4v9.42h-2v-9.37c-2.52,3.43-6.22,6.56-9.63,8.25-.31-.47-.94-1.2-1.35-1.59,3.49-1.51,7.31-4.55,9.68-7.73h-9.13v-1.85h10.43v-6.48h-9.21v-1.85h9.21v-3.1h2v3.1h9.42v1.85h-9.42v6.48h10.51v1.85h-9.18ZM77.13,313.37c1.04,1.51,2.11,3.51,2.47,4.87l-1.82.7c-.34-1.3-1.33-3.41-2.34-4.92l1.69-.65ZM87.56,318.44c.88-1.4,2-3.62,2.63-5.18l1.98.62c-.91,1.77-2.06,3.82-2.99,5.1l-1.61-.55Z"/>
            <path class="cls-7" d="M110.43,330.36l-1.22-1.93c.83-.08,1.64-.21,2.24-.34,3.33-.75,6.61-3.23,6.61-7.73,0-3.93-2.52-7.18-6.95-7.54-.34,2.42-.83,5.07-1.56,7.49-1.59,5.36-3.64,8.09-6.06,8.09s-4.63-2.65-4.63-6.95c0-5.65,5.02-10.59,11.37-10.59s9.96,4.29,9.96,9.57-3.59,9.11-9.76,9.91ZM103.56,326.01c1.22,0,2.6-1.74,3.93-6.14.65-2.16,1.17-4.63,1.46-7.02-5,.62-8.06,4.89-8.06,8.43,0,3.28,1.51,4.73,2.68,4.73Z"/>
            <path class="cls-7" d="M147.24,330.28h-20.19v1.22h-1.92v-22.3h21.54v1.85h-19.62v17.4h20.19v1.82ZM138.4,320.42c1.35,2.81,4.11,4.6,7.96,5.33-.42.39-.94,1.12-1.2,1.64-3.56-.86-6.17-2.58-7.78-5.26-.94,2-3.1,3.9-7.7,5.31-.26-.42-.78-1.09-1.17-1.43,5.31-1.46,7-3.59,7.49-5.59h-7.44v-1.72h7.65v-3.12h-4.03c-.65.86-1.35,1.61-2.08,2.21-.34-.29-1.17-.73-1.59-.96,1.67-1.3,3.15-3.28,3.95-5.36l1.82.44c-.26.68-.6,1.35-.96,2h11.66v1.67h-6.87v3.12h8.06v1.72h-7.78Z"/>
            <path class="cls-7" d="M155.23,311.86v6.66c0,3.95-.52,9.47-3.69,13.03-.29-.36-.96-1.04-1.35-1.3,2-2.24,2.78-5.13,3.07-7.91-1.07.65-2.13,1.27-3.15,1.85l-.62-1.72c1.01-.47,2.39-1.2,3.9-2,.03-.68.03-1.33.03-1.95v-8.33h8.48v-2.39h2v2.39h9.57v1.67h-18.24ZM151.46,318.08c-.18-1.33-.83-3.46-1.61-5.1l1.46-.57c.78,1.61,1.54,3.67,1.72,4.97l-1.56.7ZM172.66,316.8c-.65.65-1.46,1.33-2.16,1.85,1.01.75,2.11,1.35,3.2,1.77-.36.34-.88.94-1.14,1.38-.73-.34-1.48-.75-2.19-1.22v5.15h-4.97v3.95c0,.91-.18,1.35-.88,1.61-.73.26-1.79.26-3.49.26-.08-.47-.36-1.12-.62-1.59,1.27.05,2.37.03,2.71,0,.36,0,.42-.05.42-.34v-3.9h-4.84v-5.13c-.68.47-1.4.91-2.21,1.3-.26-.44-.78-1.01-1.2-1.27,1.22-.57,2.32-1.25,3.25-2-.6-.55-1.35-1.17-2.03-1.61l1.04-.91c.68.44,1.46,1.04,2.08,1.59.65-.62,1.22-1.27,1.69-1.95h-4.92v-1.53h5.88c.39-.75.7-1.51.91-2.24l1.79.23c-.21.68-.47,1.35-.78,2h8.95v1.53h-5.57c.55.73,1.17,1.43,1.9,2.08.7-.6,1.51-1.35,1.98-1.87l1.2.86ZM160.95,326.79c-1.04,1.64-2.71,3.25-4.24,4.32-.29-.34-.99-.91-1.43-1.14,1.54-.94,3.04-2.29,3.9-3.67l1.77.49ZM168.63,319.98h-8.27v1.61h8.27v-1.61ZM168.63,322.81h-8.27v1.64h8.27v-1.64ZM168.13,318.7c-.91-.91-1.72-1.93-2.34-2.97h-2.45c-.62,1.04-1.4,2.03-2.37,2.97h7.15ZM168.94,326.33c1.46,1.14,3.2,2.84,4.03,3.98l-1.51.88c-.75-1.17-2.5-2.89-3.95-4.11l1.43-.75Z"/>
            <path class="cls-7" d="M189.36,310.64c0,.34-.03.91-.03,1.59,2.34-.1,4.71-.34,7.05-.7l-.03,1.9c-2.06.23-4.53.47-7.02.6v3.64c2.52-.1,4.89-.34,7.26-.7l-.03,1.95c-2.45.31-4.73.52-7.21.6.05,1.35.13,2.76.18,4.01,3.46.94,6.11,2.84,7.6,4.06l-1.2,1.85c-1.54-1.4-3.69-2.99-6.3-3.93.03.65.05,1.2.05,1.61,0,1.8-1.2,3.64-4.58,3.64-3.75,0-5.78-1.33-5.78-3.82,0-2.37,2.26-3.98,6.01-3.98.75,0,1.48.05,2.19.16-.03-1.17-.08-2.42-.1-3.54h-1.48c-1.77,0-4.63-.16-6.5-.36l-.03-1.95c1.87.31,4.84.49,6.56.49h1.4v-3.64h-1.14c-1.82,0-5.02-.26-6.66-.44l-.03-1.93c1.69.31,4.92.57,6.66.57h1.2v-1.85c0-.44-.05-1.2-.1-1.56h2.21c-.08.47-.13.99-.16,1.74ZM184.89,328.93c1.48,0,2.76-.47,2.76-2.26,0-.44-.03-1.07-.03-1.74-.81-.18-1.67-.26-2.52-.26-2.47,0-3.82.96-3.82,2.16s1.04,2.11,3.62,2.11Z"/>
            <path class="cls-7" d="M205,312.3c1.69-.18,6.61-.68,11.4-1.07,2.84-.23,5.28-.39,7.02-.47v2.08c-1.48,0-3.77.03-5.1.42-3.69,1.2-5.96,5.15-5.96,8.25,0,5.07,4.73,6.69,8.98,6.84l-.75,2.16c-4.81-.18-10.3-2.76-10.3-8.56,0-4.06,2.47-7.36,4.87-8.79-2.78.31-9.42.94-12.23,1.53l-.23-2.26c.99-.03,1.82-.08,2.32-.13ZM221.8,319.67l-1.33.62c-.6-1.25-1.35-2.6-2.13-3.67l1.33-.57c.6.86,1.59,2.47,2.13,3.62ZM224.77,318.55l-1.35.65c-.62-1.27-1.38-2.55-2.19-3.64l1.27-.6c.62.86,1.67,2.45,2.26,3.59Z"/>
          </g>
        </g>
        <polyline class="cls-1" points="245.63 76.18 247.62 70.57 253.46 71.5 255.56 64.03 262.8 65.66 265.25 57.61"/>
        <polyline class="cls-1" points="30 76.11 24.14 75.13 24.04 69.22 16.31 68.45 16.66 61.03 8.3 60.02"/>
        <g>
          <path class="cls-6" d="M104.18,115.04c-1.98,3.58-4.71,6.46-8.02,8.77,4.29.99,9.34,1.51,15.13,1.7-1.41,1.6-3.16,4.57-4.01,6.46-7.73-.52-13.96-1.74-19.05-4.01-5.71,2.22-12.35,3.49-19.33,4.2-.52-1.7-2.03-4.71-3.21-6.18,5.75-.33,11.08-1.04,15.75-2.22-1.18-.94-2.26-2.03-3.25-3.16-1.98,1.13-4.2,2.17-6.7,3.16-.85-1.6-2.83-4.05-4.24-5.09,5.75-1.74,9.81-4.15,12.59-6.84-1.23-1.32-3.02-2.88-4.24-3.72,5.23-3.11,6.13-7.36,6.18-10.84h-14.38v-6.27h17.49v-3.72h7.07v3.72h17.68v6.27h-11.83v7.45c0,2.78-.38,4.38-2.26,5.33-1.79.94-3.96.99-6.65.99v-.09c-.38.47-.71.94-1.08,1.41h10.75l1.13-.24,4.48,2.92ZM79.19,100.05c-1.93,3.82-4.9,7.69-8.11,10-1.23-1.23-3.39-3.02-4.71-3.91,2.83-1.84,5.33-5.05,6.46-7.78l6.37,1.7ZM83.71,117.68c1.37,1.37,3.02,2.5,4.95,3.49,1.98-.99,3.72-2.12,5.19-3.49h-10.14ZM88.15,97.27c-.05,3.77-.57,8.3-3.68,12.12l4.29.85c-.33-1.7-1.04-3.72-1.74-5.19,1.27.05,2.97.05,3.49.05s.66-.09.66-.57v-7.26h-3.02ZM103.8,98.21c2.5,2.59,5.61,6.18,7.02,8.72l-5.71,3.39c-1.18-2.5-4.15-6.32-6.6-9.1l5.28-3.02Z"/>
          <path class="cls-6" d="M135.58,111.65v20.37h-6.7v-20.37h-4.24c-.28,7.64-1.6,15.23-7.12,20.84-1.08-1.41-3.49-3.72-5.04-4.71,4.34-4.48,5.47-10.23,5.75-16.13h-4.95v-6.32h5.04v-9.05h-4.15v-6.32h25.08v6.32h-3.68v9.05h4.24v5.42c4.05-2.36,8.68-6.08,11.08-9.85l6.27,2.59c-3.58,4.95-8.58,9.38-13.34,12.49-.94-1.32-2.64-3.02-4.2-4.34h-4.06ZM128.89,105.33v-9.05h-4.2v9.05h4.2ZM158.12,115.84c-4.01,7.07-9.95,12.4-16.74,16.08-1.04-1.74-3.02-4.1-4.76-5.56,5.99-2.69,11.88-7.26,14.95-13.01l6.55,2.5ZM156.66,90.52c-3.58,4.86-8.58,9.01-13.53,11.93-1.08-1.51-3.06-3.54-4.81-4.86,4.29-2.12,9.34-5.89,11.83-9.71l6.51,2.64Z"/>
          <path class="cls-6" d="M204.99,124.14v6.51h-29.75v-6.51h12.21v-8.16h-8.68v-6.37h8.68v-6.6h-4.2c-.71,2.31-1.51,4.38-2.4,6.08-1.37-.94-4.43-2.45-6.08-3.11.42-.71.8-1.46,1.18-2.31l-2.73,1.23c-.14-.8-.42-1.74-.75-2.83v29.99h-6.88v-25.89c-.28,1.65-.61,3.21-.99,4.53l-5-1.79c1.08-3.21,1.89-8.53,2.22-12.49l3.77.52v-9.67h6.88v9.05l2.64-1.13c.75,1.46,1.51,3.16,2.12,4.76.9-3.21,1.51-6.88,1.84-10.51l6.65.99c-.24,2.07-.52,4.15-.9,6.13h2.64v-8.96h6.84v8.96h9.05v6.46h-9.05v6.6h8.06v6.37h-8.06v8.16h10.7Z"/>
          <path class="cls-6" d="M76.17,157.39c3.16,2.92,7.31,5.23,11.6,6.41-1.23,1.46-2.64,3.82-3.58,5.61-3.77-1.51-8.53-4.57-11.17-7.45-2.55,2.78-7.07,5.94-11.41,7.69-.61-1.46-1.74-3.54-2.78-4.9v15.04c2.4-.99,5.75-2.64,9.15-4.29l1.56,5.09c-1.08.66-2.22,1.32-3.35,1.98,1.13.05,2.5.05,2.92.05.47,0,.66-.14.66-.66v-15.61h5.99v11.5l2.26-2.36c2.88,1.7,6.88,4.34,8.86,6.18l-4.24,4.62c-1.46-1.56-4.29-3.72-6.88-5.52v1.37c0,2.45-.38,3.68-2.03,4.43-1.6.75-3.63.8-6.32.8-.24-1.41-.9-3.25-1.51-4.62-1.65.94-3.25,1.84-4.76,2.69l-2.31-5.04c0,2.64-.28,4.48-1.84,5.56-1.51,1.08-3.35,1.23-5.99,1.23-.14-1.7-.85-4.62-1.6-6.32,1.08.09,2.36.09,2.83.09s.61-.19.61-.75v-8.39h-2.78c-.33,5.47-1.08,11.13-2.64,15.32-1.13-.94-3.77-2.36-5.23-2.88,2.31-6.46,2.45-16.03,2.45-22.91v-17.26h14.19v11.22c2.55-1.08,5.04-2.64,7.03-4.34h-5.52v-5.66h9.29v-2.78h6.55v2.78h9.85v5.66h-5.8c2.22,1.89,5,3.54,7.64,4.57-1.41,1.18-3.4,3.49-4.39,5.05-2.59-1.41-5.14-3.58-7.31-6.08v2.88ZM52.83,165.5v-4.62h-2.45v.47c0,1.27,0,2.69-.05,4.15h2.5ZM50.38,150.27v4.43h2.45v-4.43h-2.45ZM58.82,164.23c4.24-1.46,8.49-4.29,10.8-6.93v-2.5c-2.31,2.5-5.04,4.62-7.83,5.99-.66-1.08-1.84-2.55-2.97-3.77v7.21ZM64.19,176.77c-.57-1.56-2.07-3.87-3.49-5.56l4.71-2.83c1.51,1.56,3.16,3.72,3.82,5.33l-5.05,3.06ZM76.21,173.56c1.23-1.41,2.92-3.87,3.87-5.61l5.19,3.11c-1.6,2.03-3.3,4.01-4.62,5.33l-4.43-2.83Z"/>
          <path class="cls-6" d="M98.57,160.6v26.69h-6.7v-43.09h18.86v16.41h-12.16ZM98.57,148.81v1.51h5.75v-1.51h-5.75ZM104.32,156.02v-1.6h-5.75v1.6h5.75ZM132.37,180.35c0,2.92-.42,4.62-2.12,5.71-1.65,1.08-3.82,1.23-6.74,1.23-.09-1.37-.61-3.39-1.23-5.04-.8.99-1.56,2.12-1.98,3.02-3.58-1.04-6.27-2.88-8.25-5.38-1.7,1.98-4.43,3.82-8.72,5.23-.85-1.27-2.59-3.25-4.01-4.34,4.62-1.23,6.98-3.02,8.16-4.81h-7.07v-4.81h8.16v-1.79h-7.5v-4.67h2.83c-.33-.9-.75-1.84-1.23-2.59l5.23-1.46c.85,1.23,1.65,2.78,2.03,4.05h4.24c.47-1.27.99-2.78,1.23-3.91h-2.22v-16.6h19.19v36.16ZM115.64,175.97c1.84,2.17,4.62,3.72,8.3,4.43-.19.19-.42.42-.61.66h1.6c.57,0,.71-.24.71-.8v-19.47h-9.62l5.71,1.46c-.61.85-1.23,1.7-1.74,2.45h3.21v4.67h-8.53v1.79h8.91v4.81h-7.92ZM119.69,148.81v1.51h5.94v-1.51h-5.94ZM119.69,156.17h5.94v-1.74h-5.94v1.74Z"/>
          <path class="cls-6" d="M180.76,151.03h-6.74c.85,1.18,1.6,2.4,2.03,3.44l-3.21,1.23h6.84v19.33c0,2.97-.47,4.71-2.45,5.71-1.93.99-4.39,1.08-7.69,1.08-.24-1.84-1.08-4.57-1.89-6.27,1.7.09,4.01.09,4.62.09.66,0,.9-.19.9-.75v-13.01h-5.8v24.71h-6.41v-30.88h.42c-1.41-1.13-3.77-2.69-5.19-3.44.47-.38.9-.8,1.37-1.23h-4.95c.66,1.13,1.23,2.26,1.51,3.21l-3.21,1.46h7.87v17.45h-4.15c2.59,3.11,5,7.21,6.04,10.14l-5.66,2.83c-.28-.85-.66-1.89-1.13-2.92-5.66.99-11.55,1.93-16.12,2.69l-1.04-5.99c.99-.09,2.07-.24,3.21-.42v-23.76h1.56c-1.41-1.08-3.68-2.5-5.04-3.25,2.97-2.45,5.66-6.51,7.17-10.42l6.37,1.7c-.33.8-.66,1.56-1.04,2.36h9.52v4.01c2.03-2.31,3.72-5.19,4.71-8.06l6.46,1.65c-.28.8-.66,1.6-1.04,2.4h12.16v4.95ZM148.18,155.69c-.52-1.37-1.37-2.97-2.26-4.48-1.13,1.7-2.36,3.21-3.49,4.48h5.75ZM152.37,160.74h-6.13v1.23h6.13v-1.23ZM146.24,168.09h6.13v-1.37h-6.13v1.37ZM150.91,177.85c-.57-.85-1.13-1.7-1.74-2.45l4.9-2.26h-7.83v5.42l4.67-.71ZM169.68,155.69c-.66-1.41-1.74-3.16-2.88-4.67h-.99c-1.18,1.79-2.45,3.39-3.73,4.67h7.59Z"/>
          <path class="cls-6" d="M197.74,161.78c0,7.69-1.13,19-7.73,25.46-.94-1.27-3.58-3.77-4.9-4.57,2.64-2.69,4.15-5.99,5-9.38-1.51.9-3.02,1.84-4.53,2.69l-1.89-6.51c1.98-.75,4.62-2.03,7.45-3.39.09-1.51.09-2.97.09-4.34v-1.04l-4.34,2.36c-.38-2.4-1.65-6.18-2.97-9.1l4.9-2.45c.85,1.7,1.74,3.68,2.4,5.52v-9.38h13.67v-5.14h7.26v5.14h16.5v6.08h-30.93v8.06ZM228.76,180.4v5.89h-32.3v-5.89h4.43v-14.05h6.18v14.05h3.63v-18.15h-10.94v-5.75h27.39v5.75h-9.9v5.28h9.38v5.71h-9.38v7.17h11.5Z"/>
          <path class="cls-6" d="M86.73,212.47c3.44-1.98,7.03-3.82,9.05-5s3.54-2.07,4.9-3.21l3.96,6.6c-1.65.99-3.35,1.93-5.28,2.88-2.78,1.37-8.35,3.91-12.49,6.55-3.63,2.4-6.27,4.9-6.27,8.02s3.02,4.57,9.05,4.57c4.67,0,11.08-.8,15.56-1.84l-.09,8.25c-4.29.71-9.01,1.18-15.28,1.18-9.71,0-17.21-2.59-17.21-11.32,0-5.33,3.35-9.24,7.69-12.49-2.17-4.05-4.38-8.91-6.46-13.81l7.17-2.92c1.74,4.76,3.82,9.05,5.71,12.54Z"/>
          <path class="cls-6" d="M124.83,206.2c-.57,2.45-2.22,13.44-2.22,17.82,0,.14,0,.9.05,1.08.57-1.37,1.18-2.26,1.79-3.68l3.44,2.78c-1.41,4.24-2.83,9.01-3.4,11.74-.14.66-.28,1.74-.28,2.22,0,.52,0,1.37.05,2.12l-6.46.47c-.99-3.21-1.93-8.72-1.93-15.14,0-7.21,1.32-16.08,1.84-19.57.19-1.41.47-3.58.52-5.33l7.87.66c-.42,1.04-1.08,3.96-1.27,4.81ZM148.69,203.94c-.05.9-.09,2.45-.14,4.43,2.4-.28,4.71-.61,6.84-1.08v7.12c-2.12.28-4.43.57-6.88.71.09,4.34.33,7.69.47,10.51,4.01,1.65,6.93,4.1,9.05,6.08l-3.87,5.99c-1.74-1.65-3.44-3.06-5.04-4.29-.61,4.43-3.54,7.17-9.71,7.17-6.65,0-11.03-2.83-11.03-8.16s4.34-8.68,10.94-8.68c.8,0,1.6.05,2.36.09-.14-2.5-.28-5.38-.33-8.35-.9.05-1.79.05-2.64.05-2.83,0-5.66-.09-8.44-.28l-.05-6.79c2.73.28,5.56.42,8.44.42.9,0,1.74,0,2.64-.05-.05-2.22-.05-3.96-.09-4.81,0-.71-.19-2.26-.38-3.25h8.16c-.14.9-.24,2.12-.28,3.16ZM138.74,233.83c2.26,0,3.16-1.23,3.16-3.82v-.33c-1.04-.28-2.07-.42-3.16-.42-2.22,0-3.68.85-3.68,2.36,0,1.65,1.65,2.22,3.68,2.22Z"/>
          <path class="cls-6" d="M187.27,212.75c0-2.59-2.22-3.77-5.33-3.77-2.69,0-4.67,1.23-6.74,3.39l-4.62-4.24c2.92-3.58,7.36-5.94,12.35-5.94,6.93,0,12.35,3.06,12.35,9.81s-9.76,7.26-9.34,13.48h-7.36c-.75-7.17,8.68-8.58,8.68-12.73ZM177.46,233.78c0-2.78,2.03-4.71,4.81-4.71s4.81,1.93,4.81,4.71-2.03,4.81-4.81,4.81-4.81-2.03-4.81-4.81Z"/>
        </g>
      </g>
      <rect class="cls-2" width="269.87" height="344.43"/>
    </g>
  </g>
</svg>