<?xml version="1.0" encoding="UTF-8"?>
<svg id="_レイヤー_2" data-name="レイヤー 2" xmlns="http://www.w3.org/2000/svg" viewBox="0 0 151.66 41.36">
  <defs>
    <style>
      .cls-1 {
        opacity: .75;
      }

      .cls-2 {
        fill: #164097;
      }

      .cls-3, .cls-4, .cls-5 {
        fill: none;
      }

      .cls-4 {
        stroke: #bfbfbf;
      }

      .cls-4, .cls-5 {
        stroke-linecap: round;
        stroke-linejoin: round;
        stroke-width: 11.51px;
      }

      .cls-5 {
        stroke: #fff;
      }
    </style>
  </defs>
  <g id="design">
    <g>
      <g>
        <g>
          <g class="cls-1">
            <path class="cls-4" d="M15.4,11.4c-.86.75-1.66,1.69-2.38,2.82-.72,1.13-1.3,2.4-1.73,3.83-.43,1.42-.65,2.97-.65,4.63s.22,3.19.65,4.62c.43,1.43,1.01,2.71,1.73,3.84.72,1.13,1.51,2.07,2.38,2.82v.12h-7.63V11.28h7.63v.12Z"/>
            <path class="cls-4" d="M36.95,16.06c-.13.26-.24.57-.35.95-.1.38-.2.7-.28.97-.14.56-.32,1.2-.52,1.91-.2.71-.44,1.46-.73,2.23-.29.78-.63,1.55-1.02,2.33-.39.78-.84,1.52-1.36,2.22-.72.96-1.57,1.87-2.56,2.72-.98.86-2.08,1.62-3.29,2.3-1.21.68-2.52,1.25-3.92,1.72l-3.17-3.48c1.62-.37,3.01-.83,4.18-1.39s2.18-1.2,3.02-1.91c.85-.71,1.59-1.46,2.23-2.24.51-.64.94-1.32,1.3-2.03.35-.71.64-1.42.86-2.14.22-.71.38-1.39.48-2.03h-10.56c-.59,0-1.18.01-1.76.04-.58.02-1.04.05-1.36.08v-4.1c.26.03.58.06.96.1.38.03.78.06,1.18.08.4.02.73.04.98.04h10.58c.27,0,.62-.01,1.03-.04.42-.02.81-.08,1.18-.18l2.88,1.85ZM33.57,13.99c0-.54.14-1.04.41-1.49.27-.45.63-.81,1.08-1.08.45-.27.94-.41,1.49-.41s1.04.14,1.49.41c.45.27.81.63,1.08,1.08.27.45.41.94.41,1.49s-.14,1.04-.41,1.49c-.27.45-.63.81-1.08,1.08-.45.27-.94.41-1.49.41s-1.04-.14-1.49-.41c-.45-.27-.81-.63-1.08-1.08-.27-.45-.41-.94-.41-1.49ZM35.27,13.99c0,.35.12.65.37.9.25.25.55.37.9.37s.65-.12.9-.37c.25-.25.37-.55.37-.9s-.12-.65-.37-.9c-.25-.25-.55-.37-.9-.37s-.65.12-.9.37c-.25.25-.37.55-.37.9Z"/>
            <path class="cls-4" d="M42.76,14.45c.5.02.99.03,1.49.04.5,0,.92.01,1.27.01h14.53c.44,0,.9,0,1.38-.02-.02.4-.03.83-.04,1.28,0,.46-.01.89-.01,1.31v11.71c0,.26,0,.58.01.98,0,.4.01.8.01,1.19s0,.86.02,1.4h-4.03c.02-.8.03-1.48.05-2.04.02-.56.02-1.09.02-1.58v-10.51h-10.75v11.64c0,.42,0,.81.01,1.19,0,.38.01.81.01,1.31h-4.01c.02-.5.03-.94.04-1.32,0-.38.02-.78.02-1.19,0-.41.01-.78.01-1.12v-12.98c0-.5-.02-.93-.05-1.3ZM58.89,27.36v3.72h-14.18v-3.72h14.18Z"/>
            <path class="cls-4" d="M77.66,13.56c-.34.48-.66.99-.98,1.54-.32.54-.56.95-.72,1.22-.58,1.01-1.28,2.04-2.12,3.08-.84,1.05-1.76,2.05-2.77,3-1.01.95-2.05,1.8-3.12,2.56l-3.26-2.42c1.06-.66,1.98-1.32,2.78-1.99.8-.67,1.49-1.34,2.06-1.99.58-.66,1.08-1.28,1.5-1.88.42-.6.8-1.15,1.12-1.64.22-.34.46-.78.71-1.33.25-.55.44-1.06.56-1.52l4.25,1.39ZM85.36,17.45c-.16.26-.32.56-.49.9-.17.34-.32.7-.44,1.07-.21.66-.5,1.42-.86,2.3-.37.88-.82,1.8-1.37,2.76s-1.18,1.9-1.92,2.81c-1.17,1.42-2.52,2.7-4.06,3.83-1.54,1.13-3.43,2.16-5.69,3.08l-3.46-3.07c1.73-.53,3.19-1.1,4.38-1.73,1.19-.62,2.21-1.29,3.06-1.99.85-.7,1.61-1.43,2.28-2.18.51-.56.99-1.21,1.43-1.94.44-.74.82-1.47,1.13-2.2.31-.73.52-1.35.61-1.86h-7.63l1.3-3.29h6.41c.4,0,.82-.03,1.26-.08.44-.06.81-.13,1.12-.23l2.95,1.82ZM82.89,11.88c.21.29.43.64.66,1.04s.46.81.67,1.21c.22.4.4.74.54,1.03l-2.28.96c-.26-.5-.55-1.06-.88-1.69-.33-.63-.65-1.18-.97-1.64l2.26-.91ZM85.84,10.73c.21.3.43.66.67,1.07.24.41.47.81.7,1.2.22.39.4.72.53,1l-2.26.96c-.24-.5-.54-1.06-.89-1.69-.35-.63-.69-1.17-1.01-1.62l2.26-.91Z"/>
            <path class="cls-4" d="M110.06,20.42c-.1.18-.2.38-.3.6-.1.22-.18.41-.23.55-.4,1.15-.87,2.28-1.42,3.4s-1.26,2.16-2.16,3.16c-1.18,1.33-2.52,2.43-4.02,3.31-1.5.88-3.01,1.54-4.55,1.99l-2.9-3.29c1.87-.4,3.5-.97,4.88-1.7,1.38-.74,2.51-1.54,3.37-2.4.59-.59,1.06-1.18,1.4-1.78.34-.59.62-1.16.83-1.7h-10.92c-.3,0-.75,0-1.34.02-.59.02-1.16.05-1.7.1v-3.74c.56.05,1.11.09,1.64.12.54.03,1,.05,1.4.05h11.42c.46,0,.87-.03,1.21-.08.34-.06.61-.12.8-.2l2.57,1.61ZM93.26,13.08c.34.05.76.08,1.28.11.52.02.99.04,1.4.04h9.1c.38,0,.86-.01,1.44-.04.58-.02,1.04-.06,1.39-.11v3.74c-.34-.03-.78-.06-1.34-.07-.56-.02-1.07-.02-1.54-.02h-9.05c-.4,0-.86,0-1.37.02-.51.02-.95.04-1.32.07v-3.74Z"/>
            <path class="cls-4" d="M116.18,27.89c.54-.02,1.19-.05,1.93-.11.74-.06,1.55-.12,2.41-.2.86-.08,1.75-.16,2.65-.25.9-.09,1.8-.18,2.68-.29.88-.1,1.71-.2,2.48-.3.78-.1,1.45-.18,2.03-.26l.82,3.77c-.61.08-1.32.16-2.15.25-.82.09-1.7.18-2.63.29-.93.1-1.87.21-2.82.31-.95.1-1.88.2-2.77.3-.9.1-1.72.18-2.48.25-.76.07-1.4.14-1.93.2-.3.03-.68.08-1.13.14-.45.06-.87.12-1.27.17l-.67-4.25h1.45c.54,0,1,0,1.4-.02ZM125.75,13.58c-.18.4-.36.85-.55,1.34-.19.5-.38,1.02-.58,1.58-.16.46-.35,1.04-.58,1.73-.22.69-.47,1.43-.73,2.23s-.54,1.62-.82,2.45c-.28.83-.55,1.64-.82,2.42-.26.78-.51,1.5-.74,2.15-.23.65-.44,1.18-.61,1.6l-4.32.14c.22-.54.47-1.18.74-1.92.27-.74.56-1.53.85-2.38.3-.85.59-1.71.88-2.59.29-.88.56-1.74.82-2.57.26-.83.49-1.6.71-2.32.22-.71.39-1.31.52-1.79.18-.64.31-1.19.4-1.66.09-.46.16-.92.23-1.37l4.61.94ZM129.9,21.17c.43.67.89,1.44,1.38,2.3.49.86.97,1.76,1.45,2.7s.93,1.84,1.34,2.72c.42.88.77,1.67,1.06,2.38l-3.94,1.75c-.29-.77-.63-1.63-1.02-2.58-.39-.95-.81-1.92-1.25-2.89-.44-.98-.89-1.89-1.34-2.75-.46-.86-.9-1.57-1.33-2.15l3.65-1.49Z"/>
            <path class="cls-4" d="M144.23,34.08h-7.63v-.12c.88-.75,1.68-1.69,2.39-2.82.71-1.13,1.28-2.41,1.72-3.84.43-1.43.65-2.97.65-4.62s-.22-3.21-.65-4.63c-.43-1.42-1-2.7-1.72-3.83-.71-1.13-1.51-2.07-2.39-2.82v-.12h7.63v22.8Z"/>
          </g>
          <g>
            <path class="cls-5" d="M15.4,7.95c-.86.75-1.66,1.69-2.38,2.82-.72,1.13-1.3,2.4-1.73,3.83-.43,1.42-.65,2.97-.65,4.63s.22,3.19.65,4.62c.43,1.43,1.01,2.71,1.73,3.84.72,1.13,1.51,2.07,2.38,2.82v.12h-7.63V7.83h7.63v.12Z"/>
            <path class="cls-5" d="M36.95,12.6c-.13.26-.24.57-.35.95-.1.38-.2.7-.28.97-.14.56-.32,1.2-.52,1.91-.2.71-.44,1.46-.73,2.23-.29.78-.63,1.55-1.02,2.33-.39.78-.84,1.52-1.36,2.22-.72.96-1.57,1.87-2.56,2.72-.98.86-2.08,1.62-3.29,2.3-1.21.68-2.52,1.25-3.92,1.72l-3.17-3.48c1.62-.37,3.01-.83,4.18-1.39s2.18-1.2,3.02-1.91c.85-.71,1.59-1.46,2.23-2.24.51-.64.94-1.32,1.3-2.03.35-.71.64-1.42.86-2.14.22-.71.38-1.39.48-2.03h-10.56c-.59,0-1.18.01-1.76.04-.58.02-1.04.05-1.36.08v-4.1c.26.03.58.06.96.1.38.03.78.06,1.18.08.4.02.73.04.98.04h10.58c.27,0,.62-.01,1.03-.04.42-.02.81-.08,1.18-.18l2.88,1.85ZM33.57,10.54c0-.54.14-1.04.41-1.49.27-.45.63-.81,1.08-1.08.45-.27.94-.41,1.49-.41s1.04.14,1.49.41c.45.27.81.63,1.08,1.08.27.45.41.94.41,1.49s-.14,1.04-.41,1.49c-.27.45-.63.81-1.08,1.08-.45.27-.94.41-1.49.41s-1.04-.14-1.49-.41c-.45-.27-.81-.63-1.08-1.08-.27-.45-.41-.94-.41-1.49ZM35.27,10.54c0,.35.12.65.37.9.25.25.55.37.9.37s.65-.12.9-.37c.25-.25.37-.55.37-.9s-.12-.65-.37-.9c-.25-.25-.55-.37-.9-.37s-.65.12-.9.37c-.25.25-.37.55-.37.9Z"/>
            <path class="cls-5" d="M42.76,11c.5.02.99.03,1.49.04.5,0,.92.01,1.27.01h14.53c.44,0,.9,0,1.38-.02-.02.4-.03.83-.04,1.28,0,.46-.01.89-.01,1.31v11.71c0,.26,0,.58.01.98,0,.4.01.8.01,1.19s0,.86.02,1.4h-4.03c.02-.8.03-1.48.05-2.04.02-.56.02-1.09.02-1.58v-10.51h-10.75v11.64c0,.42,0,.81.01,1.19,0,.38.01.81.01,1.31h-4.01c.02-.5.03-.94.04-1.32,0-.38.02-.78.02-1.19,0-.41.01-.78.01-1.12v-12.98c0-.5-.02-.93-.05-1.3ZM58.89,23.91v3.72h-14.18v-3.72h14.18Z"/>
            <path class="cls-5" d="M77.66,10.11c-.34.48-.66.99-.98,1.54-.32.54-.56.95-.72,1.22-.58,1.01-1.28,2.04-2.12,3.08-.84,1.05-1.76,2.05-2.77,3-1.01.95-2.05,1.8-3.12,2.56l-3.26-2.42c1.06-.66,1.98-1.32,2.78-1.99.8-.67,1.49-1.34,2.06-1.99.58-.66,1.08-1.28,1.5-1.88.42-.6.8-1.15,1.12-1.64.22-.34.46-.78.71-1.33.25-.55.44-1.06.56-1.52l4.25,1.39ZM85.36,14c-.16.26-.32.56-.49.9-.17.34-.32.7-.44,1.07-.21.66-.5,1.42-.86,2.3-.37.88-.82,1.8-1.37,2.76s-1.18,1.9-1.92,2.81c-1.17,1.42-2.52,2.7-4.06,3.83-1.54,1.13-3.43,2.16-5.69,3.08l-3.46-3.07c1.73-.53,3.19-1.1,4.38-1.73,1.19-.62,2.21-1.29,3.06-1.99.85-.7,1.61-1.43,2.28-2.18.51-.56.99-1.21,1.43-1.94.44-.74.82-1.47,1.13-2.2.31-.73.52-1.35.61-1.86h-7.63l1.3-3.29h6.41c.4,0,.82-.03,1.26-.08.44-.06.81-.13,1.12-.23l2.95,1.82ZM82.89,8.43c.21.29.43.64.66,1.04s.46.81.67,1.21c.22.4.4.74.54,1.03l-2.28.96c-.26-.5-.55-1.06-.88-1.69-.33-.63-.65-1.18-.97-1.64l2.26-.91ZM85.84,7.28c.21.3.43.66.67,1.07.24.41.47.81.7,1.2.22.39.4.72.53,1l-2.26.96c-.24-.5-.54-1.06-.89-1.69-.35-.63-.69-1.17-1.01-1.62l2.26-.91Z"/>
            <path class="cls-5" d="M110.06,16.97c-.1.18-.2.38-.3.6-.1.22-.18.41-.23.55-.4,1.15-.87,2.28-1.42,3.4s-1.26,2.16-2.16,3.16c-1.18,1.33-2.52,2.43-4.02,3.31-1.5.88-3.01,1.54-4.55,1.99l-2.9-3.29c1.87-.4,3.5-.97,4.88-1.7,1.38-.74,2.51-1.54,3.37-2.4.59-.59,1.06-1.18,1.4-1.78.34-.59.62-1.16.83-1.7h-10.92c-.3,0-.75,0-1.34.02-.59.02-1.16.05-1.7.1v-3.74c.56.05,1.11.09,1.64.12.54.03,1,.05,1.4.05h11.42c.46,0,.87-.03,1.21-.08.34-.06.61-.12.8-.2l2.57,1.61ZM93.26,9.63c.34.05.76.08,1.28.11.52.02.99.04,1.4.04h9.1c.38,0,.86-.01,1.44-.04.58-.02,1.04-.06,1.39-.11v3.74c-.34-.03-.78-.06-1.34-.07-.56-.02-1.07-.02-1.54-.02h-9.05c-.4,0-.86,0-1.37.02-.51.02-.95.04-1.32.07v-3.74Z"/>
            <path class="cls-5" d="M116.18,24.44c.54-.02,1.19-.05,1.93-.11.74-.06,1.55-.12,2.41-.2.86-.08,1.75-.16,2.65-.25.9-.09,1.8-.18,2.68-.29.88-.1,1.71-.2,2.48-.3.78-.1,1.45-.18,2.03-.26l.82,3.77c-.61.08-1.32.16-2.15.25-.82.09-1.7.18-2.63.29-.93.1-1.87.21-2.82.31-.95.1-1.88.2-2.77.3-.9.1-1.72.18-2.48.25-.76.07-1.4.14-1.93.2-.3.03-.68.08-1.13.14-.45.06-.87.12-1.27.17l-.67-4.25h1.45c.54,0,1,0,1.4-.02ZM125.75,10.13c-.18.4-.36.85-.55,1.34-.19.5-.38,1.02-.58,1.58-.16.46-.35,1.04-.58,1.73-.22.69-.47,1.43-.73,2.23s-.54,1.62-.82,2.45c-.28.83-.55,1.64-.82,2.42-.26.78-.51,1.5-.74,2.15-.23.65-.44,1.18-.61,1.6l-4.32.14c.22-.54.47-1.18.74-1.92.27-.74.56-1.53.85-2.38.3-.85.59-1.71.88-2.59.29-.88.56-1.74.82-2.57.26-.83.49-1.6.71-2.32.22-.71.39-1.31.52-1.79.18-.64.31-1.19.4-1.66.09-.46.16-.92.23-1.37l4.61.94ZM129.9,17.72c.43.67.89,1.44,1.38,2.3.49.86.97,1.76,1.45,2.7s.93,1.84,1.34,2.72c.42.88.77,1.67,1.06,2.38l-3.94,1.75c-.29-.77-.63-1.63-1.02-2.58-.39-.95-.81-1.92-1.25-2.89-.44-.98-.89-1.89-1.34-2.75-.46-.86-.9-1.57-1.33-2.15l3.65-1.49Z"/>
            <path class="cls-5" d="M144.23,30.63h-7.63v-.12c.88-.75,1.68-1.69,2.39-2.82.71-1.13,1.28-2.41,1.72-3.84.43-1.43.65-2.97.65-4.62s-.22-3.21-.65-4.63c-.43-1.42-1-2.7-1.72-3.83-.71-1.13-1.51-2.07-2.39-2.82v-.12h7.63v22.8Z"/>
          </g>
        </g>
        <g>
          <path class="cls-2" d="M15.4,7.95c-.86.75-1.66,1.69-2.38,2.82-.72,1.13-1.3,2.4-1.73,3.83-.43,1.42-.65,2.97-.65,4.63s.22,3.19.65,4.62c.43,1.43,1.01,2.71,1.73,3.84.72,1.13,1.51,2.07,2.38,2.82v.12h-7.63V7.83h7.63v.12Z"/>
          <path class="cls-2" d="M36.95,12.6c-.13.26-.24.57-.35.95-.1.38-.2.7-.28.97-.14.56-.32,1.2-.52,1.91-.2.71-.44,1.46-.73,2.23-.29.78-.63,1.55-1.02,2.33-.39.78-.84,1.52-1.36,2.22-.72.96-1.57,1.87-2.56,2.72-.98.86-2.08,1.62-3.29,2.3-1.21.68-2.52,1.25-3.92,1.72l-3.17-3.48c1.62-.37,3.01-.83,4.18-1.39s2.18-1.2,3.02-1.91c.85-.71,1.59-1.46,2.23-2.24.51-.64.94-1.32,1.3-2.03.35-.71.64-1.42.86-2.14.22-.71.38-1.39.48-2.03h-10.56c-.59,0-1.18.01-1.76.04-.58.02-1.04.05-1.36.08v-4.1c.26.03.58.06.96.1.38.03.78.06,1.18.08.4.02.73.04.98.04h10.58c.27,0,.62-.01,1.03-.04.42-.02.81-.08,1.18-.18l2.88,1.85ZM33.57,10.54c0-.54.14-1.04.41-1.49.27-.45.63-.81,1.08-1.08.45-.27.94-.41,1.49-.41s1.04.14,1.49.41c.45.27.81.63,1.08,1.08.27.45.41.94.41,1.49s-.14,1.04-.41,1.49c-.27.45-.63.81-1.08,1.08-.45.27-.94.41-1.49.41s-1.04-.14-1.49-.41c-.45-.27-.81-.63-1.08-1.08-.27-.45-.41-.94-.41-1.49ZM35.27,10.54c0,.35.12.65.37.9.25.25.55.37.9.37s.65-.12.9-.37c.25-.25.37-.55.37-.9s-.12-.65-.37-.9c-.25-.25-.55-.37-.9-.37s-.65.12-.9.37c-.25.25-.37.55-.37.9Z"/>
          <path class="cls-2" d="M42.76,11c.5.02.99.03,1.49.04.5,0,.92.01,1.27.01h14.53c.44,0,.9,0,1.38-.02-.02.4-.03.83-.04,1.28,0,.46-.01.89-.01,1.31v11.71c0,.26,0,.58.01.98,0,.4.01.8.01,1.19s0,.86.02,1.4h-4.03c.02-.8.03-1.48.05-2.04.02-.56.02-1.09.02-1.58v-10.51h-10.75v11.64c0,.42,0,.81.01,1.19,0,.38.01.81.01,1.31h-4.01c.02-.5.03-.94.04-1.32,0-.38.02-.78.02-1.19,0-.41.01-.78.01-1.12v-12.98c0-.5-.02-.93-.05-1.3ZM58.89,23.91v3.72h-14.18v-3.72h14.18Z"/>
          <path class="cls-2" d="M77.66,10.11c-.34.48-.66.99-.98,1.54-.32.54-.56.95-.72,1.22-.58,1.01-1.28,2.04-2.12,3.08-.84,1.05-1.76,2.05-2.77,3-1.01.95-2.05,1.8-3.12,2.56l-3.26-2.42c1.06-.66,1.98-1.32,2.78-1.99.8-.67,1.49-1.34,2.06-1.99.58-.66,1.08-1.28,1.5-1.88.42-.6.8-1.15,1.12-1.64.22-.34.46-.78.71-1.33.25-.55.44-1.06.56-1.52l4.25,1.39ZM85.36,14c-.16.26-.32.56-.49.9-.17.34-.32.7-.44,1.07-.21.66-.5,1.42-.86,2.3-.37.88-.82,1.8-1.37,2.76s-1.18,1.9-1.92,2.81c-1.17,1.42-2.52,2.7-4.06,3.83-1.54,1.13-3.43,2.16-5.69,3.08l-3.46-3.07c1.73-.53,3.19-1.1,4.38-1.73,1.19-.62,2.21-1.29,3.06-1.99.85-.7,1.61-1.43,2.28-2.18.51-.56.99-1.21,1.43-1.94.44-.74.82-1.47,1.13-2.2.31-.73.52-1.35.61-1.86h-7.63l1.3-3.29h6.41c.4,0,.82-.03,1.26-.08.44-.06.81-.13,1.12-.23l2.95,1.82ZM82.89,8.43c.21.29.43.64.66,1.04s.46.81.67,1.21c.22.4.4.74.54,1.03l-2.28.96c-.26-.5-.55-1.06-.88-1.69-.33-.63-.65-1.18-.97-1.64l2.26-.91ZM85.84,7.28c.21.3.43.66.67,1.07.24.41.47.81.7,1.2.22.39.4.72.53,1l-2.26.96c-.24-.5-.54-1.06-.89-1.69-.35-.63-.69-1.17-1.01-1.62l2.26-.91Z"/>
          <path class="cls-2" d="M110.06,16.97c-.1.18-.2.38-.3.6-.1.22-.18.41-.23.55-.4,1.15-.87,2.28-1.42,3.4s-1.26,2.16-2.16,3.16c-1.18,1.33-2.52,2.43-4.02,3.31-1.5.88-3.01,1.54-4.55,1.99l-2.9-3.29c1.87-.4,3.5-.97,4.88-1.7,1.38-.74,2.51-1.54,3.37-2.4.59-.59,1.06-1.18,1.4-1.78.34-.59.62-1.16.83-1.7h-10.92c-.3,0-.75,0-1.34.02-.59.02-1.16.05-1.7.1v-3.74c.56.05,1.11.09,1.64.12.54.03,1,.05,1.4.05h11.42c.46,0,.87-.03,1.21-.08.34-.06.61-.12.8-.2l2.57,1.61ZM93.26,9.63c.34.05.76.08,1.28.11.52.02.99.04,1.4.04h9.1c.38,0,.86-.01,1.44-.04.58-.02,1.04-.06,1.39-.11v3.74c-.34-.03-.78-.06-1.34-.07-.56-.02-1.07-.02-1.54-.02h-9.05c-.4,0-.86,0-1.37.02-.51.02-.95.04-1.32.07v-3.74Z"/>
          <path class="cls-2" d="M116.18,24.44c.54-.02,1.19-.05,1.93-.11.74-.06,1.55-.12,2.41-.2.86-.08,1.75-.16,2.65-.25.9-.09,1.8-.18,2.68-.29.88-.1,1.71-.2,2.48-.3.78-.1,1.45-.18,2.03-.26l.82,3.77c-.61.08-1.32.16-2.15.25-.82.09-1.7.18-2.63.29-.93.1-1.87.21-2.82.31-.95.1-1.88.2-2.77.3-.9.1-1.72.18-2.48.25-.76.07-1.4.14-1.93.2-.3.03-.68.08-1.13.14-.45.06-.87.12-1.27.17l-.67-4.25h1.45c.54,0,1,0,1.4-.02ZM125.75,10.13c-.18.4-.36.85-.55,1.34-.19.5-.38,1.02-.58,1.58-.16.46-.35,1.04-.58,1.73-.22.69-.47,1.43-.73,2.23s-.54,1.62-.82,2.45c-.28.83-.55,1.64-.82,2.42-.26.78-.51,1.5-.74,2.15-.23.65-.44,1.18-.61,1.6l-4.32.14c.22-.54.47-1.18.74-1.92.27-.74.56-1.53.85-2.38.3-.85.59-1.71.88-2.59.29-.88.56-1.74.82-2.57.26-.83.49-1.6.71-2.32.22-.71.39-1.31.52-1.79.18-.64.31-1.19.4-1.66.09-.46.16-.92.23-1.37l4.61.94ZM129.9,17.72c.43.67.89,1.44,1.38,2.3.49.86.97,1.76,1.45,2.7s.93,1.84,1.34,2.72c.42.88.77,1.67,1.06,2.38l-3.94,1.75c-.29-.77-.63-1.63-1.02-2.58-.39-.95-.81-1.92-1.25-2.89-.44-.98-.89-1.89-1.34-2.75-.46-.86-.9-1.57-1.33-2.15l3.65-1.49Z"/>
          <path class="cls-2" d="M144.23,30.63h-7.63v-.12c.88-.75,1.68-1.69,2.39-2.82.71-1.13,1.28-2.41,1.72-3.84.43-1.43.65-2.97.65-4.62s-.22-3.21-.65-4.63c-.43-1.42-1-2.7-1.72-3.83-.71-1.13-1.51-2.07-2.39-2.82v-.12h7.63v22.8Z"/>
        </g>
      </g>
      <rect class="cls-3" width="151.66" height="41.36"/>
    </g>
  </g>
</svg>