<?xml version="1.0" encoding="UTF-8"?>
<svg id="_レイヤー_2" data-name="レイヤー 2" xmlns="http://www.w3.org/2000/svg" xmlns:xlink="http://www.w3.org/1999/xlink" viewBox="0 0 659.74 604.41">
  <defs>
    <style>
      .cls-1 {
        fill: #164097;
        filter: url(#drop-shadow-2);
        stroke: #fff;
      }

      .cls-1, .cls-2 {
        stroke-width: 6.86px;
      }

      .cls-1, .cls-2, .cls-3 {
        stroke-miterlimit: 10;
      }

      .cls-4, .cls-2 {
        fill: #fff;
      }

      .cls-2 {
        filter: url(#drop-shadow-1);
        stroke: #164097;
      }

      .cls-5, .cls-3, .cls-6 {
        fill: none;
      }

      .cls-7 {
        fill: #c42e29;
      }

      .cls-3, .cls-6 {
        stroke: #c42e29;
        stroke-width: 4px;
      }

      .cls-6 {
        stroke-linecap: round;
        stroke-linejoin: round;
      }
    </style>
    <filter id="drop-shadow-1" x="72.1" y="73.83" width="515.58" height="530.58" filterUnits="userSpaceOnUse">
      <feOffset dx="0" dy="15"/>
      <feGaussianBlur result="blur" stdDeviation="0"/>
      <feFlood flood-color="#d1d1d1" flood-opacity="1"/>
      <feComposite in2="blur" operator="in"/>
      <feComposite in="SourceGraphic"/>
    </filter>
    <filter id="drop-shadow-2" x="86.04" y="87.77" width="487.69" height="487.69" filterUnits="userSpaceOnUse">
      <feOffset dx="4" dy="4"/>
      <feGaussianBlur result="blur-2" stdDeviation="0"/>
      <feFlood flood-color="#a69b8d" flood-opacity=".45"/>
      <feComposite in2="blur-2" operator="in"/>
      <feComposite in="SourceGraphic"/>
    </filter>
  </defs>
  <g id="design">
    <g>
      <g>
        <circle class="cls-2" cx="329.88" cy="331.62" r="254.36"/>
        <circle class="cls-1" cx="329.88" cy="331.62" r="240.42"/>
        <g>
          <path class="cls-7" d="M112.43,98.47c4.08-3.65,10.68-10.69,12.78-14.21l5.7,3.59c-.45.82-1.08,1.86-1.42,2.81-1.17,4.84-1.52,16.59,5.5,25.14,4.27,5.21,9.29,4.52,13.57,1.01,9.89-8.11,4.23-21.28-12.7-34.65-.92-.58-1.85-1.17-2.77-1.75l4.38-6.2c5.41,4.87,13.05,10.46,25.01,11.15l.63,8.13c-3.51-.55-6.97-1.51-10.64-2.89,8.95,9.64,13.37,22.11.9,32.34-7.13,5.84-16.44,6.93-23.09-1.18-5.95-7.26-7.35-15.13-7.55-23.83-1.59,1.6-4.14,4.22-5.29,5.45-.87.94-1.51,1.61-2.34,2.59l-5.19-5.42c.84-.61,1.73-1.34,2.54-2.08Z"/>
          <path class="cls-7" d="M200.25,41.7l-.8.95,3.65,5.17c-2.24,2.16-5.13,4.47-8.14,6.65,3.23,2.53,6.73,4.72,8.97,5.88,1.54.82,3.05,1.45,4.55,1.96l-.73,6.25c-3.17.9-9.91,3.68-14.38,5.59l-2.4-5.64c2.6-1.12,6.15-2.67,7.81-3.35-2.82-1.64-6.43-4.03-9.66-6.68-5.82,3.66-12.82,7.43-21.9,11.32l-3.55-6.46c8.17-3.15,14.77-6.44,20.03-9.68-1.08-.93-1.95-1.84-2.71-2.54-1.03-.96-2.56-2.49-4.11-3.82l6.44-4.45c1.94,2.43,4.15,4.78,6.32,6.89,2.21-1.62,4.25-3.29,6.2-5.04-1.96-1.37-4.48-3.04-6.46-4.08l3.16-3.76c2.27,1.21,5.8,3.45,7.71,4.85ZM184.22,83.47c2.26,4.28,7.02,4.04,14.03.4,5.55-2.94,9.76-5.81,13-8.44l3.04,6.6c-2.61,2.1-6.84,5.18-13.08,8.42-10.39,5.49-19.08,4.95-22.96-2.39-1.64-3.11-2.21-6.52-2.31-10.9l7.15-1.89c-.36,3.26-.04,5.95,1.14,8.19ZM205.23,36.2l-3.08,3.91c-2.2-1.57-5.42-3.72-7.87-4.9l3.16-3.76c2.4,1.21,5.93,3.45,7.79,4.74Z"/>
          <path class="cls-7" d="M255.23,67.61l-6.07-5.36c2.04-.84,3.49-1.62,4.88-2.39,6.59-3.73,10.63-10.44,8.27-18.51-2.23-7.63-8.05-12.11-15.88-11.19.6,4.93,1.15,10.29,1.07,15.95-.05,12.14-2.79,20.39-8.82,22.15-6.14,1.8-13.2-3.46-15.93-12.8-3.74-12.77,4.13-26.9,18.45-31.09,13.71-4.02,25.12,2.97,28.65,15.02,3.42,11.66-1.3,21.99-14.6,28.23ZM236.4,59.68c2.32-.68,3.46-4.79,3.54-12.92.07-4.46-.25-9.47-.99-14.24-8.57,4.55-11.13,14.06-9.35,20.14,1.64,5.58,4.64,7.64,6.8,7.01Z"/>
          <path class="cls-7" d="M328.98,9.74l.49,5.86-38.35,3.21,1.03,12.28c.77,9.18.67,22.55-6.13,31.03-1.09-1.24-3.82-3.5-5.21-4.19,3.39-4.39,4.74-9.65,5.17-14.94-2.07,1.5-4.08,3-6.05,4.38l-2.54-6.15c2.21-1.23,5.4-3.11,8.7-5.12-.07-1.55-.2-3.05-.32-4.48l-.19-2.3-4.78,3c-.64-2.84-2.63-7.29-4.6-10.71l4.69-2.7c1.8,2.8,3.66,6.46,4.59,9.21l-1.23-14.64,17.68-1.48-.41-4.88,7.23-.61.41,4.88,19.8-1.66ZM330.32,52.75c.24,2.81-.24,4.01-2.06,5.03-1.71.95-4.29,1.23-7.79,1.52-.36-1.53-1.33-3.42-2.13-4.74,1.9-.1,4.08-.28,4.71-.34.75-.06.96-.31.9-.94l-.28-3.33-7.46.62.7,8.38-6.26.52-.7-8.38-7,.59.76,9.07-6.26.52-2.47-29.51,12.17-1.02c-2.38-.84-4.87-1.56-7.06-2.13l3.48-3.99c2.42.61,5.15,1.48,7.71,2.3,1.54-1,3.11-2.17,4.51-3.38l-19.92,1.67-.39-4.71,25.83-2.16,1.41-.46,4.14,3.24c-2.85,2.61-6.43,5.39-10.04,7.84.77.28,1.43.52,2.09.81l9.41-.79,1.99,23.77ZM301.65,36.19l.25,2.98,7-.59-.25-2.98-7,.59ZM309.56,46.4l-.26-3.1-7,.59.26,3.1,7-.59ZM322.37,34.46l-7.46.62.25,2.98,7.46-.62-.25-2.98ZM323.28,45.25l-.26-3.1-7.46.62.26,3.1,7.46-.62Z"/>
          <path class="cls-7" d="M355.31,12.1c3.26.38,9.36.79,12.08.87,1.44.11,2.97-.06,3.98-.35l4.17,4.08c-.9.77-1.67,1.43-2.22,2.18-1.77,2.29-4.52,7.02-7.14,11.64,4.39,1.2,8.46,3.06,12,5.1.14-.68.27-1.3.4-1.93.43-2.21.69-4.5.72-6.24l7.4,1.72c-.67,3.81-1.37,7.32-2.31,10.46,2.25,1.65,4.15,3.21,5.68,4.54l-4.24,7.57c-1.33-1.55-2.84-3.05-4.46-4.57-3.26,6.18-8.2,10.71-16.33,13.83l-5.49-5.68c9.07-2.72,13.71-7.7,16.2-12.69-3.81-2.7-8.19-4.95-13.03-6.2-2.62,4.63-5.69,10.07-8.05,12.99-2.69,3.17-5.62,4.46-9.51,4.01-5.04-.58-8.41-4.51-7.74-10.29,1.02-8.87,9.87-14.69,21.44-13.88,2.04-3.59,4.15-7.29,5.77-9.83-2.3-.15-7.24-.55-9.9-.68-1.15-.07-3.17-.13-4.69-.08l.57-7.42c1.53.35,3.46.69,4.72.83ZM346.3,45.97c1.15.13,2.01-.35,3.21-1.66,1.73-1.95,3.69-5.37,5.71-8.79-6.52.23-10.58,3.71-10.99,7.31-.22,1.89.76,2.99,2.07,3.14Z"/>
          <path class="cls-7" d="M413.86,39.16c1.23,2.71,4.04,9.87,4.69,11.6l-5.46,4.09c-.25-2.02-.99-5.11-1.72-8.08l-7.46,22.78-6.24-2.04,7.08-21.63c-3.33,4.24-6.88,8.05-10.22,10.29,0-2.06-.56-5.15-1.06-7.14,4.98-3.16,10.59-9.57,14.47-15.51l-7.06-2.31,2.01-6.13,7.83,2.56,3.68-11.22,6.24,2.04-3.68,11.22,6.84,2.24-2.01,6.13-6.84-2.24-1.09,3.34ZM454.1,32.7l-15.51,47.36-6.57-2.15.91-2.79-12.87-4.21-1.02,3.12-6.24-2.04,15.62-47.69,25.68,8.41ZM434.87,69.2l2.29-7.01-12.87-4.21-2.29,7.01,12.87,4.21ZM428.52,45.11l-2.28,6.95,12.87,4.21,2.28-6.95-12.87-4.21ZM432.66,32.47l-2.22,6.79,12.87,4.21,2.22-6.79-12.87-4.21Z"/>
          <path class="cls-7" d="M459.89,89.11l-10.21-5.82-1.11,1.95-5-2.85,9.72-17.07,15.21,8.67-8.61,15.11ZM455.62,72.88l-3.28,5.76,5.16,2.94,3.28-5.76-5.16-2.94ZM457.38,58.51l15.01,8.56-2.54,4.45-15.01-8.56,2.54-4.45ZM473.7,64.76l-15.01-8.56,2.6-4.55,15.01,8.56-2.6,4.55ZM479.23,58.89l-19.02-10.84,2.68-4.7,19.02,10.84-2.68,4.7ZM485.59,89.04c-.39,3.82.62,9.04,5.27,14.6-1.82.75-4.66,2.12-6.28,3.12-4.97-5.95-5.4-13.55-4.54-17.17-2.77,2.53-9.85,5.66-18.19,4.22.17-1.69-.12-4.91-.49-6.71,11.47,2.09,17.76-3.01,19.67-6.36l4.31-7.56,6.06,3.45-4.31,7.56c-.63,1.1-1.23,2.75-1.44,4.75,2.77-1.6,6.48-4.27,8.89-6.41l4.83,5.14c-3.55,2.15-7.38,4.35-10.16,5.61l-3.61-4.25ZM466.5,78.69c3.29-.65,6.78-3.29,9.37-6.33l4.61,4.02c-2.85,3.48-6.65,6.55-10.47,7.56l-3.51-5.25ZM481.37,50.96l-14.71-8.38,2.57-4.5,14.71,8.38-2.57,4.5ZM497.01,82.61c-.96-3.2-3.44-8.39-5.87-12.96-3.93,2.13-8.61,2.78-15.07,1.55.23-1.79.03-4.82-.62-6.59,12.26,2.68,16.32-2.57,22.36-12.25l5.76,3.28c-2.52,4.07-4.87,7.5-7.47,10.2,2.73,4.74,6.02,10.72,7.44,14.52l-6.52,2.25ZM493.08,54.85c-2.38,3.02-5.79,5.98-9.23,7.01l-3.51-4.65c2.88-.75,6.14-3.33,8.46-6.12l4.28,3.77ZM511.21,65.84c-3.31,1.96-6.85,3.99-9.45,5.29l-3.44-4.21c2.56-1.46,6.1-4.08,8.25-6.1l4.63,5.02Z"/>
          <path class="cls-7" d="M533.12,137.86l-3.98,4.55-38.44-33.58,3.98-4.55,16.31,14.25,2.92-3.34-12.45-10.88,3.87-4.42,12.45,10.88,3.15-3.6c-4.97-4.11-9.64-7.96-13.32-11.02l3.8-4.79,6.24,5.3c1.79-.73,3.73-1.56,5.47-2.41l-6.25-5.46,2.73-3.12-4.77-4.17,7.88-9.02,16.18,14.14,2.43-2.78,5.29,4.62-2.43,2.78,16.57,14.48-7.88,9.02-4.77-4.17-2.73,3.12-5.42-4.74c1.11,5.03,2.07,11.29,1.96,15.1l-6.5-.71c.08-1.23.06-2.7,0-4.29l-9.03-7.43-3.3,3.77,13.36,11.67-3.87,4.42-13.36-11.67-2.92,3.34,16.83,14.71ZM523.65,81.55l-2.69,3.08,27.76,24.26,2.69-3.08-27.76-24.26ZM529.01,99.39c-1.96.66-4.04,1.29-5.92,1.87l11.34,9.52c-.22-1.41-.47-2.79-.76-4.03l4.41.56-9.07-7.92Z"/>
        </g>
        <g>
          <rect class="cls-4" x="5.5" y="508.51" width="648.77" height="52.25"/>
          <rect class="cls-3" x="5.5" y="508.51" width="648.77" height="52.25"/>
          <g>
            <path class="cls-7" d="M24.62,532.69c-2.77,0-5.19,1.86-6.63,4.63l-2.49-1.33c2.21-4,5.44-6.14,9.16-6.14,3.19,0,5.44,1.3,7.9,3.76,1.9,1.79,3.44,2.88,5.97,2.88,2.77,0,5.19-1.86,6.63-4.63l2.49,1.33c-2.21,4-5.44,6.14-9.16,6.14-3.19,0-5.44-1.3-7.9-3.76-1.9-1.79-3.4-2.88-5.97-2.88Z"/>
            <path class="cls-7" d="M70.56,538.83v8.95c0,1.37-.28,2.07-1.33,2.42-1.05.39-2.74.39-5.44.39-.11-.67-.49-1.61-.81-2.28,2.04.07,3.86.07,4.39.04.53,0,.67-.18.67-.6v-8.91h-8.49v-12.53h7.33c.32-1.09.63-2.39.81-3.44h-11.3v7.72c0,5.79-.46,14.21-3.69,19.93-.49-.42-1.58-1.09-2.25-1.33,3.09-5.47,3.37-13.13,3.37-18.64v-10.04h28.29v2.35h-11.37c-.35,1.16-.74,2.39-1.12,3.44h9.65v12.53h-8.7ZM64.66,541.36c-1.83,2.95-4.6,5.86-7.12,7.76-.46-.46-1.54-1.19-2.14-1.54,2.6-1.68,5.19-4.28,6.81-6.91l2.46.7ZM62.1,531.57h14.49v-3.19h-14.49v3.19ZM62.1,536.76h14.49v-3.23h-14.49v3.23ZM75.58,540.52c2.6,2.04,5.69,4.95,7.12,7.02l-2.11,1.44c-1.33-2.07-4.39-5.09-7.02-7.19l2-1.26Z"/>
            <path class="cls-7" d="M116.4,520.2v30.39h-2.67v-1.58h-23.94v1.58h-2.6v-30.39h29.2ZM113.73,546.52v-23.83h-23.94v23.83h23.94ZM103.38,532.02c1.26,5.23,3.97,8.88,8.77,10.53-.56.49-1.26,1.44-1.61,2.11-4.49-1.79-7.19-5.16-8.74-10.07-1.16,4.63-3.61,8.04-8.95,10.21-.28-.63-.98-1.54-1.54-2,5.62-2.14,7.69-5.72,8.56-10.77h-8.14v-2.35h8.46c.18-1.68.25-3.54.32-5.51h2.42c-.07,1.97-.14,3.79-.32,5.51h9.2v2.35h-8.42Z"/>
            <path class="cls-7" d="M134.26,522.62c-.21,1.02-.53,3.09-.91,5.02,1.65-.14,3.12-.25,3.97-.25,3.12,0,5.69,1.19,5.69,5.93,0,4.18-.56,9.76-2.04,12.67-1.12,2.35-2.84,2.95-5.12,2.95-1.33,0-3.02-.25-4.14-.53l-.46-2.91c1.47.46,3.33.7,4.32.7,1.3,0,2.35-.28,3.05-1.79,1.12-2.39,1.68-6.95,1.68-10.74,0-3.23-1.51-3.83-3.72-3.83-.84,0-2.25.11-3.79.25-1.3,5.05-3.69,12.99-7.37,18.92l-2.88-1.12c3.58-4.81,6.21-12.81,7.41-17.51-1.86.18-3.54.39-4.46.49-.81.11-2.25.28-3.16.42l-.28-3.05c1.09.07,2,.04,3.12,0,1.16-.04,3.23-.21,5.33-.39.56-2.53.91-5.26.91-7.65l3.26.35c-.14.63-.28,1.4-.42,2.07ZM153.18,536.83l-2.74,1.3c-1.02-3.61-3.76-9.79-6.25-12.7l2.56-1.16c2.18,2.84,5.23,9.3,6.42,12.56Z"/>
            <path class="cls-7" d="M163.92,536.66c3.37-2.95,7.23-4.28,11.44-4.28,5.37,0,8.95,3.23,8.95,7.33,0,6.28-5.55,10.53-18.6,9.44l-.84-2.88c11.09,1.37,16.49-1.82,16.49-6.63,0-2.81-2.6-4.81-6.18-4.81-4.63,0-8.42,1.75-10.88,4.7-.53.6-.84,1.19-1.05,1.75l-2.6-.63c.7-3.19,1.58-10.56,1.79-14.25l2.95.39c-.49,2.39-1.09,7.62-1.47,9.86ZM179.74,523.11l-.67,2.7c-3.33-.46-10.95-2-13.62-2.74l.7-2.67c3.02.95,10.49,2.42,13.58,2.7Z"/>
            <path class="cls-7" d="M221.26,536.9c-1.09,3.33-2.91,6.07-5.16,8.25,2,1.54,4.39,2.7,7.09,3.37-.56.49-1.26,1.44-1.58,2.04-2.81-.81-5.26-2.14-7.33-3.86-2.14,1.65-4.53,2.84-6.98,3.68-.28-.6-.91-1.51-1.37-1.97v2.18h-2.49v-3.4c-4.28.53-8.56,1.02-11.83,1.4l-.25-2.32c.98-.07,2.11-.18,3.33-.32v-11.79h-3.02v-2.18h30.67v2.18h-16.42v14.21c2.32-.7,4.6-1.82,6.6-3.33-1.61-1.75-2.91-3.83-3.86-6.18l1.51-.46h-3.02v-2.07h12.07l.46-.07,1.58.63ZM218.42,530.02h-22.57v-10.35h22.57v10.35ZM197.08,534.16v2.35h6.35v-2.35h-6.35ZM197.08,540.94h6.35v-2.46h-6.35v2.46ZM197.08,545.71c2-.21,4.18-.42,6.35-.67v-2.14h-6.35v2.81ZM215.86,521.53h-17.55v2.42h17.55v-2.42ZM215.86,525.71h-17.55v2.46h17.55v-2.46ZM210.84,538.41c.81,1.93,2,3.68,3.44,5.16,1.58-1.47,2.88-3.19,3.79-5.16h-7.23Z"/>
            <path class="cls-7" d="M239.86,545.54c-.74-.88-2.53-2.6-4-3.93v8.91h-2.53v-9.19c-1.72,2.7-3.9,5.19-5.86,6.74-.42-.6-1.19-1.44-1.75-1.9,2.53-1.65,5.3-4.81,7.05-7.9h-6.28v-2.21h6.84v-3.68h-6.95v-2.21h16.28v2.21h-6.81v3.68h6.53v2.21h-6.53v.84c1.33.98,4.74,3.76,5.54,4.49l-1.54,1.93ZM242.25,524.41h-15.37v-2.18h6.46v-3.54h2.53v3.54h6.39v2.18ZM230.35,530.13c-.14-1.37-.7-3.47-1.37-5.05l2.04-.53c.74,1.58,1.33,3.65,1.51,4.98l-2.18.6ZM236.11,529.57c.63-1.4,1.44-3.58,1.75-5.09l2.39.56c-.67,1.75-1.37,3.72-2.04,4.98l-2.11-.46ZM258.15,532.76h-3.93v17.62h-2.56v-17.62h-5.23v.88c0,5.23-.67,12.25-5.58,17.13-.32-.56-1.26-1.47-1.86-1.82,4.46-4.35,4.95-10.42,4.95-15.34v-12.21l1.9.6c3.58-.77,7.51-1.9,9.76-3.02l2.11,1.93c-2.98,1.33-7.37,2.39-11.27,3.16v6.25h11.72v2.46Z"/>
            <path class="cls-7" d="M267.94,533.74c-1.44-1.12-4.39-2.63-6.77-3.51l1.44-2c2.32.77,5.3,2.14,6.84,3.26l-1.51,2.25ZM262.32,548.38c1.9-2.7,4.56-7.26,6.56-11.23l1.93,1.68c-1.82,3.68-4.25,8.04-6.28,11.3l-2.21-1.75ZM269.66,524.62c-1.4-1.26-4.21-2.91-6.6-3.86l1.44-1.97c2.35.88,5.23,2.42,6.7,3.68l-1.54,2.14ZM286.15,523.88c2.84,3.05,5.93,7.23,7.33,10l-2.39,1.33c-.39-.84-.95-1.82-1.61-2.84-6.88.42-13.97.77-18.85,1.05l-.32-2.56,3.33-.14c1.75-3.47,3.76-8.49,4.81-12.21l2.98.74c-1.44,3.65-3.3,8.04-4.98,11.37,3.47-.18,7.48-.35,11.48-.56-1.26-1.75-2.7-3.54-4.04-5.05l2.25-1.12ZM273.27,536.59h17.02v13.93h-2.6v-1.44h-11.9v1.54h-2.53v-14.04ZM275.8,539.01v7.69h11.9v-7.69h-11.9Z"/>
            <path class="cls-7" d="M303.74,524.06v8.98c0,5.33-.7,12.77-4.98,17.58-.39-.49-1.3-1.4-1.83-1.75,2.7-3.02,3.76-6.91,4.14-10.67-1.44.88-2.88,1.72-4.25,2.49l-.84-2.32c1.37-.63,3.23-1.61,5.26-2.7.04-.91.04-1.79.04-2.63v-11.23h11.44v-3.23h2.7v3.23h12.92v2.25h-24.6ZM298.65,532.44c-.25-1.79-1.12-4.67-2.18-6.88l1.97-.77c1.05,2.18,2.07,4.95,2.32,6.7l-2.11.95ZM327.25,530.72c-.88.88-1.97,1.79-2.91,2.49,1.37,1.02,2.84,1.82,4.32,2.39-.49.46-1.19,1.26-1.54,1.86-.98-.46-2-1.02-2.95-1.65v6.95h-6.7v5.33c0,1.23-.25,1.82-1.19,2.18-.98.35-2.42.35-4.7.35-.1-.63-.49-1.51-.84-2.14,1.72.07,3.19.04,3.65,0,.49,0,.56-.07.56-.46v-5.26h-6.53v-6.91c-.91.63-1.9,1.23-2.98,1.75-.35-.6-1.05-1.37-1.61-1.72,1.65-.77,3.12-1.68,4.39-2.7-.81-.74-1.82-1.58-2.74-2.18l1.4-1.23c.91.6,1.97,1.4,2.81,2.14.88-.84,1.65-1.72,2.28-2.63h-6.63v-2.07h7.93c.53-1.02.95-2.04,1.23-3.02l2.42.32c-.28.91-.63,1.82-1.05,2.7h12.07v2.07h-7.51c.74.98,1.58,1.93,2.56,2.81.95-.81,2.04-1.82,2.67-2.53l1.61,1.16ZM311.46,544.2c-1.4,2.21-3.65,4.39-5.72,5.83-.39-.46-1.33-1.23-1.93-1.54,2.07-1.26,4.11-3.09,5.26-4.95l2.39.67ZM321.81,535.01h-11.16v2.18h11.16v-2.18ZM321.81,538.83h-11.16v2.21h11.16v-2.21ZM321.14,533.29c-1.23-1.23-2.32-2.6-3.16-4h-3.3c-.84,1.4-1.9,2.74-3.19,4h9.65ZM322.23,543.57c1.97,1.54,4.32,3.83,5.44,5.37l-2.04,1.19c-1.02-1.58-3.37-3.9-5.33-5.54l1.93-1.02Z"/>
            <path class="cls-7" d="M331.71,542.06l2.28-2c2.53,2.04,5.69,5.23,7.86,7.79l-2.39,2.04c-2.25-2.77-5.26-5.79-7.76-7.83Z"/>
            <path class="cls-7" d="M385.33,535.46c3.19,4.49,8.53,8.88,13.41,11.02-.6.49-1.44,1.51-1.9,2.18-4.63-2.28-9.62-6.63-13.02-11.3v13.27h-2.7v-13.13c-3.4,4.67-8.32,8.84-12.92,11.16-.46-.63-1.3-1.65-1.9-2.14,4.88-2.18,10.18-6.53,13.34-11.05h-12.39v-2.56h13.86v-6.04h-11.34v-2.56h11.34v-5.72h2.7v5.72h11.69v2.56h-11.69v6.04h14.11v2.56h-12.6Z"/>
            <path class="cls-7" d="M420.75,536.52c3.19,4.28,8.39,8.46,13.13,10.49-.56.53-1.4,1.51-1.83,2.21-4.67-2.32-9.69-6.7-13.09-11.34v12.7h-2.7v-12.63c-3.4,4.63-8.39,8.84-12.98,11.13-.42-.63-1.26-1.61-1.83-2.14,4.7-2.04,9.86-6.14,13.06-10.42h-12.32v-2.49h14.07v-8.74h-12.42v-2.49h12.42v-4.18h2.7v4.18h12.7v2.49h-12.7v8.74h14.18v2.49h-12.39ZM408.95,526.09c1.4,2.04,2.84,4.74,3.33,6.56l-2.46.95c-.46-1.75-1.79-4.6-3.16-6.63l2.28-.88ZM423.03,532.94c1.19-1.9,2.7-4.88,3.54-6.98l2.67.84c-1.23,2.39-2.77,5.16-4.04,6.88l-2.18-.74Z"/>
            <path class="cls-7" d="M453.88,549.01l-1.65-2.6c1.12-.11,2.21-.28,3.02-.46,4.49-1.02,8.91-4.35,8.91-10.42,0-5.3-3.4-9.69-9.37-10.18-.46,3.26-1.12,6.84-2.11,10.11-2.14,7.23-4.91,10.91-8.18,10.91s-6.25-3.58-6.25-9.37c0-7.62,6.77-14.28,15.34-14.28s13.44,5.79,13.44,12.92-4.84,12.28-13.16,13.37ZM444.61,543.15c1.65,0,3.51-2.35,5.3-8.28.88-2.91,1.58-6.25,1.96-9.48-6.74.84-10.88,6.6-10.88,11.37,0,4.42,2.04,6.39,3.61,6.39Z"/>
            <path class="cls-7" d="M503.54,548.9h-27.23v1.65h-2.6v-30.08h29.06v2.49h-26.46v23.48h27.23v2.46ZM491.6,535.6c1.83,3.79,5.54,6.21,10.74,7.19-.56.53-1.26,1.51-1.61,2.21-4.81-1.16-8.32-3.47-10.49-7.09-1.26,2.7-4.18,5.26-10.39,7.16-.35-.56-1.05-1.47-1.58-1.93,7.16-1.97,9.44-4.84,10.11-7.55h-10.04v-2.32h10.32v-4.21h-5.44c-.88,1.16-1.83,2.18-2.81,2.98-.46-.39-1.58-.98-2.14-1.3,2.25-1.75,4.25-4.42,5.33-7.23l2.46.6c-.35.91-.81,1.82-1.3,2.7h15.72v2.25h-9.27v4.21h10.88v2.32h-10.49Z"/>
            <path class="cls-7" d="M514.31,524.06v8.98c0,5.33-.7,12.77-4.98,17.58-.39-.49-1.3-1.4-1.83-1.75,2.7-3.02,3.76-6.91,4.14-10.67-1.44.88-2.88,1.72-4.25,2.49l-.84-2.32c1.37-.63,3.23-1.61,5.26-2.7.04-.91.04-1.79.04-2.63v-11.23h11.44v-3.23h2.7v3.23h12.92v2.25h-24.6ZM509.22,532.44c-.25-1.79-1.12-4.67-2.18-6.88l1.97-.77c1.05,2.18,2.07,4.95,2.32,6.7l-2.11.95ZM537.82,530.72c-.88.88-1.97,1.79-2.91,2.49,1.37,1.02,2.84,1.82,4.32,2.39-.49.46-1.19,1.26-1.54,1.86-.98-.46-2-1.02-2.95-1.65v6.95h-6.7v5.33c0,1.23-.25,1.82-1.19,2.18-.98.35-2.42.35-4.7.35-.1-.63-.49-1.51-.84-2.14,1.72.07,3.19.04,3.65,0,.49,0,.56-.07.56-.46v-5.26h-6.53v-6.91c-.91.63-1.9,1.23-2.98,1.75-.35-.6-1.05-1.37-1.61-1.72,1.65-.77,3.12-1.68,4.39-2.7-.81-.74-1.82-1.58-2.74-2.18l1.4-1.23c.91.6,1.97,1.4,2.81,2.14.88-.84,1.65-1.72,2.28-2.63h-6.63v-2.07h7.93c.53-1.02.95-2.04,1.23-3.02l2.42.32c-.28.91-.63,1.82-1.05,2.7h12.07v2.07h-7.51c.74.98,1.58,1.93,2.56,2.81.95-.81,2.04-1.82,2.67-2.53l1.61,1.16ZM522.03,544.2c-1.4,2.21-3.65,4.39-5.72,5.83-.39-.46-1.33-1.23-1.93-1.54,2.07-1.26,4.11-3.09,5.26-4.95l2.39.67ZM532.39,535.01h-11.16v2.18h11.16v-2.18ZM532.39,538.83h-11.16v2.21h11.16v-2.21ZM531.72,533.29c-1.23-1.23-2.32-2.6-3.16-4h-3.3c-.84,1.4-1.9,2.74-3.19,4h9.65ZM532.81,543.57c1.97,1.54,4.32,3.83,5.44,5.37l-2.04,1.19c-1.02-1.58-3.37-3.9-5.33-5.54l1.93-1.02Z"/>
            <path class="cls-7" d="M560.36,522.41c0,.46-.04,1.23-.04,2.14,3.16-.14,6.35-.46,9.51-.95l-.03,2.56c-2.77.32-6.11.63-9.48.81v4.91c3.4-.14,6.6-.46,9.79-.95l-.04,2.63c-3.3.42-6.39.7-9.72.81.07,1.82.18,3.72.25,5.4,4.67,1.26,8.25,3.83,10.25,5.47l-1.61,2.49c-2.07-1.9-4.98-4.04-8.49-5.3.04.88.07,1.61.07,2.18,0,2.42-1.61,4.91-6.18,4.91-5.05,0-7.79-1.79-7.79-5.16,0-3.19,3.05-5.37,8.11-5.37,1.02,0,2,.07,2.95.21-.04-1.58-.11-3.26-.14-4.77h-2c-2.39,0-6.25-.21-8.77-.49l-.04-2.63c2.53.42,6.53.67,8.84.67h1.9v-4.91h-1.54c-2.46,0-6.77-.35-8.98-.6l-.04-2.6c2.28.42,6.63.77,8.98.77h1.61v-2.49c0-.6-.07-1.61-.14-2.11h2.98c-.1.63-.18,1.33-.21,2.35ZM554.32,547.08c2,0,3.72-.63,3.72-3.05,0-.6-.03-1.44-.03-2.35-1.09-.25-2.25-.35-3.4-.35-3.33,0-5.16,1.3-5.16,2.91s1.4,2.84,4.88,2.84Z"/>
            <path class="cls-7" d="M581.45,524.65c2.28-.25,8.91-.91,15.37-1.44,3.83-.32,7.12-.53,9.48-.63v2.81c-2,0-5.09.04-6.88.56-4.98,1.61-8.04,6.95-8.04,11.13,0,6.84,6.39,9.02,12.11,9.23l-1.02,2.91c-6.49-.25-13.9-3.72-13.9-11.55,0-5.47,3.33-9.93,6.56-11.86-3.75.42-12.7,1.26-16.49,2.07l-.32-3.05c1.33-.04,2.46-.11,3.12-.18ZM604.12,534.59l-1.79.84c-.81-1.68-1.83-3.51-2.88-4.95l1.79-.77c.81,1.16,2.14,3.33,2.88,4.88ZM608.12,533.08l-1.83.88c-.84-1.72-1.86-3.44-2.95-4.91l1.72-.81c.84,1.16,2.25,3.3,3.05,4.84Z"/>
            <path class="cls-7" d="M621.25,532.69c-2.77,0-5.19,1.86-6.63,4.63l-2.49-1.33c2.21-4,5.44-6.14,9.16-6.14,3.19,0,5.44,1.3,7.9,3.76,1.9,1.79,3.44,2.88,5.97,2.88,2.77,0,5.19-1.86,6.63-4.63l2.49,1.33c-2.21,4-5.44,6.14-9.16,6.14-3.19,0-5.44-1.3-7.9-3.76-1.9-1.79-3.4-2.88-5.97-2.88Z"/>
          </g>
        </g>
        <polyline class="cls-6" points="546.57 152.6 550.48 141.56 561.98 143.4 566.12 128.68 580.38 131.9 585.21 116.03"/>
        <polyline class="cls-6" points="121.98 152.46 110.43 150.53 110.24 138.89 95.02 137.38 95.71 122.78 79.24 120.78"/>
        <g>
          <path class="cls-4" d="M268.04,229.12c-3.9,7.06-9.28,12.72-15.78,17.27,8.45,1.95,18.38,2.97,29.8,3.34-2.79,3.16-6.22,9.01-7.89,12.72-15.23-1.02-27.48-3.44-37.51-7.89-11.23,4.36-24.33,6.87-38.07,8.26-1.02-3.34-3.99-9.28-6.31-12.16,11.33-.65,21.82-2.04,31.01-4.36-2.32-1.86-4.46-3.99-6.41-6.22-3.9,2.23-8.26,4.27-13.18,6.22-1.67-3.16-5.57-7.99-8.36-10.03,11.33-3.44,19.31-8.17,24.79-13.46-2.41-2.6-5.94-5.66-8.36-7.34,10.31-6.13,12.07-14.48,12.16-21.36h-28.32v-12.35h34.45v-7.34h13.93v7.34h34.82v12.35h-23.31v14.67c0,5.48-.74,8.64-4.46,10.49-3.53,1.86-7.8,1.95-13.09,1.95v-.19c-.74.93-1.39,1.86-2.14,2.79h21.17l2.23-.46,8.82,5.76ZM218.83,199.6c-3.81,7.52-9.66,15.13-15.97,19.68-2.41-2.41-6.69-5.94-9.29-7.71,5.57-3.62,10.49-9.93,12.72-15.32l12.54,3.34ZM227.74,234.32c2.69,2.69,5.94,4.92,9.75,6.87,3.9-1.95,7.33-4.18,10.21-6.87h-19.96ZM236.47,194.12c-.09,7.43-1.11,16.34-7.24,23.86l8.45,1.67c-.65-3.34-2.04-7.34-3.44-10.21,2.51.09,5.85.09,6.87.09s1.3-.19,1.3-1.11v-14.3h-5.94ZM267.3,195.98c4.92,5.11,11.05,12.16,13.83,17.18l-11.23,6.69c-2.32-4.92-8.17-12.44-13-17.92l10.4-5.94Z"/>
          <path class="cls-4" d="M329.88,222.44v40.11h-13.18v-40.11h-8.36c-.56,15.04-3.16,29.99-14.02,41.04-2.14-2.79-6.87-7.34-9.93-9.28,8.54-8.82,10.77-20.15,11.33-31.75h-9.75v-12.44h9.94v-17.83h-8.17v-12.44h49.4v12.44h-7.24v17.83h8.36v10.68c7.99-4.64,17.08-11.98,21.82-19.41l12.35,5.11c-7.06,9.75-16.9,18.48-26.28,24.61-1.86-2.6-5.2-5.94-8.26-8.54h-7.99ZM316.7,210v-17.83h-8.26v17.83h8.26ZM374.26,230.7c-7.89,13.93-19.59,24.42-32.96,31.66-2.04-3.44-5.94-8.08-9.38-10.96,11.79-5.29,23.4-14.3,29.43-25.63l12.91,4.92ZM371.39,180.84c-7.06,9.56-16.9,17.73-26.65,23.49-2.14-2.97-6.04-6.96-9.47-9.56,8.45-4.18,18.38-11.61,23.31-19.13l12.81,5.2Z"/>
          <path class="cls-4" d="M466.56,247.04v12.81h-58.59v-12.81h24.05v-16.06h-17.08v-12.53h17.08v-13h-8.26c-1.39,4.55-2.97,8.64-4.74,11.98-2.69-1.86-8.73-4.83-11.98-6.13.84-1.39,1.58-2.88,2.32-4.55l-5.39,2.41c-.28-1.58-.84-3.44-1.49-5.57v59.05h-13.56v-50.97c-.56,3.25-1.21,6.31-1.95,8.91l-9.84-3.53c2.14-6.31,3.71-16.81,4.36-24.61l7.43,1.02v-19.03h13.56v17.83l5.2-2.23c1.49,2.88,2.97,6.22,4.18,9.38,1.76-6.31,2.97-13.56,3.62-20.71l13.09,1.95c-.46,4.09-1.02,8.17-1.76,12.07h5.2v-17.64h13.46v17.64h17.83v12.72h-17.83v13h15.88v12.53h-15.88v16.06h21.08Z"/>
          <path class="cls-4" d="M212.89,312.51c6.22,5.76,14.39,10.31,22.84,12.63-2.41,2.88-5.2,7.52-7.06,11.05-7.43-2.97-16.81-9.01-22.01-14.67-5.01,5.48-13.93,11.7-22.47,15.13-1.21-2.88-3.44-6.96-5.48-9.66v29.62c4.74-1.95,11.33-5.2,18.01-8.45l3.06,10.03c-2.14,1.3-4.36,2.6-6.59,3.9,2.23.09,4.92.09,5.76.09.93,0,1.3-.28,1.3-1.3v-30.73h11.79v22.66l4.46-4.64c5.66,3.34,13.56,8.54,17.46,12.16l-8.36,9.1c-2.88-3.06-8.45-7.34-13.56-10.86v2.69c0,4.83-.74,7.24-3.99,8.73-3.16,1.49-7.15,1.58-12.44,1.58-.46-2.79-1.76-6.41-2.97-9.1-3.25,1.86-6.41,3.62-9.38,5.29l-4.55-9.93c0,5.2-.56,8.82-3.62,10.96-2.97,2.14-6.59,2.41-11.79,2.41-.28-3.34-1.67-9.1-3.16-12.44,2.14.19,4.64.19,5.57.19s1.21-.37,1.21-1.49v-16.53h-5.48c-.65,10.77-2.14,21.91-5.2,30.18-2.23-1.86-7.43-4.64-10.31-5.66,4.55-12.72,4.83-31.57,4.83-45.12v-33.98h27.95v22.1c5.01-2.14,9.94-5.2,13.83-8.54h-10.86v-11.14h18.29v-5.48h12.91v5.48h19.41v11.14h-11.42c4.36,3.71,9.84,6.96,15.04,9.01-2.79,2.32-6.69,6.87-8.63,9.93-5.11-2.79-10.12-7.06-14.39-11.98v5.66ZM166.93,328.48v-9.1h-4.83v.93c0,2.51,0,5.29-.09,8.17h4.92ZM162.1,298.49v8.73h4.83v-8.73h-4.83ZM178.72,325.97c8.36-2.88,16.71-8.45,21.26-13.65v-4.92c-4.55,4.92-9.94,9.1-15.41,11.79-1.3-2.14-3.62-5.01-5.85-7.43v14.21ZM189.3,350.67c-1.11-3.06-4.09-7.61-6.87-10.96l9.29-5.57c2.97,3.06,6.22,7.34,7.52,10.49l-9.94,6.04ZM212.98,344.36c2.41-2.79,5.76-7.61,7.61-11.05l10.21,6.13c-3.16,3.99-6.5,7.89-9.1,10.49l-8.73-5.57Z"/>
          <path class="cls-4" d="M256.99,318.83v52.55h-13.19v-84.86h37.14v32.31h-23.96ZM256.99,295.61v2.97h11.33v-2.97h-11.33ZM268.32,309.82v-3.16h-11.33v3.16h11.33ZM323.57,357.73c0,5.76-.84,9.1-4.18,11.23-3.25,2.14-7.52,2.41-13.28,2.41-.19-2.69-1.21-6.69-2.41-9.93-1.58,1.95-3.06,4.18-3.9,5.94-7.06-2.04-12.35-5.66-16.25-10.58-3.34,3.9-8.73,7.52-17.18,10.31-1.67-2.51-5.11-6.41-7.89-8.54,9.1-2.41,13.74-5.94,16.06-9.47h-13.93v-9.47h16.06v-3.53h-14.76v-9.19h5.57c-.65-1.76-1.49-3.62-2.41-5.11l10.31-2.88c1.67,2.41,3.25,5.48,3.99,7.99h8.36c.93-2.51,1.95-5.48,2.41-7.71h-4.36v-32.68h37.79v71.22ZM290.61,349.09c3.62,4.27,9.1,7.34,16.34,8.73-.37.37-.84.84-1.21,1.3h3.16c1.11,0,1.39-.46,1.39-1.58v-38.35h-18.94l11.23,2.88c-1.21,1.67-2.41,3.34-3.44,4.83h6.31v9.19h-16.81v3.53h17.55v9.47h-15.6ZM298.59,295.61v2.97h11.7v-2.97h-11.7ZM298.59,310.1h11.7v-3.44h-11.7v3.44Z"/>
          <path class="cls-4" d="M418.83,299.98h-13.28c1.67,2.32,3.16,4.74,3.99,6.78l-6.31,2.41h13.46v38.07c0,5.85-.93,9.28-4.83,11.23-3.81,1.95-8.64,2.14-15.13,2.14-.46-3.62-2.14-9.01-3.71-12.35,3.34.19,7.89.19,9.1.19,1.3,0,1.76-.37,1.76-1.49v-25.63h-11.42v48.65h-12.63v-60.82h.84c-2.79-2.23-7.43-5.29-10.21-6.78.93-.74,1.76-1.58,2.69-2.41h-9.75c1.3,2.23,2.41,4.46,2.97,6.31l-6.31,2.88h15.51v34.35h-8.17c5.11,6.13,9.84,14.21,11.88,19.96l-11.14,5.57c-.56-1.67-1.3-3.71-2.23-5.76-11.14,1.95-22.75,3.81-31.75,5.29l-2.04-11.79c1.95-.19,4.09-.46,6.31-.84v-46.8h3.06c-2.79-2.14-7.24-4.92-9.94-6.41,5.85-4.83,11.14-12.81,14.11-20.52l12.53,3.34c-.65,1.58-1.3,3.06-2.04,4.64h18.76v7.89c3.99-4.55,7.33-10.21,9.28-15.88l12.72,3.25c-.56,1.58-1.3,3.16-2.04,4.74h23.96v9.75ZM354.67,309.17c-1.02-2.69-2.69-5.85-4.46-8.82-2.23,3.34-4.64,6.31-6.87,8.82h11.33ZM362.94,319.1h-12.07v2.41h12.07v-2.41ZM350.87,333.59h12.07v-2.69h-12.07v2.69ZM360.06,352.81c-1.11-1.67-2.23-3.34-3.44-4.83l9.66-4.46h-15.41v10.68l9.19-1.39ZM397.01,309.17c-1.3-2.79-3.44-6.22-5.66-9.19h-1.95c-2.32,3.53-4.83,6.69-7.33,9.19h14.95Z"/>
          <path class="cls-4" d="M452.26,321.15c0,15.13-2.23,37.42-15.23,50.14-1.86-2.51-7.06-7.43-9.66-9.01,5.2-5.29,8.17-11.79,9.84-18.48-2.97,1.76-5.94,3.62-8.91,5.29l-3.71-12.81c3.9-1.49,9.1-3.99,14.67-6.69.19-2.97.19-5.85.19-8.54v-2.04l-8.54,4.64c-.74-4.74-3.25-12.16-5.85-17.92l9.66-4.83c1.67,3.34,3.44,7.24,4.74,10.86v-18.48h26.93v-10.12h14.3v10.12h32.5v11.98h-60.91v15.88ZM513.36,357.82v11.61h-63.6v-11.61h8.73v-27.67h12.16v27.67h7.15v-35.75h-21.54v-11.33h53.95v11.33h-19.5v10.4h18.48v11.23h-18.48v14.11h22.66Z"/>
          <path class="cls-4" d="M233.69,420.97c6.78-3.9,13.83-7.52,17.83-9.84,3.99-2.32,6.96-4.09,9.66-6.31l7.8,13c-3.25,1.95-6.59,3.81-10.4,5.66-5.48,2.69-16.43,7.71-24.6,12.91-7.15,4.74-12.35,9.66-12.35,15.78s5.94,9.01,17.83,9.01c9.19,0,21.82-1.58,30.64-3.62l-.19,16.25c-8.45,1.39-17.73,2.32-30.08,2.32-19.13,0-33.89-5.11-33.89-22.28,0-10.49,6.59-18.2,15.13-24.61-4.27-7.99-8.63-17.55-12.72-27.2l14.11-5.76c3.44,9.38,7.52,17.83,11.23,24.7Z"/>
          <path class="cls-4" d="M308.71,408.62c-1.11,4.83-4.36,26.46-4.36,35.1,0,.28,0,1.76.09,2.14,1.11-2.69,2.32-4.46,3.53-7.24l6.78,5.48c-2.79,8.36-5.57,17.73-6.69,23.12-.28,1.3-.56,3.44-.56,4.36,0,1.02,0,2.69.09,4.18l-12.72.93c-1.95-6.31-3.81-17.18-3.81-29.8,0-14.21,2.6-31.66,3.62-38.53.37-2.79.93-7.06,1.02-10.49l15.51,1.3c-.84,2.04-2.14,7.8-2.51,9.47ZM355.69,404.16c-.09,1.76-.19,4.83-.28,8.73,4.74-.56,9.29-1.21,13.46-2.14v14.02c-4.18.56-8.73,1.11-13.56,1.39.19,8.54.65,15.13.93,20.71,7.89,3.25,13.65,8.08,17.83,11.98l-7.61,11.79c-3.44-3.25-6.78-6.04-9.94-8.45-1.21,8.73-6.96,14.11-19.13,14.11-13.09,0-21.73-5.57-21.73-16.06s8.54-17.08,21.54-17.08c1.58,0,3.16.09,4.64.19-.28-4.92-.56-10.58-.65-16.43-1.76.09-3.53.09-5.2.09-5.57,0-11.14-.19-16.62-.56l-.09-13.37c5.39.56,10.96.84,16.62.84,1.76,0,3.44,0,5.2-.09-.09-4.36-.09-7.8-.19-9.47,0-1.39-.37-4.46-.74-6.41h16.06c-.28,1.76-.46,4.18-.56,6.22ZM336.1,463.03c4.46,0,6.22-2.41,6.22-7.52v-.65c-2.04-.56-4.09-.84-6.22-.84-4.36,0-7.24,1.67-7.24,4.64,0,3.25,3.25,4.36,7.24,4.36Z"/>
          <path class="cls-4" d="M431.65,421.52c0-5.11-4.36-7.43-10.49-7.43-5.29,0-9.19,2.41-13.28,6.69l-9.1-8.36c5.76-7.06,14.48-11.7,24.33-11.7,13.65,0,24.33,6.04,24.33,19.31s-19.22,14.3-18.38,26.56h-14.48c-1.49-14.11,17.08-16.9,17.08-25.07ZM412.34,462.94c0-5.48,3.99-9.29,9.47-9.29s9.47,3.81,9.47,9.29-3.99,9.47-9.47,9.47-9.47-3.99-9.47-9.47Z"/>
        </g>
      </g>
      <rect class="cls-5" width="659.74" height="604.09"/>
    </g>
  </g>
</svg>